#N canvas 589 329 224 269 10;
#X obj 12 114 t b b;
#X msg 39 140 stop;
#X msg 81 187 0;
#X obj 12 213 change;
#X msg 12 178 1;
#X obj 81 166 del 52;
#X obj 12 234 outlet;
#X obj 62 4 keyname;
#X obj 62 88 sel 1 0;
#X obj 62 25 list prepend;
#X obj 62 67 route \$1;
#X obj 62 46 list trim;
#X connect 0 0 4 0;
#X connect 0 1 1 0;
#X connect 1 0 5 0;
#X connect 2 0 3 0;
#X connect 3 0 6 0;
#X connect 4 0 3 0;
#X connect 5 0 2 0;
#X connect 7 0 9 0;
#X connect 7 1 9 1;
#X connect 8 0 0 0;
#X connect 8 1 5 0;
#X connect 9 0 11 0;
#X connect 10 0 8 0;
#X connect 11 0 10 0;
