#N canvas 986 459 472 525 10;
#X obj 16 154 os.triangle~;
#N canvas 1027 619 248 280 prm.sharp 0;
#X obj 57 59 t f f;
#X obj 84 91 t f b;
#X obj 84 112 i;
#X obj 57 133 -;
#X obj 57 154 abs;
#X obj 12 33 t f f;
#X obj 12 154 / 127;
#X obj 12 175 pow 2;
#X obj 12 196 pack f f;
#X obj 12 217 line~;
#X obj 12 12 r \$1-s-sharp-\$2\$3;
#X obj 12 238 outlet~;
#X obj 57 175 * 1;
#X connect 0 0 3 0;
#X connect 0 1 1 0;
#X connect 1 0 2 1;
#X connect 1 1 2 0;
#X connect 2 0 3 1;
#X connect 3 0 4 0;
#X connect 4 0 12 0;
#X connect 5 0 6 0;
#X connect 5 1 0 0;
#X connect 6 0 7 0;
#X connect 7 0 8 0;
#X connect 8 0 9 0;
#X connect 9 0 11 0;
#X connect 10 0 5 0;
#X connect 12 0 8 1;
#X restore 100 207 pd prm.sharp;
#X obj 16 233 *~;
#X obj 100 228 *~ -1;
#X obj 100 249 +~ 1;
#X obj 85 275 *~;
#X obj 16 363 *~;
#X obj 16 474 outlet~;
#N canvas 413 409 278 325 prm.tune 0;
#X obj 137 99 t f f;
#X obj 164 131 t f b;
#X obj 164 152 i;
#X obj 137 173 -;
#X obj 137 194 abs;
#X obj 12 33 t f f;
#X obj 12 79 / 127;
#X obj 12 236 pack f f;
#X obj 12 257 line~;
#X obj 12 278 outlet~;
#X obj 137 215 * 1;
#X obj 12 12 r \$1-s-tune-\$2;
#X obj 12 100 * 3;
#X msg 12 121 2 \$1;
#X obj 12 142 pow;
#X obj 54 75 loadbang;
#X obj 54 96 f \$2;
#X obj 12 163 *;
#X obj 54 147 exp;
#X obj 54 117 / 1.75;
#X obj 54 168 * 12;
#X connect 0 0 3 0;
#X connect 0 1 1 0;
#X connect 1 0 2 1;
#X connect 1 1 2 0;
#X connect 2 0 3 1;
#X connect 3 0 4 0;
#X connect 4 0 10 0;
#X connect 5 0 6 0;
#X connect 5 1 0 0;
#X connect 6 0 12 0;
#X connect 7 0 8 0;
#X connect 8 0 9 0;
#X connect 10 0 7 1;
#X connect 11 0 5 0;
#X connect 12 0 13 0;
#X connect 13 0 14 0;
#X connect 14 0 17 0;
#X connect 15 0 16 0;
#X connect 16 0 19 0;
#X connect 17 0 7 0;
#X connect 18 0 20 0;
#X connect 19 0 18 0;
#X connect 20 0 17 1;
#X restore 16 81 pd prm.tune;
#X obj 16 404 +~;
#X obj 256 154 os.triangle~;
#N canvas 1027 619 248 280 prm.sharp 0;
#X obj 57 59 t f f;
#X obj 84 91 t f b;
#X obj 84 112 i;
#X obj 57 133 -;
#X obj 57 154 abs;
#X obj 12 33 t f f;
#X obj 12 154 / 127;
#X obj 12 175 pow 2;
#X obj 12 196 pack f f;
#X obj 12 217 line~;
#X obj 12 12 r \$1-s-sharp-\$2\$3;
#X obj 12 238 outlet~;
#X obj 57 175 * 1;
#X connect 0 0 3 0;
#X connect 0 1 1 0;
#X connect 1 0 2 1;
#X connect 1 1 2 0;
#X connect 2 0 3 1;
#X connect 3 0 4 0;
#X connect 4 0 12 0;
#X connect 5 0 6 0;
#X connect 5 1 0 0;
#X connect 6 0 7 0;
#X connect 7 0 8 0;
#X connect 8 0 9 0;
#X connect 9 0 11 0;
#X connect 10 0 5 0;
#X connect 12 0 8 1;
#X restore 340 203 pd prm.sharp;
#X obj 256 229 *~;
#X obj 340 224 *~ -1;
#X obj 340 245 +~ 1;
#X obj 325 271 *~;
#X obj 241 363 *~;
#N canvas 413 409 278 325 prm.tune 0;
#X obj 137 99 t f f;
#X obj 164 131 t f b;
#X obj 164 152 i;
#X obj 137 173 -;
#X obj 137 194 abs;
#X obj 12 33 t f f;
#X obj 12 79 / 127;
#X obj 12 236 pack f f;
#X obj 12 257 line~;
#X obj 12 278 outlet~;
#X obj 137 215 * 1;
#X obj 12 100 * 3;
#X msg 12 121 2 \$1;
#X obj 12 142 pow;
#X obj 12 163 *;
#X obj 12 12 r \$1-s-tune-\$3;
#X obj 54 75 loadbang;
#X obj 54 96 f \$3;
#X obj 54 147 exp;
#X obj 54 117 / 1.75;
#X obj 54 168 * 12;
#X connect 0 0 3 0;
#X connect 0 1 1 0;
#X connect 1 0 2 1;
#X connect 1 1 2 0;
#X connect 2 0 3 1;
#X connect 3 0 4 0;
#X connect 4 0 10 0;
#X connect 5 0 6 0;
#X connect 5 1 0 0;
#X connect 6 0 11 0;
#X connect 7 0 8 0;
#X connect 8 0 9 0;
#X connect 10 0 7 1;
#X connect 11 0 12 0;
#X connect 12 0 13 0;
#X connect 13 0 14 0;
#X connect 14 0 7 0;
#X connect 15 0 5 0;
#X connect 16 0 17 0;
#X connect 17 0 19 0;
#X connect 18 0 20 0;
#X connect 19 0 18 0;
#X connect 20 0 14 1;
#X restore 271 81 pd prm.tune;
#X obj 153 398 +~;
#X obj 153 419 max~ 1;
#X obj 103 414 sig~ 1;
#X obj 103 435 /~;
#X obj 88 456 *~;
#X obj 41 107 *~;
#N canvas 1027 619 248 280 prm.mod 0;
#X obj 57 59 t f f;
#X obj 84 91 t f b;
#X obj 84 112 i;
#X obj 57 133 -;
#X obj 57 154 abs;
#X obj 12 33 t f f;
#X obj 12 124 / 127;
#X obj 12 196 pack f f;
#X obj 12 217 line~;
#X obj 12 238 outlet~;
#X obj 57 175 * 1;
#X obj 12 12 r \$1-s-mod-\$2\$3;
#X obj 12 145 pow 4;
#X obj 12 166 * 2;
#X connect 0 0 3 0;
#X connect 0 1 1 0;
#X connect 1 0 2 1;
#X connect 1 1 2 0;
#X connect 2 0 3 1;
#X connect 3 0 4 0;
#X connect 4 0 10 0;
#X connect 5 0 6 0;
#X connect 5 1 0 0;
#X connect 6 0 12 0;
#X connect 7 0 8 0;
#X connect 8 0 9 0;
#X connect 10 0 7 1;
#X connect 11 0 5 0;
#X connect 12 0 13 0;
#X connect 13 0 7 0;
#X restore 139 50 pd prm.mod;
#X obj 16 133 +~;
#X obj 256 133 +~;
#X obj 216 107 *~;
#X obj 124 71 *~;
#X obj 124 29 inlet~;
#N canvas 1089 640 316 181 prm.sensor 0;
#X obj 12 114 line~;
#X obj 12 135 *~;
#X obj 12 156 outlet~;
#X obj 12 93 pack f f;
#X obj 12 9 r \$1-s-sensor-\$3;
#X obj 57 51 sel 0 1;
#X msg 57 72 1000;
#X msg 97 72 100;
#X obj 57 30 r \$1-s-fast-\$2\$3;
#X connect 0 0 1 0;
#X connect 0 0 1 1;
#X connect 1 0 2 0;
#X connect 3 0 0 0;
#X connect 4 0 3 0;
#X connect 5 0 6 0;
#X connect 5 1 7 0;
#X connect 6 0 3 1;
#X connect 7 0 3 1;
#X connect 8 0 5 0;
#X restore 168 327 pd prm.sensor;
#N canvas 1089 640 316 181 prm.sensor 0;
#X obj 12 114 line~;
#X obj 12 135 *~;
#X obj 12 156 outlet~;
#X obj 12 93 pack f f;
#X obj 57 51 sel 0 1;
#X msg 57 72 1000;
#X msg 97 72 100;
#X obj 57 30 r \$1-s-fast-\$2\$3;
#X obj 12 9 r \$1-s-sensor-\$2;
#X connect 0 0 1 0;
#X connect 0 0 1 1;
#X connect 1 0 2 0;
#X connect 3 0 0 0;
#X connect 4 0 5 0;
#X connect 4 1 6 0;
#X connect 5 0 3 1;
#X connect 6 0 3 1;
#X connect 7 0 4 0;
#X connect 8 0 3 0;
#X restore 58 327 pd prm.sensor;
#X obj 85 181 *~ 1.4357;
#X obj 16 175 *~ 1.00944;
#X obj 16 301 /~ 1.4357;
#X obj 256 175 *~ 1.00944;
#X obj 325 177 *~ 1.4357;
#X obj 256 297 /~ 1.4357;
#X obj 88 477 delwrite~ \$1-del-\$2\$3 0;
#X obj 351 93 noise~;
#X obj 351 114 samphold~;
#X obj 351 135 lop~ 0.5;
#X obj 404 88 phasor~;
#X obj 404 25 loadbang;
#X msg 404 46 1000 1500;
#X obj 404 67 /;
#X obj 421 119 / 2;
#X obj 321 21 loadbang;
#X obj 321 42 f \$3;
#X msg 321 63 seed \$1;
#X obj 351 156 *~ 0.008;
#X connect 0 0 33 0;
#X connect 0 1 32 0;
#X connect 1 0 3 0;
#X connect 1 0 2 1;
#X connect 2 0 34 0;
#X connect 3 0 4 0;
#X connect 4 0 5 1;
#X connect 5 0 34 0;
#X connect 6 0 9 0;
#X connect 8 0 23 0;
#X connect 8 0 25 0;
#X connect 9 0 22 0;
#X connect 9 0 7 0;
#X connect 10 0 35 0;
#X connect 10 1 36 0;
#X connect 11 0 13 0;
#X connect 11 0 12 1;
#X connect 12 0 37 0;
#X connect 13 0 14 0;
#X connect 14 0 15 1;
#X connect 15 0 37 0;
#X connect 16 0 9 1;
#X connect 17 0 26 1;
#X connect 17 0 27 1;
#X connect 18 0 19 0;
#X connect 19 0 21 1;
#X connect 20 0 21 0;
#X connect 21 0 22 1;
#X connect 22 0 38 0;
#X connect 23 0 25 1;
#X connect 24 0 28 1;
#X connect 25 0 0 0;
#X connect 26 0 10 0;
#X connect 27 0 26 0;
#X connect 28 0 23 1;
#X connect 28 0 27 0;
#X connect 29 0 28 0;
#X connect 30 0 18 1;
#X connect 30 0 16 0;
#X connect 31 0 18 0;
#X connect 31 0 6 1;
#X connect 32 0 5 0;
#X connect 33 0 2 0;
#X connect 34 0 6 0;
#X connect 35 0 12 0;
#X connect 36 0 15 0;
#X connect 37 0 16 1;
#X connect 39 0 40 0;
#X connect 40 0 41 0;
#X connect 41 0 50 0;
#X connect 42 0 40 1;
#X connect 43 0 44 0;
#X connect 44 0 45 0;
#X connect 45 0 42 0;
#X connect 45 0 46 0;
#X connect 46 0 41 1;
#X connect 47 0 48 0;
#X connect 48 0 49 0;
#X connect 49 0 39 0;
#X connect 50 0 27 0;
#X connect 50 0 23 0;
