#N canvas 212 311 835 716 10;
#X obj 16 353 os.triangle~;
#N canvas 1027 619 224 280 prm.sharp 0;
#X obj 57 59 t f f;
#X obj 84 91 t f b;
#X obj 84 112 i;
#X obj 57 133 -;
#X obj 57 154 abs;
#X obj 12 33 t f f;
#X obj 12 154 / 127;
#X obj 12 175 pow 2;
#X obj 12 196 pack f f;
#X obj 12 217 line~;
#X obj 12 12 r \$1-s-sharp-\$2\$3;
#X obj 12 238 outlet~;
#X obj 57 175 * 1;
#X connect 0 0 3 0;
#X connect 0 1 1 0;
#X connect 1 0 2 1;
#X connect 1 1 2 0;
#X connect 2 0 3 1;
#X connect 3 0 4 0;
#X connect 4 0 12 0;
#X connect 5 0 6 0;
#X connect 5 1 0 0;
#X connect 6 0 7 0;
#X connect 7 0 8 0;
#X connect 8 0 9 0;
#X connect 9 0 11 0;
#X connect 10 0 5 0;
#X connect 12 0 8 1;
#X restore 425 407 pd prm.sharp;
#X obj 16 423 *~;
#X obj 85 486 *~;
#X obj 16 580 *~;
#X obj 16 653 outlet~;
#X obj 16 620 +~;
#X obj 266 353 os.triangle~;
#X obj 266 443 *~;
#X obj 335 496 *~;
#X obj 251 604 *~;
#X obj 36 327 *~;
#N canvas 1027 619 248 280 prm.mod 0;
#X obj 57 59 t f f;
#X obj 84 91 t f b;
#X obj 84 112 i;
#X obj 57 133 -;
#X obj 57 154 abs;
#X obj 12 33 t f f;
#X obj 12 124 / 127;
#X obj 12 196 pack f f;
#X obj 12 217 line~;
#X obj 12 238 outlet~;
#X obj 57 175 * 1;
#X obj 12 12 r \$1-s-mod-\$2\$3;
#X obj 12 145 pow 4;
#X obj 12 166 * 2;
#X connect 0 0 3 0;
#X connect 0 1 1 0;
#X connect 1 0 2 1;
#X connect 1 1 2 0;
#X connect 2 0 3 1;
#X connect 3 0 4 0;
#X connect 4 0 10 0;
#X connect 5 0 6 0;
#X connect 5 1 0 0;
#X connect 6 0 12 0;
#X connect 7 0 8 0;
#X connect 8 0 9 0;
#X connect 10 0 7 1;
#X connect 11 0 5 0;
#X connect 12 0 13 0;
#X connect 13 0 7 0;
#X restore 139 290 pd prm.mod;
#X obj 231 327 *~;
#X obj 124 311 *~;
#X obj 124 269 inlet~;
#N canvas 1089 640 246 198 prm.sensor 0;
#X obj 12 114 line~;
#X obj 12 135 *~;
#X obj 12 156 outlet~;
#X obj 12 93 pack f f;
#X obj 57 51 sel 0 1;
#X msg 57 72 1000;
#X obj 57 30 r \$1-s-fast-\$2\$3;
#X obj 12 9 r \$1-s-sensor-\$2;
#X msg 97 72 50;
#X connect 0 0 1 0;
#X connect 0 0 1 1;
#X connect 1 0 2 0;
#X connect 3 0 0 0;
#X connect 4 0 5 0;
#X connect 4 1 8 0;
#X connect 5 0 3 1;
#X connect 6 0 4 0;
#X connect 7 0 3 0;
#X connect 8 0 3 1;
#X restore 58 543 pd prm.sensor;
#X obj 88 653 delwrite~ \$1-del-\$2\$3 0;
#X obj 410 428 loadbang;
#X msg 410 449 1;
#X obj 410 470 -~;
#X obj 377 548 inlet~;
#X obj 58 564 min~ 1;
#X obj 178 564 min~ 1;
#X obj 16 221 prm.tune \$1 \$2;
#X obj 266 221 prm.tune \$1 \$3;
#X obj 364 226 inlet~;
#X text 124 249 (I1) Mod Source;
#X text 377 528 (I3) Hold;
#X text 364 206 (I2) Pitch;
#N canvas 1089 640 246 198 prm.sensor 0;
#X obj 12 114 line~;
#X obj 12 135 *~;
#X obj 12 156 outlet~;
#X obj 12 93 pack f f;
#X obj 57 51 sel 0 1;
#X msg 57 72 1000;
#X obj 57 30 r \$1-s-fast-\$2\$3;
#X msg 97 72 50;
#X obj 12 9 r \$1-s-sensor-\$3;
#X connect 0 0 1 0;
#X connect 0 0 1 1;
#X connect 1 0 2 0;
#X connect 3 0 0 0;
#X connect 4 0 5 0;
#X connect 4 1 7 0;
#X connect 5 0 3 1;
#X connect 6 0 4 0;
#X connect 7 0 3 1;
#X connect 8 0 3 0;
#X restore 178 543 pd prm.sensor;
#X obj 16 242 *~;
#X obj 266 242 *~;
#X msg 520 194 \$1 1;
#X obj 520 215 line~;
#X obj 470 210 osc~ 3;
#X obj 384 337 sig~ 0.53125;
#X obj 470 231 *~;
#X obj 520 173 r \$1-s-vibrato;
#X obj 16 293 +~;
#X obj 266 293 +~;
#X obj 36 263 *~;
#X obj 296 263 *~;
#X obj 496 63 r \$1-seed;
#X obj 496 84 +;
#X obj 470 13 loadbang;
#X obj 564 68 f \$2;
#X obj 470 34 t b b;
#X msg 496 105 seed \$1;
#X obj 470 337 *~ 0.025;
#X obj 400 247 *~ 0.0025;
#X obj 470 147 / 1000;
#X obj 470 126 random 1001;
#X obj 470 189 + 0.5;
#X obj 470 168 * 3;
#X connect 0 0 2 0;
#X connect 0 1 3 0;
#X connect 1 0 2 1;
#X connect 1 0 20 1;
#X connect 1 0 8 1;
#X connect 2 0 4 0;
#X connect 3 0 4 0;
#X connect 4 0 6 0;
#X connect 6 0 5 0;
#X connect 6 0 17 0;
#X connect 7 0 8 0;
#X connect 7 1 9 0;
#X connect 8 0 10 1;
#X connect 9 0 10 1;
#X connect 10 0 6 1;
#X connect 11 0 0 0;
#X connect 12 0 14 1;
#X connect 13 0 7 0;
#X connect 14 0 11 1;
#X connect 14 0 13 0;
#X connect 15 0 14 0;
#X connect 16 0 22 0;
#X connect 18 0 19 0;
#X connect 19 0 20 0;
#X connect 20 0 3 1;
#X connect 20 0 9 1;
#X connect 21 0 23 0;
#X connect 21 0 22 0;
#X connect 22 0 4 1;
#X connect 23 0 10 0;
#X connect 24 0 31 0;
#X connect 25 0 32 0;
#X connect 26 0 32 1;
#X connect 26 0 31 1;
#X connect 30 0 23 0;
#X connect 31 0 39 0;
#X connect 31 0 41 0;
#X connect 32 0 40 0;
#X connect 32 0 42 0;
#X connect 33 0 34 0;
#X connect 34 0 37 1;
#X connect 35 0 37 0;
#X connect 36 0 7 1;
#X connect 36 0 0 1;
#X connect 37 0 49 0;
#X connect 37 0 50 0;
#X connect 38 0 33 0;
#X connect 39 0 11 0;
#X connect 39 0 0 0;
#X connect 40 0 13 1;
#X connect 40 0 7 0;
#X connect 41 0 39 1;
#X connect 42 0 40 1;
#X connect 43 0 44 0;
#X connect 44 0 48 0;
#X connect 45 0 47 0;
#X connect 46 0 44 1;
#X connect 47 0 52 0;
#X connect 47 1 46 0;
#X connect 48 0 52 0;
#X connect 49 0 7 1;
#X connect 49 0 0 1;
#X connect 50 0 42 1;
#X connect 50 0 41 1;
#X connect 51 0 54 0;
#X connect 52 0 51 0;
#X connect 53 0 35 0;
#X connect 54 0 53 0;
