#N canvas 710 342 835 716 10;
#X obj 16 213 os.triangle~;
#N canvas 1027 619 224 280 prm.sharp 0;
#X obj 57 59 t f f;
#X obj 84 91 t f b;
#X obj 84 112 i;
#X obj 57 133 -;
#X obj 57 154 abs;
#X obj 12 33 t f f;
#X obj 12 154 / 127;
#X obj 12 175 pow 2;
#X obj 12 196 pack f f;
#X obj 12 217 line~;
#X obj 12 12 r \$1-s-sharp-\$2\$3;
#X obj 12 238 outlet~;
#X obj 57 175 * 1;
#X connect 0 0 3 0;
#X connect 0 1 1 0;
#X connect 1 0 2 1;
#X connect 1 1 2 0;
#X connect 2 0 3 1;
#X connect 3 0 4 0;
#X connect 4 0 12 0;
#X connect 5 0 6 0;
#X connect 5 1 0 0;
#X connect 6 0 7 0;
#X connect 7 0 8 0;
#X connect 8 0 9 0;
#X connect 9 0 11 0;
#X connect 10 0 5 0;
#X connect 12 0 8 1;
#X restore 425 267 pd prm.sharp;
#X obj 16 283 *~;
#X obj 85 346 *~;
#X obj 16 440 *~;
#X obj 16 593 outlet~;
#X obj 16 480 +~;
#X obj 266 213 os.triangle~;
#X obj 266 303 *~;
#X obj 335 356 *~;
#X obj 251 464 *~;
#X obj 163 474 +~;
#X obj 163 495 max~ 1;
#X obj 103 511 /~;
#X obj 88 532 *~;
#X obj 36 187 *~;
#N canvas 1027 619 248 280 prm.mod 0;
#X obj 57 59 t f f;
#X obj 84 91 t f b;
#X obj 84 112 i;
#X obj 57 133 -;
#X obj 57 154 abs;
#X obj 12 33 t f f;
#X obj 12 124 / 127;
#X obj 12 196 pack f f;
#X obj 12 217 line~;
#X obj 12 238 outlet~;
#X obj 57 175 * 1;
#X obj 12 12 r \$1-s-mod-\$2\$3;
#X obj 12 145 pow 4;
#X obj 12 166 * 2;
#X connect 0 0 3 0;
#X connect 0 1 1 0;
#X connect 1 0 2 1;
#X connect 1 1 2 0;
#X connect 2 0 3 1;
#X connect 3 0 4 0;
#X connect 4 0 10 0;
#X connect 5 0 6 0;
#X connect 5 1 0 0;
#X connect 6 0 12 0;
#X connect 7 0 8 0;
#X connect 8 0 9 0;
#X connect 10 0 7 1;
#X connect 11 0 5 0;
#X connect 12 0 13 0;
#X connect 13 0 7 0;
#X restore 139 150 pd prm.mod;
#X obj 231 187 *~;
#X obj 124 171 *~;
#X obj 124 129 inlet~;
#N canvas 1089 640 246 198 prm.sensor 0;
#X obj 12 114 line~;
#X obj 12 135 *~;
#X obj 12 156 outlet~;
#X obj 12 93 pack f f;
#X obj 57 51 sel 0 1;
#X msg 57 72 1000;
#X obj 57 30 r \$1-s-fast-\$2\$3;
#X obj 12 9 r \$1-s-sensor-\$2;
#X msg 97 72 50;
#X connect 0 0 1 0;
#X connect 0 0 1 1;
#X connect 1 0 2 0;
#X connect 3 0 0 0;
#X connect 4 0 5 0;
#X connect 4 1 8 0;
#X connect 5 0 3 1;
#X connect 6 0 4 0;
#X connect 7 0 3 0;
#X connect 8 0 3 1;
#X restore 58 403 pd prm.sensor;
#X obj 85 234 *~ 1.4357;
#X obj 16 234 *~ 1.00944;
#X obj 16 372 /~ 1.4357;
#X obj 266 234 *~ 1.00944;
#X obj 335 234 *~ 1.4357;
#X obj 266 382 /~ 1.4357;
#X obj 88 593 delwrite~ \$1-del-\$2\$3 0;
#X obj 410 288 loadbang;
#X msg 410 309 1;
#X obj 410 330 -~;
#X obj 103 469 loadbang;
#X msg 103 490 1;
#X obj 377 408 inlet~;
#X obj 58 424 min~ 1;
#X obj 178 424 min~ 1;
#X obj 16 101 prm.tune \$1 \$2;
#X obj 266 101 prm.tune \$1 \$3;
#X obj 266 75 inlet~;
#X text 124 109 (I1) Mod Source;
#X text 377 388 (I3) Hold;
#X text 266 55 (I2) Pitch;
#N canvas 1089 640 246 198 prm.sensor 0;
#X obj 12 114 line~;
#X obj 12 135 *~;
#X obj 12 156 outlet~;
#X obj 12 93 pack f f;
#X obj 57 51 sel 0 1;
#X msg 57 72 1000;
#X obj 57 30 r \$1-s-fast-\$2\$3;
#X msg 97 72 50;
#X obj 12 9 r \$1-s-sensor-\$3;
#X connect 0 0 1 0;
#X connect 0 0 1 1;
#X connect 1 0 2 0;
#X connect 3 0 0 0;
#X connect 4 0 5 0;
#X connect 4 1 7 0;
#X connect 5 0 3 1;
#X connect 6 0 4 0;
#X connect 7 0 3 1;
#X connect 8 0 3 0;
#X restore 178 403 pd prm.sensor;
#X obj 213 490 outlet~;
#X obj 16 122 *~;
#X obj 266 122 *~;
#X connect 0 0 22 0;
#X connect 0 1 21 0;
#X connect 1 0 2 1;
#X connect 1 0 30 1;
#X connect 1 0 8 1;
#X connect 2 0 23 0;
#X connect 3 0 23 0;
#X connect 4 0 6 0;
#X connect 6 0 14 0;
#X connect 6 0 5 0;
#X connect 7 0 24 0;
#X connect 7 1 25 0;
#X connect 8 0 26 0;
#X connect 9 0 26 0;
#X connect 10 0 6 1;
#X connect 11 0 12 0;
#X connect 11 0 43 0;
#X connect 12 0 13 1;
#X connect 13 0 14 1;
#X connect 14 0 27 0;
#X connect 15 0 0 0;
#X connect 16 0 18 1;
#X connect 17 0 7 0;
#X connect 18 0 15 1;
#X connect 18 0 17 0;
#X connect 19 0 18 0;
#X connect 20 0 34 0;
#X connect 21 0 3 0;
#X connect 22 0 2 0;
#X connect 23 0 4 0;
#X connect 24 0 8 0;
#X connect 25 0 9 0;
#X connect 26 0 10 1;
#X connect 28 0 29 0;
#X connect 29 0 30 0;
#X connect 30 0 3 1;
#X connect 30 0 9 1;
#X connect 31 0 32 0;
#X connect 32 0 13 0;
#X connect 33 0 35 0;
#X connect 33 0 34 0;
#X connect 34 0 4 1;
#X connect 34 0 11 0;
#X connect 35 0 10 0;
#X connect 35 0 11 1;
#X connect 36 0 44 0;
#X connect 37 0 45 0;
#X connect 38 0 37 0;
#X connect 38 0 45 1;
#X connect 38 0 44 1;
#X connect 42 0 35 0;
#X connect 44 0 15 0;
#X connect 44 0 0 0;
#X connect 45 0 17 1;
#X connect 45 0 7 0;
