#N canvas 216 616 242 371 10;
#X obj 12 33 / 127;
#X obj 12 147 outlet~;
#X msg 12 105 \$1 20;
#X obj 12 126 line~;
#X obj 12 12 r \$1-s-pitch-\$2\$3\$4\$5;
#X obj 12 74 + 0.01;
#X obj 12 54 * 1.99;
#X connect 0 0 6 0;
#X connect 2 0 3 0;
#X connect 3 0 1 0;
#X connect 4 0 0 0;
#X connect 5 0 2 0;
#X connect 6 0 5 0;
