#N canvas 216 616 221 177 10;
#X obj 12 33 / 127;
#X obj 12 138 outlet~;
#X msg 12 96 \$1 20;
#X obj 12 117 line~;
#X obj 12 12 r \$1-s-mod-\$2;
#X obj 12 54 pow 2;
#X obj 12 75 * 10;
#X connect 0 0 5 0;
#X connect 2 0 3 0;
#X connect 3 0 1 0;
#X connect 4 0 0 0;
#X connect 5 0 6 0;
#X connect 6 0 2 0;
