#N canvas 216 616 216 163 10;
#X obj 12 33 / 127;
#X obj 12 117 outlet~;
#X obj 12 54 * 2;
#X msg 12 75 \$1 20;
#X obj 12 96 line~;
#X obj 12 12 r \$1-s-pitch-\$2\$3\$4\$5;
#X connect 0 0 2 0;
#X connect 2 0 3 0;
#X connect 3 0 4 0;
#X connect 4 0 1 0;
#X connect 5 0 0 0;
