#N canvas 1134 252 594 273 10;
#X obj 157 132 == 0;
#X obj 142 154 *~;
#X obj 412 154 *~;
#X obj 427 132 == 2;
#X obj 415 240 outlet~;
#X obj 412 75 *~;
#X obj 427 111 r \$1-s-source-\$2\$3;
#X obj 27 34 r \$1-s-switch;
#X obj 12 75 *~;
#X obj 157 33 r \$1-s-switch;
#X obj 142 75 *~;
#X obj 427 33 r \$1-s-total-fb;
#X obj 27 55 == 0;
#X obj 282 75 *~;
#X obj 297 33 r \$1-s-total-fb;
#X obj 297 54 == 0;
#X obj 157 111 r \$1-s-source-\$2\$3;
#X obj 282 12 inlet~;
#X obj 12 12 delread~ \$1-del-\$4\$5;
#X obj 142 12 delread~ \$1-del-\$6\$7;
#X obj 412 12 delread~ \$1-total-feedback;
#X connect 0 0 1 1;
#X connect 1 0 4 0;
#X connect 2 0 4 0;
#X connect 3 0 2 1;
#X connect 5 0 2 0;
#X connect 6 0 3 0;
#X connect 7 0 12 0;
#X connect 8 0 1 0;
#X connect 9 0 10 1;
#X connect 10 0 1 0;
#X connect 11 0 5 1;
#X connect 12 0 8 1;
#X connect 13 0 2 0;
#X connect 14 0 15 0;
#X connect 15 0 13 1;
#X connect 16 0 0 0;
#X connect 17 0 13 0;
#X connect 18 0 8 0;
#X connect 19 0 10 0;
#X connect 20 0 5 0;
