#N canvas 216 616 279 260 10;
#X obj 12 33 / 127;
#X obj 12 222 outlet~;
#X obj 12 201 line~;
#X obj 12 12 r \$1-s-time-\$2;
#X obj 12 54 * 12;
#X obj 12 75 - 12;
#X msg 12 96 2 \$1;
#X obj 12 117 pow;
#X obj 12 138 * 8000;
#X obj 12 159 - 10;
#X msg 12 180 \$1 100;
#X connect 0 0 4 0;
#X connect 2 0 1 0;
#X connect 3 0 0 0;
#X connect 4 0 5 0;
#X connect 5 0 6 0;
#X connect 6 0 7 0;
#X connect 7 0 8 0;
#X connect 8 0 9 0;
#X connect 9 0 10 0;
#X connect 10 0 2 0;
