#N canvas 655 299 266 290 10;
#X obj 116 49 t f f;
#X obj 143 81 t f b;
#X obj 143 102 i;
#X obj 116 123 -;
#X obj 116 144 abs;
#X obj 12 33 t f f;
#X obj 12 76 / 127;
#X obj 12 181 pack f f;
#X obj 12 202 line~;
#X obj 12 243 outlet~;
#X obj 116 165 * 1;
#X obj 12 12 r \$1-s-tune-\$2;
#X obj 12 97 * 3;
#X msg 12 118 2 \$1;
#X obj 12 139 pow;
#X obj 54 60 loadbang;
#X obj 12 160 *;
#X obj 54 123 exp;
#X obj 54 102 / 1.75;
#X obj 54 144 * 12;
#X obj 52 202 inlet~;
#X obj 54 81 f \$2;
#X connect 0 0 3 0;
#X connect 0 1 1 0;
#X connect 1 0 2 1;
#X connect 1 1 2 0;
#X connect 2 0 3 1;
#X connect 3 0 4 0;
#X connect 4 0 10 0;
#X connect 5 0 6 0;
#X connect 5 1 0 0;
#X connect 6 0 12 0;
#X connect 7 0 8 0;
#X connect 8 0 9 0;
#X connect 10 0 7 1;
#X connect 11 0 5 0;
#X connect 12 0 13 0;
#X connect 13 0 14 0;
#X connect 14 0 16 0;
#X connect 15 0 21 0;
#X connect 16 0 7 0;
#X connect 17 0 19 0;
#X connect 18 0 17 0;
#X connect 19 0 16 1;
#X connect 20 0 9 0;
#X connect 21 0 18 0;
