#N canvas 216 616 286 316 10;
#X obj 179 249 line~;
#X obj 179 270 outlet~;
#X obj 12 128 r \$1-s-tune-\$2;
#X obj 110 12 loadbang;
#X obj 110 33 f \$2;
#X obj 110 75 text get \$1-tune;
#X obj 110 117 unpack f f;
#X obj 110 154 -;
#X obj 12 149 / 127;
#X obj 12 170 *;
#X obj 179 186 +;
#X obj 179 207 mtof;
#X obj 110 54 - 1;
#X msg 110 97 \$2 \$1;
#X obj 167 138 t f f;
#X msg 179 228 \$1 23.22;
#X connect 0 0 1 0;
#X connect 2 0 8 0;
#X connect 3 0 4 0;
#X connect 4 0 12 0;
#X connect 5 0 13 0;
#X connect 6 0 7 0;
#X connect 6 1 14 0;
#X connect 7 0 9 1;
#X connect 8 0 9 0;
#X connect 9 0 10 0;
#X connect 10 0 11 0;
#X connect 11 0 15 0;
#X connect 12 0 5 0;
#X connect 13 0 6 0;
#X connect 14 0 7 1;
#X connect 14 1 10 1;
#X connect 15 0 0 0;
