#N canvas 348 127 1572 931 10;
#X declare -path ./abs;
#N canvas 0 22 450 278 (subpatch) 0;
#X array \$0-scope 100 float 1;
#A 0 0 0 0 0 0 0 0 0 0 0 0 0 0 0 0 0 0 0 0 0 0 0 0 0 0 0 0 0 0 0 0
0 0 0 0 0 0 0 0 0 0 0 0 0 0 0 0 0 0 0 0 0 0 0 0 0 0 0 0 0 0 0 0 0 0
0 0 0 0 0 0 0 0 0 0 0 0 0 0 0 0 0 0 0 0 0 0 0 0 0 0 0 0 0 0 0 0 0 0
0;
#X coords 0 1 99 -1 200 140 1;
#X restore 1078 557 graph;
#N canvas 782 22 1138 1036 gui 0;
#X obj 11 11 cnv 19 383 675 empty empty LIRA•8 308 195 0 20 -256626
-1 0;
#X obj 38 455 vsl 19 128 0 127 0 0 \$0-s-tune-1 \$0-r-tune-1 TUNE -5
-10 0 14 -262144 -1 -1 7189 1;
#X obj 41 413 hsl 54 19 0 127 0 0 \$0-s-sharp-12 \$0-r-sharp-12 SHARP
5 -8 0 14 -1 -262144 -1 0 1;
#X obj 41 373 hsl 54 19 0 127 0 0 \$0-s-mod-12 \$0-r-mod-12 MOD 14
-8 0 14 -1 -262144 -1 2600 1;
#X obj 78 455 vsl 19 128 0 127 0 0 \$0-s-tune-2 \$0-r-tune-2 TUNE -5
-10 0 14 -262144 -1 -1 0 1;
#X obj 59 604 tgl 17 0 \$0-s-fast-12 \$0-r-fast-12 FAST -3 -7 0 12
-262144 -1 -1 1 1;
#X obj 33 626 cnv 19 29 50 empty empty empty 20 12 0 14 -1 -66577 0
;
#X obj 38 650 tgl 19 0 \$0-s-sensor-1 \$0-r-sensor-1 1 5 -10 0 14 -262144
-1 -262144 0 1;
#X obj 73 626 cnv 19 29 50 empty empty empty 20 12 0 14 -1 -66577 0
;
#X obj 78 650 tgl 19 0 \$0-s-sensor-2 \$0-r-sensor-2 2 5 -10 0 14 -262144
-1 -262144 0 1;
#X obj 123 626 cnv 19 29 50 empty empty empty 20 12 0 14 -1 -66577
0;
#X obj 128 650 tgl 19 0 \$0-s-sensor-3 \$0-r-sensor-3 3 5 -10 0 14
-262144 -1 -262144 0 1;
#X obj 163 626 cnv 19 29 50 empty empty empty 20 12 0 14 -1 -66577
0;
#X obj 168 650 tgl 19 0 \$0-s-sensor-4 \$0-r-sensor-4 4 5 -10 0 14
-262144 -1 -262144 0 1;
#X obj 213 626 cnv 19 29 50 empty empty empty 20 12 0 14 -1 -66577
0;
#X obj 218 650 tgl 19 0 \$0-s-sensor-5 \$0-r-sensor-5 5 5 -10 0 14
-262144 -1 -262144 0 1;
#X obj 253 626 cnv 19 29 50 empty empty empty 20 12 0 14 -1 -66577
0;
#X obj 258 650 tgl 19 0 \$0-s-sensor-6 \$0-r-sensor-6 6 5 -10 0 14
-262144 -1 -262144 0 1;
#X obj 303 626 cnv 19 29 50 empty empty empty 20 12 0 14 -1 -66577
0;
#X obj 308 650 tgl 19 0 \$0-s-sensor-7 \$0-r-sensor-7 7 5 -10 0 14
-262144 -1 -262144 0 1;
#X obj 343 626 cnv 19 29 50 empty empty empty 20 12 0 14 -1 -66577
0;
#X obj 348 650 tgl 19 0 \$0-s-sensor-8 \$0-r-sensor-8 8 5 -10 0 14
-262144 -1 -262144 0 1;
#X obj 39 293 hsl 128 19 0 127 0 0 \$0-s-pitch-1234 \$0-r-pitch-1234
PITCH 40 -8 0 14 -1 -262144 -1 8900 1;
#X obj 239 293 hsl 128 19 0 127 0 0 \$0-s-pitch-5678 \$0-r-pitch-5678
PITCH 40 -8 0 14 -1 -262144 -1 500 1;
#X obj 39 333 hradio 19 1 0 3 \$0-s-source-12 \$0-r-source-12 LFO-CV
4 -8 0 14 -262144 -1 -1 2;
#X obj 128 455 vsl 19 128 0 127 0 0 \$0-s-tune-3 \$0-r-tune-3 TUNE
-5 -10 0 14 -262144 -1 -1 4100 1;
#X obj 168 455 vsl 19 128 0 127 0 0 \$0-s-tune-4 \$0-r-tune-4 TUNE
-5 -10 0 14 -262144 -1 -1 2300 1;
#X obj 218 455 vsl 19 128 0 127 0 0 \$0-s-tune-5 \$0-r-tune-5 TUNE
-5 -10 0 14 -262144 -1 -1 6400 1;
#X obj 258 455 vsl 19 128 0 127 0 0 \$0-s-tune-6 \$0-r-tune-6 TUNE
-5 -10 0 14 -262144 -1 -1 6600 1;
#X obj 308 455 vsl 19 128 0 127 0 0 \$0-s-tune-7 \$0-r-tune-7 TUNE
-5 -10 0 14 -262144 -1 -1 1700 1;
#X obj 348 455 vsl 19 128 0 127 0 0 \$0-s-tune-8 \$0-r-tune-8 TUNE
-5 -10 0 14 -262144 -1 -1 2600 1;
#X obj 131 413 hsl 54 19 0 127 0 0 \$0-s-sharp-34 \$0-r-sharp-34 SHARP
5 -8 0 14 -1 -262144 -1 3200 1;
#X obj 221 413 hsl 54 19 0 127 0 0 \$0-s-sharp-56 \$0-r-sharp-56 SHARP
5 -8 0 14 -1 -262144 -1 4100 1;
#X obj 311 413 hsl 54 19 0 127 0 0 \$0-s-sharp-78 \$0-r-sharp-78 SHARP
5 -8 0 14 -1 -262144 -1 0 1;
#X obj 131 373 hsl 54 19 0 127 0 0 \$0-s-mod-34 \$0-r-mod-34 MOD 14
-8 0 14 -1 -262144 -1 3200 1;
#X obj 221 373 hsl 54 19 0 127 0 0 \$0-s-mod-56 \$0-r-mod-56 MOD 14
-8 0 14 -1 -262144 -1 2900 1;
#X obj 311 373 hsl 54 19 0 127 0 0 \$0-s-mod-78 \$0-r-mod-78 MOD 14
-8 0 14 -1 -262144 -1 3000 1;
#X obj 149 604 tgl 17 0 \$0-s-fast-34 \$0-r-fast-34 FAST -3 -7 0 12
-262144 -1 -1 0 1;
#X obj 239 604 tgl 17 0 \$0-s-fast-56 \$0-r-fast-56 FAST -3 -7 0 12
-262144 -1 -1 0 1;
#X obj 329 604 tgl 17 0 \$0-s-fast-78 \$0-r-fast-78 FAST -3 -7 0 12
-262144 -1 -1 0 1;
#X obj 111 425 cnv 3 3 200 empty empty empty 20 12 0 14 -1 -66577 0
;
#X obj 201 385 cnv 3 3 240 empty empty empty 20 12 0 14 -1 -66577 0
;
#X obj 381 385 cnv 3 3 240 empty empty empty 20 12 0 14 -1 -66577 0
;
#X obj 21 385 cnv 3 3 240 empty empty empty 20 12 0 14 -1 -66577 0
;
#X obj 98 421 cnv 3 29 3 empty empty empty 20 12 0 14 -1 -66577 0;
#X obj 188 381 cnv 3 29 3 empty empty empty 20 12 0 14 -1 -66577 0
;
#X obj 278 421 cnv 3 29 3 empty empty empty 20 12 0 14 -1 -66577 0
;
#X obj 21 381 cnv 3 16 3 empty empty empty 20 12 0 14 -1 -66577 0;
#X obj 368 381 cnv 3 16 3 empty empty empty 20 12 0 14 -1 -66577 0
;
#X obj 103 626 cnv 3 19 3 empty empty empty 20 12 0 14 -1 -66577 0
;
#X obj 283 626 cnv 3 19 3 empty empty empty 20 12 0 14 -1 -66577 0
;
#X obj 193 626 cnv 3 19 3 empty empty empty 20 12 0 14 -1 -66577 0
;
#X obj 21 626 cnv 3 11 3 empty empty empty 20 12 0 14 -1 -66577 0;
#X obj 291 425 cnv 3 3 200 empty empty empty 20 12 0 14 -1 -66577 0
;
#X obj 373 626 cnv 3 11 3 empty empty empty 20 12 0 14 -1 -66577 0
;
#X obj 239 253 hsl 128 19 0 127 0 0 \$0-s-hold-5678 \$0-r-hold-5678
HOLD 45 -8 0 14 -1 -262144 -1 0 1;
#X obj 194 265 tgl 17 0 \$0-s-switch \$0-r-switch SWITCH -10 -7 0 12
-262144 -1 -1 1 1;
#X obj 164 220 tgl 17 0 \$0-s-total-fb \$0-r-total-fb TOTAL-FB -20
-7 0 12 -262144 -1 -1 0 1;
#X obj 234 219 tgl 17 0 \$0-s-vibrato \$0-r-vibrato VIBRATO -15 -7
0 12 -262144 -1 -1 0 1;
#X msg 421 218 8;
#X obj 421 239 until;
#X obj 421 260 i;
#X obj 451 260 + 1;
#X obj 421 302 t f f;
#X obj 421 375 list prepend;
#X obj 490 328 + 1;
#X obj 421 323 + 1;
#X obj 421 281 % 8;
#X obj 11 172 cnv 19 95 20 empty empty HYPER-LFO 5 11 0 14 -1 -262144
0;
#X obj 299 172 cnv 19 95 20 empty empty DISTORTION 10 11 0 14 -1 -262144
0;
#X obj 155 172 cnv 19 95 20 empty empty MOD-DELAY 12 11 0 14 -1 -262144
0;
#X obj 111 11 cnv 3 3 160 empty empty empty 20 12 0 14 -1 -66577 0
;
#X obj 291 11 cnv 3 3 160 empty empty empty 20 12 0 14 -1 -66577 0
;
#X obj 11 172 cnv 3 383 3 empty empty empty 20 12 0 14 -1 -66577 0
;
#X obj 596 116 r \$0-s-source-12;
#X obj 596 284 s \$0-r-source-12;
#X obj 596 137 text get \$0-source-12-label;
#X obj 596 90 text define -k \$0-source-12-label;
#A set 1 34 20 \; 2 OFF 20 \; 2 LFO-CV 4 \;;
#X msg 596 263 label \$1;
#X obj 596 242 makefilename %s;
#X obj 596 200 route 1 2;
#X obj 621 221 symbol;
#X msg 596 179 \$1 \$2;
#X obj 596 158 t a a;
#X msg 664 174 label_pos \$3 -8;
#X obj 664 195 s \$0-r-source-12;
#X obj 129 333 hradio 19 1 0 3 \$0-s-source-34 \$0-r-source-34 LFO-CV
4 -8 0 14 -262144 -1 -1 2;
#X obj 219 333 hradio 19 1 0 3 \$0-s-source-56 \$0-r-source-56 LFO-CV
4 -8 0 14 -262144 -1 -1 2;
#X obj 309 333 hradio 19 1 0 3 \$0-s-source-78 \$0-r-source-78 LFO-CV
4 -8 0 14 -262144 -1 -1 2;
#X msg 816 263 label \$1;
#X obj 816 242 makefilename %s;
#X obj 816 200 route 1 2;
#X obj 841 221 symbol;
#X msg 816 179 \$1 \$2;
#X obj 816 158 t a a;
#X msg 884 174 label_pos \$3 -8;
#X msg 596 493 label \$1;
#X obj 596 472 makefilename %s;
#X obj 596 430 route 1 2;
#X obj 621 451 symbol;
#X msg 596 409 \$1 \$2;
#X obj 596 388 t a a;
#X msg 664 404 label_pos \$3 -8;
#X msg 816 493 label \$1;
#X obj 816 472 makefilename %s;
#X obj 816 430 route 1 2;
#X obj 841 451 symbol;
#X msg 816 409 \$1 \$2;
#X obj 816 388 t a a;
#X msg 884 404 label_pos \$3 -8;
#X obj 816 284 s \$0-r-source-34;
#X obj 816 116 r \$0-s-source-34;
#X obj 596 514 s \$0-r-source-56;
#X obj 816 514 s \$0-r-source-78;
#X obj 816 346 r \$0-s-source-78;
#X obj 596 367 text get \$0-source-56-label;
#X obj 816 367 text get \$0-source-78-label;
#X obj 816 320 text define -k \$0-source-78-label;
#A set 1 56 20 \; 2 OFF 20 \; 2 LFO-CV 4 \;;
#X obj 596 320 text define -k \$0-source-56-label;
#A set 1 78 20 \; 2 OFF 20 \; 2 LFO-CV 4 \;;
#X obj 596 346 r \$0-s-source-56;
#X obj 816 90 text define -k \$0-source-34-label;
#A set 1 12 20 \; 2 OFF 20 \; 2 LFO-CV 4 \;;
#X obj 816 137 text get \$0-source-34-label;
#X obj 884 195 s \$0-r-source-34;
#X obj 664 425 s \$0-r-source-56;
#X obj 884 425 s \$0-r-source-78;
#X obj 39 253 hsl 128 19 0 127 0 0 \$0-s-hold-1234 \$0-r-hold-1234
HOLD 45 -8 0 14 -1 -262144 -1 12700 1;
#X obj 421 396 route 1 2 3 4 5 6 7 8;
#X msg 421 354 receive $\\\$0-tune-\\\$1;
#X obj 120 147 hradio 19 1 0 2 \$0-s-lfo-wav \$0-r-lfo-wav SQUARE 0
-8 0 14 -1 -262144 -1 1;
#X obj 167 110 hsl 116 19 0 127 0 0 \$0-s-feedback \$0-r-feedback FEEDBACK
25 -8 0 14 -1 -262144 -1 0 1;
#X obj 120 110 hradio 19 1 0 2 \$0-s-del-mod \$0-r-del-mod SELF 0 -8
0 14 -1 -262144 -1 0;
#X obj 167 147 hsl 116 19 0 127 0 0 \$0-s-del-mix \$0-r-del-mix MIX
45 -8 0 14 -1 -262144 -1 11100 1;
#X obj 188 73 hsl 95 19 0 127 0 0 \$0-s-time-2 \$0-r-time-2 TIME-2
25 -8 0 14 -1 -262144 -1 4600 1;
#X obj 123 73 hsl 54 19 0 127 0 0 \$0-s-mod-2 \$0-r-mod-2 MOD-2 6 -8
0 14 -1 -262144 -1 3400 1;
#X obj 188 37 hsl 95 19 0 127 0 0 \$0-s-time-1 \$0-r-time-1 TIME-1
25 -8 0 14 -1 -262144 -1 6000 1;
#X obj 123 37 hsl 54 19 0 127 0 0 \$0-s-mod-1 \$0-r-mod-1 MOD-1 6 -8
0 14 -1 -262144 -1 2600 1;
#X obj 365 35 vsl 19 128 0 127 0 0 \$0-s-vol \$0-r-vol VOL -2 -10 0
14 -1 -262144 -1 12700 1;
#X obj 335 35 vsl 19 128 0 127 0 0 \$0-s-dst-mix \$0-r-dst-mix MIX
-2 -10 0 14 -1 -262144 -1 12700 1;
#X obj 305 35 vsl 19 128 0 127 0 0 \$0-s-drv \$0-r-drv DRV -2 -10 0
14 -1 -228856 -1 0 1;
#X obj 49 34 vsl 19 128 0 127 0 0 \$0-s-f-b \$0-r-f-b F-B -2 -10 0
14 -1 -262144 -1 5500 1;
#X obj 19 34 vsl 19 128 0 127 0 0 \$0-s-f-a \$0-r-f-a F-A -2 -10 0
14 -1 -228856 -1 12100 1;
#X obj 79 32 vradio 19 1 0 2 \$0-s-andor \$0-r-andor OR 2 -8 0 14 -1
-262144 -1 1;
#X obj 79 81 bng 19 50 10 0 empty \$0-r-led empty 17 7 0 10 -1 -4034
-1;
#X obj 321 213 cnv 15 15 15 empty empty ORGANISMIC 0 8 0 12 -256626
-1 0;
#X obj 323 225 cnv 15 15 15 empty empty SYNTHESIZER 0 8 0 10 -256626
-1 0;
#X obj 106 227 cnv 4 4 4 empty empty empty 20 12 0 14 -262144 -66577
0;
#N canvas 191 498 1414 497 gui.link 0;
#X obj 394 178 gui.link \$0 1 tune-1;
#X obj 394 218 gui.link \$0 3 tune-3;
#X obj 394 238 gui.link \$0 4 tune-4;
#X obj 394 268 gui.link \$0 5 tune-5;
#X obj 394 288 gui.link \$0 6 tune-6;
#X obj 394 308 gui.link \$0 7 tune-7;
#X obj 394 328 gui.link \$0 8 tune-8;
#X obj 394 198 gui.link \$0 2 tune-2;
#X obj 524 178 gui.link \$0 9 fast-12;
#X obj 524 198 gui.link \$0 10 fast-34;
#X obj 524 218 gui.link \$0 11 fast-56;
#X obj 524 238 gui.link \$0 12 fast-78;
#X obj 524 268 gui.link \$0 13 sharp-12;
#X obj 524 288 gui.link \$0 14 sharp-34;
#X obj 524 308 gui.link \$0 15 sharp-56;
#X obj 524 328 gui.link \$0 16 sharp-78;
#X obj 674 178 gui.link \$0 17 mod-12;
#X obj 674 198 gui.link \$0 18 mod-34;
#X obj 674 218 gui.link \$0 19 mod-56;
#X obj 674 238 gui.link \$0 20 mod-78;
#X obj 674 268 gui.link \$0 21 source-12;
#X obj 674 289 gui.link \$0 22 source-34;
#X obj 674 308 gui.link \$0 23 source-56;
#X obj 674 328 gui.link \$0 24 source-78;
#X obj 208 326 text define \$0-parameters;
#X obj 58 258 r \$0-write;
#X obj 58 279 del 100;
#X obj 208 207 t b b;
#X obj 208 249 s \$0-loadbang-1;
#X obj 235 228 s \$0-loadbang-0;
#X msg 208 300 read ./parameters.txt;
#X msg 58 300 write ./parameters.txt;
#X obj 208 279 r \$0-loadbang-0;
#X obj 208 186 loadbang;
#X obj 834 178 gui.link \$0 25 pitch-1234;
#X obj 834 198 gui.link \$0 26 pitch-5678;
#X obj 834 228 gui.link \$0 27 hold-1234;
#X obj 834 248 gui.link \$0 28 hold-5678;
#X obj 834 298 gui.link \$0 30 total-fb;
#X obj 834 278 gui.link \$0 29 switch;
#X obj 834 318 gui.link \$0 31 vibrato;
#X obj 1004 178 gui.link \$0 32 drv;
#X obj 1004 218 gui.link \$0 34 vol;
#X obj 1004 198 gui.link \$0 33 dst-mix;
#X obj 1004 248 gui.link \$0 35 f-a;
#X obj 1004 268 gui.link \$0 36 f-b;
#X obj 1004 288 gui.link \$0 37 andor;
#X obj 1004 308 gui.link \$0 38 link;
#X obj 1154 178 gui.link \$0 39 time-1;
#X obj 1154 198 gui.link \$0 40 time-2;
#X obj 1154 218 gui.link \$0 41 feedback;
#X obj 1154 238 gui.link \$0 42 del-mix;
#X obj 1154 268 gui.link \$0 43 mod-1;
#X obj 1154 288 gui.link \$0 44 mod-2;
#X obj 1154 308 gui.link \$0 45 del-mod;
#X obj 1154 328 gui.link \$0 46 lfo-wav;
#X connect 25 0 26 0;
#X connect 26 0 31 0;
#X connect 27 0 28 0;
#X connect 27 1 29 0;
#X connect 30 0 24 0;
#X connect 31 0 24 0;
#X connect 32 0 30 0;
#X connect 33 0 27 0;
#X restore 29 766 pd gui.link;
#X obj 29 726 declare -path ./abs;
#N canvas 823 425 450 146 keyboard 0;
#X obj 14 41 s \$0-r-sensor-1;
#X obj 114 41 s \$0-r-sensor-2;
#X obj 214 41 s \$0-r-sensor-3;
#X obj 314 41 s \$0-r-sensor-4;
#X obj 14 81 s \$0-r-sensor-5;
#X obj 114 81 s \$0-r-sensor-6;
#X obj 214 81 s \$0-r-sensor-7;
#X obj 314 81 s \$0-r-sensor-8;
#X obj 14 20 key.tgl 49;
#X obj 114 20 key.tgl 50;
#X obj 214 20 key.tgl 51;
#X obj 314 20 key.tgl 52;
#X obj 14 60 key.tgl 53;
#X obj 114 60 key.tgl 54;
#X obj 214 60 key.tgl 55;
#X obj 314 60 key.tgl 56;
#X connect 8 0 0 0;
#X connect 9 0 1 0;
#X connect 10 0 2 0;
#X connect 11 0 3 0;
#X connect 12 0 4 0;
#X connect 13 0 5 0;
#X connect 14 0 6 0;
#X connect 15 0 7 0;
#X restore 29 746 pd keyboard;
#X obj 98 381 cnv 3 10 3 empty empty empty 20 12 0 14 -1 -66577 0;
#X obj 117 381 cnv 3 10 3 empty empty empty 20 12 0 14 -1 -66577 0
;
#X obj 97 341 cnv 3 11 3 empty empty empty 20 12 0 14 -1 -66577 0;
#X obj 117 341 cnv 3 11 3 empty empty empty 20 12 0 14 -1 -66577 0
;
#X obj 105 345 cnv 3 3 35 empty empty empty 20 12 0 14 -1 -66577 0
;
#X obj 117 345 cnv 3 3 35 empty empty empty 20 12 0 14 -1 -66577 0
;
#X obj 278 381 cnv 3 10 3 empty empty empty 20 12 0 14 -1 -66577 0
;
#X obj 297 381 cnv 3 10 3 empty empty empty 20 12 0 14 -1 -66577 0
;
#X obj 277 341 cnv 3 11 3 empty empty empty 20 12 0 14 -1 -66577 0
;
#X obj 297 341 cnv 3 11 3 empty empty empty 20 12 0 14 -1 -66577 0
;
#X obj 285 345 cnv 3 3 35 empty empty empty 20 12 0 14 -1 -66577 0
;
#X obj 297 345 cnv 3 3 35 empty empty empty 20 12 0 14 -1 -66577 0
;
#X text 179 282 34 > 56;
#X text 179 292 78 > 12;
#X obj 595 654 t a a;
#X obj 595 586 text define -k \$0-andor-label;
#A set AND -2 \; OR 2 \;;
#X obj 595 633 text get \$0-andor-label;
#X obj 595 612 r \$0-s-andor;
#X msg 663 670 label_pos \$2 -8;
#X obj 595 696 symbol;
#X obj 595 738 s \$0-r-andor;
#X msg 595 717 label \$1;
#X obj 663 691 s \$0-r-andor;
#X msg 595 675 \$1;
#X obj 79 131 tgl 19 0 \$0-s-link \$0-r-link LINK -4 -8 0 14 -1 -262144
-1 0 1;
#X obj 805 675 symbol;
#X msg 805 696 label \$1;
#X msg 805 654 \$1;
#X obj 805 612 r \$0-s-del-mod;
#X obj 805 633 text get \$0-del-mod;
#X obj 805 586 text define -k \$0-del-mod;
#A set SELF \; LFO \;;
#X obj 805 717 s \$0-r-del-mod;
#X obj 805 855 symbol;
#X msg 805 876 label \$1;
#X msg 805 834 \$1;
#X obj 805 813 text get \$0-lfo-wav;
#X obj 805 792 r \$0-s-lfo-wav;
#X obj 805 766 text define -k \$0-lfo-wav;
#A set TRIANGLE \; SQUARE \;;
#X obj 805 897 s \$0-r-lfo-wav;
#X connect 59 0 60 0;
#X connect 60 0 61 0;
#X connect 61 0 67 0;
#X connect 62 0 61 1;
#X connect 63 0 66 0;
#X connect 63 1 65 0;
#X connect 64 0 126 0;
#X connect 65 0 64 1;
#X connect 66 0 127 0;
#X connect 67 0 62 0;
#X connect 67 0 63 0;
#X connect 74 0 76 0;
#X connect 76 0 83 0;
#X connect 78 0 75 0;
#X connect 79 0 78 0;
#X connect 80 0 79 0;
#X connect 80 1 81 0;
#X connect 81 0 78 0;
#X connect 82 0 80 0;
#X connect 83 0 82 0;
#X connect 83 1 84 0;
#X connect 84 0 85 0;
#X connect 89 0 110 0;
#X connect 90 0 89 0;
#X connect 91 0 90 0;
#X connect 91 1 92 0;
#X connect 92 0 89 0;
#X connect 93 0 91 0;
#X connect 94 0 93 0;
#X connect 94 1 95 0;
#X connect 95 0 122 0;
#X connect 96 0 112 0;
#X connect 97 0 96 0;
#X connect 98 0 97 0;
#X connect 98 1 99 0;
#X connect 99 0 96 0;
#X connect 100 0 98 0;
#X connect 101 0 100 0;
#X connect 101 1 102 0;
#X connect 102 0 123 0;
#X connect 103 0 113 0;
#X connect 104 0 103 0;
#X connect 105 0 104 0;
#X connect 105 1 106 0;
#X connect 106 0 103 0;
#X connect 107 0 105 0;
#X connect 108 0 107 0;
#X connect 108 1 109 0;
#X connect 109 0 124 0;
#X connect 111 0 121 0;
#X connect 114 0 116 0;
#X connect 115 0 101 0;
#X connect 116 0 108 0;
#X connect 119 0 115 0;
#X connect 121 0 94 0;
#X connect 127 0 64 0;
#X connect 163 0 172 0;
#X connect 163 1 167 0;
#X connect 165 0 163 0;
#X connect 166 0 165 0;
#X connect 167 0 171 0;
#X connect 168 0 170 0;
#X connect 170 0 169 0;
#X connect 172 0 168 0;
#X connect 174 0 175 0;
#X connect 175 0 180 0;
#X connect 176 0 174 0;
#X connect 177 0 178 0;
#X connect 178 0 176 0;
#X connect 181 0 182 0;
#X connect 182 0 187 0;
#X connect 183 0 181 0;
#X connect 184 0 183 0;
#X connect 185 0 184 0;
#X coords 0 -1 1 1 385 677 2 10 10;
#X restore 39 22 pd gui;
#X obj 493 584 lira.voice \$0 1 2;
#N canvas 764 394 523 455 master_output 0;
#X obj 389 101 r \$0-s-vol;
#X obj 389 244 / 127;
#X obj 389 265 pow 4;
#X obj 434 148 t f f;
#X obj 461 179 t f b;
#X obj 461 201 i;
#X obj 434 222 -;
#X obj 434 243 abs;
#X obj 434 264 * 1;
#X obj 389 122 t f f;
#X obj 389 286 pack f f;
#X obj 389 307 line~;
#X obj 132 323 *~;
#X obj 132 394 *~ 0.9;
#X obj 132 415 dac~ 1 2;
#X obj 273 207 / 127;
#X obj 318 111 t f f;
#X obj 345 142 t f b;
#X obj 345 164 i;
#X obj 318 185 -;
#X obj 318 206 abs;
#X obj 318 227 * 1;
#X obj 273 85 t f f;
#X obj 273 249 pack f f;
#X obj 273 270 line~;
#X obj 12 218 inlet~;
#X obj 132 244 *~;
#X obj 132 265 ma.tanh~;
#X obj 12 307 *~;
#X obj 147 65 / 127;
#X obj 202 59 t f f;
#X obj 229 90 t f b;
#X obj 229 112 i;
#X obj 202 133 -;
#X obj 202 154 abs;
#X obj 202 175 * 1;
#X obj 147 33 t f f;
#X obj 147 197 pack f f;
#X obj 147 218 line~;
#X obj 147 12 r \$0-s-drv;
#X obj 147 86 pow 2;
#X obj 147 107 * 24;
#X obj 147 128 + 100;
#X obj 147 149 dbtorms;
#X obj 132 286 *~;
#X obj 27 286 -~;
#X obj 273 64 r \$0-s-dst-mix;
#X obj 27 244 loadbang;
#X msg 27 265 1;
#X obj 12 328 ma.tanh~;
#X connect 0 0 9 0;
#X connect 1 0 2 0;
#X connect 2 0 10 0;
#X connect 3 0 6 0;
#X connect 3 1 4 0;
#X connect 4 0 5 1;
#X connect 4 1 5 0;
#X connect 5 0 6 1;
#X connect 6 0 7 0;
#X connect 7 0 8 0;
#X connect 8 0 10 1;
#X connect 9 0 1 0;
#X connect 9 1 3 0;
#X connect 10 0 11 0;
#X connect 11 0 12 1;
#X connect 12 0 13 0;
#X connect 13 0 14 0;
#X connect 13 0 14 1;
#X connect 15 0 23 0;
#X connect 16 0 19 0;
#X connect 16 1 17 0;
#X connect 17 0 18 1;
#X connect 17 1 18 0;
#X connect 18 0 19 1;
#X connect 19 0 20 0;
#X connect 20 0 21 0;
#X connect 21 0 23 1;
#X connect 22 0 15 0;
#X connect 22 1 16 0;
#X connect 23 0 24 0;
#X connect 24 0 44 1;
#X connect 24 0 45 1;
#X connect 25 0 26 0;
#X connect 25 0 28 0;
#X connect 26 0 27 0;
#X connect 27 0 44 0;
#X connect 28 0 49 0;
#X connect 29 0 40 0;
#X connect 30 0 33 0;
#X connect 30 1 31 0;
#X connect 31 0 32 1;
#X connect 31 1 32 0;
#X connect 32 0 33 1;
#X connect 33 0 34 0;
#X connect 34 0 35 0;
#X connect 35 0 37 1;
#X connect 36 0 29 0;
#X connect 36 1 30 0;
#X connect 37 0 38 0;
#X connect 38 0 26 1;
#X connect 39 0 36 0;
#X connect 40 0 41 0;
#X connect 41 0 42 0;
#X connect 42 0 43 0;
#X connect 43 0 37 0;
#X connect 44 0 12 0;
#X connect 45 0 28 1;
#X connect 46 0 22 0;
#X connect 47 0 48 0;
#X connect 48 0 45 0;
#X connect 49 0 12 0;
#X restore 494 898 pd master_output;
#X obj 523 636 lira.voice \$0 3 4;
#N canvas 1027 619 248 280 prm.hold 0;
#X obj 57 59 t f f;
#X obj 84 91 t f b;
#X obj 84 112 i;
#X obj 57 133 -;
#X obj 57 154 abs;
#X obj 12 33 t f f;
#X obj 12 154 / 127;
#X obj 12 196 pack f f;
#X obj 12 217 line~;
#X obj 12 238 outlet~;
#X obj 57 175 * 1;
#X obj 12 12 r \$0-s-hold-1234;
#X obj 12 175 pow 2;
#X connect 0 0 3 0;
#X connect 0 1 1 0;
#X connect 1 0 2 1;
#X connect 1 1 2 0;
#X connect 2 0 3 1;
#X connect 3 0 4 0;
#X connect 4 0 10 0;
#X connect 5 0 6 0;
#X connect 5 1 0 0;
#X connect 6 0 12 0;
#X connect 7 0 8 0;
#X connect 8 0 9 0;
#X connect 10 0 7 1;
#X connect 11 0 5 0;
#X connect 12 0 7 0;
#X restore 592 527 pd prm.hold;
#N canvas 1004 696 459 282 prm.pitch 0;
#X obj 117 59 t f f;
#X obj 144 91 t f b;
#X obj 144 112 i;
#X obj 117 133 -;
#X obj 117 154 abs;
#X obj 12 33 t f f;
#X obj 12 68 / 127;
#X obj 12 197 pack f f;
#X obj 12 218 line~;
#X obj 12 239 outlet~;
#X obj 117 175 * 1;
#X obj 12 12 r \$0-s-pitch-1234;
#X obj 12 89 * 24;
#X obj 12 110 - 12;
#X obj 12 131 + 69;
#X obj 12 152 mtof;
#X obj 12 173 / 440;
#X connect 0 0 3 0;
#X connect 0 1 1 0;
#X connect 1 0 2 1;
#X connect 1 1 2 0;
#X connect 2 0 3 1;
#X connect 3 0 4 0;
#X connect 4 0 10 0;
#X connect 5 0 6 0;
#X connect 5 1 0 0;
#X connect 6 0 12 0;
#X connect 7 0 8 0;
#X connect 8 0 9 0;
#X connect 10 0 7 1;
#X connect 11 0 5 0;
#X connect 12 0 13 0;
#X connect 13 0 14 0;
#X connect 14 0 15 0;
#X connect 15 0 16 0;
#X connect 16 0 7 0;
#X restore 542 506 pd prm.pitch;
#X obj 495 719 /~ 8;
#N canvas 1027 619 248 280 prm.hold 0;
#X obj 57 59 t f f;
#X obj 84 91 t f b;
#X obj 84 112 i;
#X obj 57 133 -;
#X obj 57 154 abs;
#X obj 12 33 t f f;
#X obj 12 154 / 127;
#X obj 12 196 pack f f;
#X obj 12 217 line~;
#X obj 12 238 outlet~;
#X obj 57 175 * 1;
#X obj 12 12 r \$0-s-hold-5678;
#X obj 12 175 pow 2;
#X connect 0 0 3 0;
#X connect 0 1 1 0;
#X connect 1 0 2 1;
#X connect 1 1 2 0;
#X connect 2 0 3 1;
#X connect 3 0 4 0;
#X connect 4 0 10 0;
#X connect 5 0 6 0;
#X connect 5 1 0 0;
#X connect 6 0 12 0;
#X connect 7 0 8 0;
#X connect 8 0 9 0;
#X connect 10 0 7 1;
#X connect 11 0 5 0;
#X connect 12 0 7 0;
#X restore 782 527 pd prm.hold;
#X obj 683 584 lira.voice \$0 5 6;
#X obj 713 636 lira.voice \$0 7 8;
#X obj 493 480 prm.source \$0 1 2 3 4 7 8;
#X obj 503 610 prm.source \$0 3 4 1 2 1 2;
#X obj 683 480 prm.source \$0 5 6 7 8 3 4;
#X obj 693 610 prm.source \$0 7 8 5 6 5 6;
#X obj 775 709 max~ 1;
#X obj 715 725 /~;
#X obj 700 746 *~;
#X obj 715 683 loadbang;
#X msg 715 704 1;
#N canvas 1004 696 459 282 prm.pitch 0;
#X obj 117 59 t f f;
#X obj 144 91 t f b;
#X obj 144 112 i;
#X obj 117 133 -;
#X obj 117 154 abs;
#X obj 12 33 t f f;
#X obj 12 68 / 127;
#X obj 12 197 pack f f;
#X obj 12 218 line~;
#X obj 12 239 outlet~;
#X obj 117 175 * 1;
#X obj 12 89 * 24;
#X obj 12 110 - 12;
#X obj 12 131 + 69;
#X obj 12 152 mtof;
#X obj 12 173 / 440;
#X obj 12 12 r \$0-s-pitch-5678;
#X connect 0 0 3 0;
#X connect 0 1 1 0;
#X connect 1 0 2 1;
#X connect 1 1 2 0;
#X connect 2 0 3 1;
#X connect 3 0 4 0;
#X connect 4 0 10 0;
#X connect 5 0 6 0;
#X connect 5 1 0 0;
#X connect 6 0 11 0;
#X connect 7 0 8 0;
#X connect 8 0 9 0;
#X connect 10 0 7 1;
#X connect 11 0 12 0;
#X connect 12 0 13 0;
#X connect 13 0 14 0;
#X connect 14 0 15 0;
#X connect 15 0 7 0;
#X connect 16 0 5 0;
#X restore 723 503 pd prm.pitch;
#X obj 872 238 tgl 15 0 empty empty empty 17 7 0 10 -262144 -1 -1 0
1;
#X obj 872 258 metro 50;
#X obj 872 279 tabwrite~ \$0-scope;
#N canvas 833 201 773 567 hyper-lfo 0;
#N canvas 1004 696 459 282 prm.f-a 0;
#X obj 117 59 t f f;
#X obj 144 91 t f b;
#X obj 144 112 i;
#X obj 117 133 -;
#X obj 117 154 abs;
#X obj 12 33 t f f;
#X obj 12 197 pack f f;
#X obj 12 218 line~;
#X obj 12 239 outlet~;
#X obj 117 175 * 1;
#X obj 12 78 / 127;
#X obj 12 150 pow;
#X obj 12 171 * 0.01;
#X obj 12 12 r \$0-s-f-a;
#X msg 12 129 4000 \$1;
#X obj 12 99 sqrt;
#X connect 0 0 3 0;
#X connect 0 1 1 0;
#X connect 1 0 2 1;
#X connect 1 1 2 0;
#X connect 2 0 3 1;
#X connect 3 0 4 0;
#X connect 4 0 9 0;
#X connect 5 0 10 0;
#X connect 5 1 0 0;
#X connect 6 0 7 0;
#X connect 7 0 8 0;
#X connect 9 0 6 1;
#X connect 10 0 15 0;
#X connect 11 0 12 0;
#X connect 12 0 6 0;
#X connect 13 0 5 0;
#X connect 14 0 11 0;
#X connect 15 0 14 0;
#X restore 208 182 pd prm.f-a;
#N canvas 1004 696 297 282 prm.f-b 0;
#X obj 117 59 t f f;
#X obj 144 91 t f b;
#X obj 144 112 i;
#X obj 117 133 -;
#X obj 117 154 abs;
#X obj 12 33 t f f;
#X obj 12 197 pack f f;
#X obj 12 218 line~;
#X obj 12 239 outlet~;
#X obj 117 175 * 1;
#X obj 12 78 / 127;
#X obj 12 150 pow;
#X obj 12 171 * 0.01;
#X obj 12 12 r \$0-s-f-b;
#X msg 12 129 4000 \$1;
#X obj 12 98 sqrt;
#X connect 0 0 3 0;
#X connect 0 1 1 0;
#X connect 1 0 2 1;
#X connect 1 1 2 0;
#X connect 2 0 3 1;
#X connect 3 0 4 0;
#X connect 4 0 9 0;
#X connect 5 0 10 0;
#X connect 5 1 0 0;
#X connect 6 0 7 0;
#X connect 7 0 8 0;
#X connect 9 0 6 1;
#X connect 10 0 15 0;
#X connect 11 0 12 0;
#X connect 12 0 6 0;
#X connect 13 0 5 0;
#X connect 14 0 11 0;
#X connect 15 0 14 0;
#X restore 310 93 pd prm.f-b;
#X obj 208 203 phasor~;
#X obj 208 224 -~ 0.5;
#X obj 208 245 *~ 1000;
#X obj 208 266 clip~ -1 1;
#X obj 310 204 phasor~;
#X obj 310 225 -~ 0.5;
#X obj 310 246 *~ 1000;
#X obj 310 267 clip~ -1 1;
#X obj 208 312 *~;
#X obj 208 408 *~;
#X obj 223 366 r \$0-s-andor;
#X obj 223 387 == 0;
#X obj 306 303 +~;
#X obj 319 406 *~;
#X obj 334 364 r \$0-s-andor;
#X obj 209 504 outlet~;
#X obj 340 114 *~;
#X obj 340 135 *~ 0.5;
#X obj 340 156 *~;
#X obj 411 173 r \$0-s-link;
#X obj 353 465 snapshot~;
#X obj 397 423 bang~;
#X obj 306 324 /~ 2;
#X obj 353 486 change;
#X obj 353 507 sel 1;
#X obj 353 528 s \$0-r-led;
#X connect 0 0 2 0;
#X connect 1 0 6 0;
#X connect 1 0 18 0;
#X connect 2 0 3 0;
#X connect 3 0 4 0;
#X connect 4 0 5 0;
#X connect 5 0 10 0;
#X connect 5 0 14 0;
#X connect 5 0 18 1;
#X connect 6 0 7 0;
#X connect 7 0 8 0;
#X connect 8 0 9 0;
#X connect 9 0 10 1;
#X connect 9 0 14 1;
#X connect 10 0 11 0;
#X connect 11 0 17 0;
#X connect 11 0 22 0;
#X connect 12 0 13 0;
#X connect 13 0 11 1;
#X connect 14 0 24 0;
#X connect 15 0 17 0;
#X connect 15 0 22 0;
#X connect 16 0 15 1;
#X connect 18 0 19 0;
#X connect 19 0 20 0;
#X connect 20 0 6 0;
#X connect 21 0 20 1;
#X connect 22 0 25 0;
#X connect 23 0 22 0;
#X connect 24 0 15 0;
#X connect 25 0 26 0;
#X connect 26 0 27 0;
#X restore 584 335 pd hyper-lfo;
#X obj 517 815 re.plate~;
#X obj 540 734 loadbang;
#X msg 540 755 1 0.5 0.5;
#X obj 540 776 unpack f f f;
#N canvas 651 414 778 300 delay 0;
#X obj 58 140 inlet~;
#X obj 237 245 delwrite~ \$0-mod-delay 4000;
#X obj 113 104 delread4~ \$0-mod-delay;
#X obj 274 104 delread4~ \$0-mod-delay;
#X obj 232 157 /~ 2;
#X obj 232 178 *~;
#X obj 142 182 *~;
#X obj 57 232 +~;
#N canvas 1004 696 297 282 prm.feedback 0;
#X obj 117 59 t f f;
#X obj 144 91 t f b;
#X obj 144 112 i;
#X obj 117 133 -;
#X obj 117 154 abs;
#X obj 12 33 t f f;
#X obj 12 197 pack f f;
#X obj 12 218 line~;
#X obj 12 239 outlet~;
#X obj 117 175 * 1;
#X obj 12 78 / 127;
#X obj 12 12 r \$0-s-feedback;
#X obj 12 99 pow 2;
#X connect 0 0 3 0;
#X connect 0 1 1 0;
#X connect 1 0 2 1;
#X connect 1 1 2 0;
#X connect 2 0 3 1;
#X connect 3 0 4 0;
#X connect 4 0 9 0;
#X connect 5 0 10 0;
#X connect 5 1 0 0;
#X connect 6 0 7 0;
#X connect 7 0 8 0;
#X connect 9 0 6 1;
#X connect 10 0 12 0;
#X connect 11 0 5 0;
#X connect 12 0 6 0;
#X restore 309 172 pd prm.feedback;
#N canvas 1004 696 297 282 prm.time-2 0;
#X obj 117 59 t f f;
#X obj 144 91 t f b;
#X obj 144 112 i;
#X obj 117 133 -;
#X obj 117 154 abs;
#X obj 12 33 t f f;
#X obj 12 197 pack f f;
#X obj 12 218 line~;
#X obj 12 239 outlet~;
#X obj 12 78 / 127;
#X obj 12 150 pow;
#X obj 12 98 * 1;
#X obj 12 12 r \$0-s-time-2;
#X obj 117 175 max 10;
#X msg 12 128 20000 \$1;
#X obj 12 171 * 0.1;
#X connect 0 0 3 0;
#X connect 0 1 1 0;
#X connect 1 0 2 1;
#X connect 1 1 2 0;
#X connect 2 0 3 1;
#X connect 3 0 4 0;
#X connect 4 0 13 0;
#X connect 5 0 9 0;
#X connect 5 1 0 0;
#X connect 6 0 7 0;
#X connect 7 0 8 0;
#X connect 9 0 11 0;
#X connect 10 0 15 0;
#X connect 11 0 14 0;
#X connect 12 0 5 0;
#X connect 13 0 6 1;
#X connect 14 0 10 0;
#X connect 15 0 6 0;
#X restore 274 43 pd prm.time-2;
#N canvas 1004 696 297 282 prm.time-1 0;
#X obj 117 59 t f f;
#X obj 144 91 t f b;
#X obj 144 112 i;
#X obj 117 133 -;
#X obj 117 154 abs;
#X obj 12 33 t f f;
#X obj 12 197 pack f f;
#X obj 12 218 line~;
#X obj 12 239 outlet~;
#X obj 117 175 * 1;
#X obj 12 78 / 127;
#X obj 12 150 pow;
#X obj 12 12 r \$0-s-time-1;
#X obj 12 98 * 1;
#X obj 117 196 max 10;
#X floatatom 143 220 5 0 0 0 - - -;
#X obj 12 171 * 0.1;
#X msg 12 128 20000 \$1;
#X connect 0 0 3 0;
#X connect 0 1 1 0;
#X connect 1 0 2 1;
#X connect 1 1 2 0;
#X connect 2 0 3 1;
#X connect 3 0 4 0;
#X connect 4 0 9 0;
#X connect 5 0 10 0;
#X connect 5 1 0 0;
#X connect 6 0 7 0;
#X connect 7 0 8 0;
#X connect 9 0 14 0;
#X connect 10 0 13 0;
#X connect 11 0 16 0;
#X connect 12 0 5 0;
#X connect 13 0 17 0;
#X connect 14 0 6 1;
#X connect 14 0 15 0;
#X connect 16 0 6 0;
#X connect 17 0 11 0;
#X restore 113 43 pd prm.time-1;
#N canvas 1004 696 297 282 prm.del-mix 0;
#X obj 117 59 t f f;
#X obj 144 91 t f b;
#X obj 144 112 i;
#X obj 117 133 -;
#X obj 117 154 abs;
#X obj 12 33 t f f;
#X obj 12 197 pack f f;
#X obj 12 218 line~;
#X obj 12 239 outlet~;
#X obj 117 175 * 1;
#X obj 12 78 / 127;
#X obj 12 12 r \$0-s-del-mix;
#X connect 0 0 3 0;
#X connect 0 1 1 0;
#X connect 1 0 2 1;
#X connect 1 1 2 0;
#X connect 2 0 3 1;
#X connect 3 0 4 0;
#X connect 4 0 9 0;
#X connect 5 0 10 0;
#X connect 5 1 0 0;
#X connect 6 0 7 0;
#X connect 7 0 8 0;
#X connect 9 0 6 1;
#X connect 10 0 6 0;
#X connect 11 0 5 0;
#X restore 157 139 pd prm.del-mix;
#X obj 57 253 outlet~;
#X obj 461 167 block~ 4 1 1;
#X connect 0 0 1 0;
#X connect 0 0 7 0;
#X connect 2 0 4 0;
#X connect 3 0 4 0;
#X connect 4 0 5 0;
#X connect 4 0 6 0;
#X connect 5 0 1 0;
#X connect 6 0 7 1;
#X connect 7 0 12 0;
#X connect 8 0 5 1;
#X connect 9 0 3 0;
#X connect 10 0 2 0;
#X connect 11 0 6 1;
#X restore 348 764 pd delay;
#X obj 703 888 delwrite~ \$0-total-feedback;
#X obj 753 749 delread~ \$0-mod-delay;
#X obj 700 767 /~ 1.5;
#X connect 2 0 7 0;
#X connect 2 0 17 0;
#X connect 2 1 15 0;
#X connect 4 0 7 0;
#X connect 4 0 17 0;
#X connect 4 1 15 0;
#X connect 5 0 2 2;
#X connect 5 0 4 2;
#X connect 6 0 2 1;
#X connect 6 0 4 1;
#X connect 7 0 29 0;
#X connect 8 0 9 2;
#X connect 8 0 10 2;
#X connect 9 0 7 0;
#X connect 9 0 17 0;
#X connect 9 1 15 0;
#X connect 10 0 7 0;
#X connect 10 0 17 0;
#X connect 10 1 15 0;
#X connect 11 0 2 0;
#X connect 12 0 4 0;
#X connect 13 0 9 0;
#X connect 14 0 10 0;
#X connect 15 0 16 1;
#X connect 16 0 17 1;
#X connect 17 0 32 0;
#X connect 18 0 19 0;
#X connect 19 0 16 0;
#X connect 20 0 9 1;
#X connect 20 0 10 1;
#X connect 21 0 22 0;
#X connect 22 0 23 0;
#X connect 24 0 11 0;
#X connect 24 0 12 0;
#X connect 24 0 13 0;
#X connect 24 0 14 0;
#X connect 25 0 3 0;
#X connect 25 1 3 0;
#X connect 26 0 27 0;
#X connect 27 0 28 0;
#X connect 28 0 25 1;
#X connect 28 1 25 2;
#X connect 28 2 25 3;
#X connect 29 0 3 0;
#X connect 29 0 25 0;
#X connect 31 0 32 0;
#X connect 32 0 30 0;
