#N canvas 51 117 900 410 10;
#X declare -path ./abs;
#X obj 473 22 declare -path ./abs;
#X obj 482 53 loadbang;
#X obj 482 74 t b b;
#X obj 482 116 realtime;
#X obj 482 137 * 1000;
#X obj 482 158 i;
#X obj 482 179 s \$0-seed;
#X obj 527 95 del 200;
#N canvas 221 310 801 717 master_output 0;
#X obj 355 612 line~;
#X obj 107 628 *~;
#X obj 52 216 inlet~;
#X obj 355 549 pow 2;
#X obj 107 649 outlet~;
#X obj 152 156 pow;
#X obj 152 198 + 100;
#X obj 152 219 dbtorms;
#X msg 152 240 \$1 23.22;
#X msg 355 591 \$1 23.22;
#X obj 152 261 line~;
#X obj 137 282 *~;
#X msg 287 462 \$1 23.22;
#X obj 287 483 line~;
#X obj 122 509 *~;
#X obj 67 478 sig~ 1;
#X obj 67 499 -~;
#X obj 52 520 *~;
#X obj 107 546 +~;
#X obj 137 408 hip~ 10;
#X obj 152 114 + 1;
#X obj 137 387 +~;
#X obj 152 366 /~ 4;
#X obj 152 345 pow~ 31;
#X obj 137 303 hip~ 20;
#X obj 71 424 *~ 0.1;
#X obj 122 455 +~;
#X obj 127 609 s~ \$0-total-feedback;
#X msg 152 134 3 \$1;
#X obj 152 93 * 2;
#X obj 152 177 + 3;
#X obj 355 570 * 1;
#X obj 193 392 sig~ 1;
#X obj 193 413 /~;
#X obj 137 429 *~;
#X obj 208 371 clip~ 1 4;
#X obj 127 588 hip~ 3;
#N canvas 131 165 450 300 tanh~ 0;
#X obj 12 12 inlet~;
#X obj 12 38 clip~ -3 3;
#X obj 27 64 *~;
#X obj 12 192 outlet~;
#X obj 27 140 /~;
#X obj 12 166 *~;
#X obj 67 90 *~ 9;
#X text 92 42 // http://www.musicdsp.org/showone.php?id=238;
#X text 92 62 // y = x * (27 + x^2) / (27 + 9*x^2);
#X obj 27 90 +~ 27;
#X obj 67 116 +~ 27;
#X text 92 22 // pade-approximation of tanh function;
#X connect 0 0 1 0;
#X connect 1 0 2 0;
#X connect 1 0 2 1;
#X connect 1 0 5 0;
#X connect 2 0 9 0;
#X connect 2 0 6 0;
#X connect 4 0 5 1;
#X connect 5 0 3 0;
#X connect 6 0 10 0;
#X connect 9 0 4 0;
#X connect 10 0 4 1;
#X restore 107 567 pd tanh~;
#N canvas 152 188 450 300 tanh~ 0;
#X obj 12 12 inlet~;
#X obj 12 38 clip~ -3 3;
#X obj 27 64 *~;
#X obj 12 192 outlet~;
#X obj 27 140 /~;
#X obj 12 166 *~;
#X obj 67 90 *~ 9;
#X text 92 42 // http://www.musicdsp.org/showone.php?id=238;
#X text 92 62 // y = x * (27 + x^2) / (27 + 9*x^2);
#X obj 27 90 +~ 27;
#X obj 67 116 +~ 27;
#X text 92 22 // pade-approximation of tanh function;
#X connect 0 0 1 0;
#X connect 1 0 2 0;
#X connect 1 0 2 1;
#X connect 1 0 5 0;
#X connect 2 0 9 0;
#X connect 2 0 6 0;
#X connect 4 0 5 1;
#X connect 5 0 3 0;
#X connect 6 0 10 0;
#X connect 9 0 4 0;
#X connect 10 0 4 1;
#X restore 137 324 pd tanh~;
#X obj 355 486 r fromGUI;
#X obj 355 507 route list;
#X obj 355 528 route /volume;
#X obj 287 399 r fromGUI;
#X obj 287 420 route list;
#X obj 287 441 route /distortionMix;
#X obj 152 30 r fromGUI;
#X obj 152 51 route list;
#X obj 152 72 route /distortionDrive;
#X text 152 10 GUI: Distortion Drive knob;
#X text 355 465 GUI: Volume knob;
#X text 287 379 GUI: Distortion Mix knob;
#X connect 0 0 1 1;
#X connect 1 0 4 0;
#X connect 2 0 17 0;
#X connect 2 0 11 0;
#X connect 2 0 25 0;
#X connect 3 0 31 0;
#X connect 5 0 30 0;
#X connect 6 0 7 0;
#X connect 7 0 8 0;
#X connect 8 0 10 0;
#X connect 9 0 0 0;
#X connect 10 0 11 1;
#X connect 10 0 35 0;
#X connect 11 0 24 0;
#X connect 12 0 13 0;
#X connect 13 0 14 1;
#X connect 13 0 16 1;
#X connect 14 0 18 1;
#X connect 15 0 16 0;
#X connect 16 0 17 1;
#X connect 17 0 18 0;
#X connect 18 0 37 0;
#X connect 19 0 34 0;
#X connect 20 0 28 0;
#X connect 21 0 19 0;
#X connect 22 0 21 1;
#X connect 23 0 22 0;
#X connect 24 0 38 0;
#X connect 25 0 26 0;
#X connect 26 0 14 0;
#X connect 28 0 5 0;
#X connect 29 0 20 0;
#X connect 30 0 6 0;
#X connect 31 0 9 0;
#X connect 32 0 33 0;
#X connect 33 0 34 1;
#X connect 34 0 26 1;
#X connect 35 0 33 1;
#X connect 36 0 27 0;
#X connect 37 0 36 0;
#X connect 37 0 1 0;
#X connect 38 0 23 0;
#X connect 38 0 21 0;
#X connect 39 0 40 0;
#X connect 40 0 41 0;
#X connect 41 0 3 0;
#X connect 42 0 43 0;
#X connect 43 0 44 0;
#X connect 44 0 12 0;
#X connect 45 0 46 0;
#X connect 46 0 47 0;
#X connect 47 0 29 0;
#X restore 358 283 pd master_output;
#N canvas 277 201 681 704 hyper-lfo 0;
#X obj 12 219 phasor~;
#X obj 292 458 phasor~;
#X obj 197 379 *~;
#X obj 197 442 *~;
#N canvas 654 271 320 351 triangle-lfo 0;
#X obj 12 12 inlet~;
#X obj 179 38 inlet~;
#X obj 12 33 -~ 0.5;
#X obj 12 54 abs~;
#X obj 179 59 -~ 0.5;
#X obj 179 80 abs~;
#X obj 12 175 outlet~;
#X connect 0 0 2 0;
#X connect 1 0 4 0;
#X connect 2 0 3 0;
#X connect 3 0 6 0;
#X connect 4 0 5 0;
#X connect 5 0 6 0;
#X restore 12 514 pd triangle-lfo;
#N canvas 14 312 571 294 square-lfo 0;
#X obj 179 74 *~ 1000;
#X obj 179 95 clip~ -1 1;
#X obj 12 111 *~;
#X obj 12 174 *~;
#X obj 179 179 *~;
#X obj 12 195 +~;
#X obj 12 12 inlet~;
#X obj 179 32 inlet~;
#X obj 179 53 cos~;
#X obj 12 221 outlet~;
#X obj 179 127 *~ 0.5;
#X obj 282 214 outlet~;
#X text 282 233 Outlet 2: Square LFO to delay;
#X text 14 241 Outlet 1: Square LFO to oscillators;
#X obj 63 76 r fromGUI;
#X obj 63 97 route list;
#X text 63 56 GUI: LFO Link;
#X obj 63 118 route /lfoAndOr;
#X obj 194 158 == 0;
#X obj 63 139 t f f;
#X obj 275 159 +~ 1;
#X obj 275 180 *~ 0.5;
#X connect 0 0 1 0;
#X connect 1 0 2 1;
#X connect 1 0 10 0;
#X connect 2 0 3 0;
#X connect 3 0 5 0;
#X connect 4 0 5 1;
#X connect 5 0 9 0;
#X connect 6 0 2 0;
#X connect 6 0 10 0;
#X connect 7 0 8 0;
#X connect 8 0 0 0;
#X connect 10 0 4 0;
#X connect 10 0 20 0;
#X connect 14 0 15 0;
#X connect 15 0 17 0;
#X connect 17 0 19 0;
#X connect 18 0 4 1;
#X connect 19 0 3 1;
#X connect 19 1 18 0;
#X connect 20 0 21 0;
#X connect 21 0 11 0;
#X restore 163 515 pd square-lfo;
#X obj 72 266 *~ 1000;
#X obj 72 287 clip~ -1 1;
#X obj 12 135 - 75;
#X obj 12 156 mtof;
#X obj 12 198 line~;
#X obj 292 300 - 75;
#X obj 292 321 mtof;
#X obj 292 363 line~;
#X obj 292 259 pow 2;
#X obj 292 279 * 127;
#X obj 12 94 pow 2;
#X obj 12 114 * 127;
#X obj 72 245 cos~;
#X msg 12 177 \$1 23.22;
#X msg 292 342 \$1 23.22;
#X obj 197 400 *~ 0.5;
#X obj 171 619 outlet~;
#X obj 29 640 outlet~;
#X obj 243 576 outlet~;
#X text 229 604 outlet 3: square LFO to delay;
#X text 30 673 outlet 1: square LFO to oscillators;
#X text 167 639 outlet 2: triangle LFO to delay;
#X obj 292 196 r fromGUI;
#X obj 292 217 route list;
#X obj 292 238 route /lfoFreqB;
#X text 292 176 GUI: LFO Freq B;
#X obj 12 31 r fromGUI;
#X obj 12 52 route list;
#X obj 12 73 route /lfoFreqA;
#X text 12 11 GUI: LFO Freq A;
#X obj 364 384 r fromGUI;
#X obj 364 405 route list;
#X obj 364 426 route /lfoLink;
#X text 364 364 GUI: LFO Link;
#X connect 0 0 4 0;
#X connect 0 0 18 0;
#X connect 1 0 4 1;
#X connect 1 0 5 1;
#X connect 2 0 21 0;
#X connect 3 0 1 0;
#X connect 4 0 22 0;
#X connect 5 0 23 0;
#X connect 5 1 24 0;
#X connect 6 0 7 0;
#X connect 7 0 2 0;
#X connect 7 0 5 0;
#X connect 8 0 9 0;
#X connect 9 0 19 0;
#X connect 10 0 0 0;
#X connect 11 0 12 0;
#X connect 12 0 20 0;
#X connect 13 0 2 1;
#X connect 13 0 1 0;
#X connect 14 0 15 0;
#X connect 15 0 11 0;
#X connect 16 0 17 0;
#X connect 17 0 8 0;
#X connect 18 0 6 0;
#X connect 19 0 10 0;
#X connect 20 0 13 0;
#X connect 21 0 3 0;
#X connect 28 0 29 0;
#X connect 29 0 30 0;
#X connect 30 0 14 0;
#X connect 32 0 33 0;
#X connect 33 0 34 0;
#X connect 34 0 16 0;
#X connect 36 0 37 0;
#X connect 37 0 38 0;
#X connect 38 0 3 1;
#X restore 346 23 pd hyper-lfo;
#N canvas 344 116 797 863 delay 0;
#X obj 12 588 inlet~;
#X obj 12 835 outlet~;
#X msg 247 243 2 \$1;
#X obj 247 264 pow;
#X obj 247 285 * 1.45125;
#X obj 247 327 line~;
#X msg 247 306 \$1 23.22;
#X obj 232 630 +~;
#X obj 247 222 * 12;
#X obj 232 651 delwrite~ \$0-mod-delay-1 5944;
#X obj 247 369 vd~ \$0-mod-delay-1;
#X obj 262 432 loadbang;
#X obj 262 474 unpack f f f f;
#X obj 272 521 loadbang;
#X obj 272 563 unpack f f;
#X obj 162 614 +~;
#X obj 177 572 noise~;
#X obj 360 468 t f f;
#X obj 360 489 * 2;
#X msg 360 510 2 \$1;
#X obj 360 531 pow;
#X obj 360 552 *;
#X msg 360 573 \$1 23.22;
#X obj 360 594 line~;
#X obj 247 610 *~;
#X obj 309 88 vd~ \$0-mod-delay-1;
#X obj 392 278 *~;
#X obj 407 257 == 0;
#X obj 442 298 *~;
#X obj 339 191 *~;
#X obj 392 335 *~;
#X obj 472 319 == 2;
#X obj 354 170 == 0;
#X obj 339 311 +~;
#X obj 379 362 *~;
#X obj 610 283 pow 2;
#X obj 610 304 * 10;
#X msg 610 325 \$1 23.22;
#X obj 610 346 line~;
#X obj 247 348 +~;
#X obj 27 751 sig~ 1;
#X obj 27 772 -~;
#X obj 12 793 *~;
#X msg 77 735 \$1 23.22;
#X obj 77 756 line~;
#X obj 455 772 *~;
#X obj 12 814 +~;
#X obj 339 212 lop~ 689;
#X obj 177 593 *~ 0.001;
#X msg 272 541 -60 5;
#X obj 392 314 +~;
#X msg 262 453 2.5 2.5 -12 5;
#X obj 508 664 sig~ 1;
#X obj 508 685 /~;
#X obj 470 701 *~;
#X obj 523 640 max~ 1.5;
#N canvas 152 188 450 300 expander~ 0;
#X obj 12 45 inlet~;
#X obj 94 97 inlet;
#X msg 134 54 1 \$1;
#X obj 134 75 /;
#X obj 134 12 inlet;
#X obj 12 265 *~;
#X obj 12 286 outlet~;
#X msg 134 96 1 \$1;
#X obj 134 117 -;
#X obj 134 33 max 1;
#X obj 32 71 env~ 512;
#X obj 32 92 - 100;
#X obj 32 155 min 0;
#X obj 32 133 * 2;
#X obj 32 113 - -20;
#X obj 32 197 line~;
#X obj 32 218 +~ 100;
#X obj 32 239 dbtorms~;
#X msg 32 176 \$1 11;
#X connect 0 0 5 0;
#X connect 0 0 10 0;
#X connect 1 0 14 1;
#X connect 2 0 3 0;
#X connect 3 0 7 0;
#X connect 4 0 9 0;
#X connect 5 0 6 0;
#X connect 7 0 8 0;
#X connect 8 0 13 1;
#X connect 9 0 2 0;
#X connect 10 0 11 0;
#X connect 11 0 14 0;
#X connect 12 0 18 0;
#X connect 13 0 12 0;
#X connect 14 0 13 0;
#X connect 15 0 16 0;
#X connect 16 0 17 0;
#X connect 17 0 5 1;
#X connect 18 0 15 0;
#X restore 247 584 pd expander~;
#N canvas 131 165 450 300 compressor~ 0;
#N canvas 0 23 557 246 hv.envfollow 0;
#X obj 27 145 -~;
#X obj 27 124 sig~ 1;
#X obj 12 187 rpole~;
#X obj 283 12 loadbang;
#X obj 283 33 samplerate~;
#X obj 78 68 *;
#X obj 12 166 *~;
#X obj 12 213 outlet~;
#X obj 192 68 *;
#X text 251 103 temp = abs(in);
#X text 251 163 else;
#X text 261 143 env = temp + attack_coeff * (env - temp);
#X text 261 183 env = temp + release_coeff * (env - temp);
#X obj 283 54 / 1000;
#X text 251 80 http://www.musicdsp.org/archive.php?classid=2#97;
#X obj 12 42 inlet~;
#X obj 12 89 abs~;
#N canvas 0 23 427 275 coeff 0;
#X obj 53 55 inlet;
#X obj 53 150 exp;
#X msg 53 172 \$1 10;
#X obj 53 194 line~;
#X obj 53 125 /;
#X msg 53 103 -4.60517 \$1;
#X obj 53 82 max 1;
#X obj 53 216 outlet~;
#X text 109 217 coeff = exp(-1 / (Fs * time_ms));
#X connect 0 0 6 0;
#X connect 1 0 2 0;
#X connect 2 0 3 0;
#X connect 3 0 7 0;
#X connect 4 0 1 0;
#X connect 5 0 4 0;
#X connect 6 0 5 0;
#X restore 192 89 pd coeff;
#N canvas 0 23 427 275 coeff 0;
#X obj 53 55 inlet;
#X obj 53 150 exp;
#X msg 53 172 \$1 10;
#X obj 53 194 line~;
#X obj 53 125 /;
#X msg 53 103 -4.60517 \$1;
#X obj 53 82 max 1;
#X obj 53 216 outlet~;
#X text 109 217 coeff = exp(-1 / (Fs * time_ms));
#X connect 0 0 6 0;
#X connect 1 0 2 0;
#X connect 2 0 3 0;
#X connect 3 0 7 0;
#X connect 4 0 1 0;
#X connect 5 0 4 0;
#X connect 6 0 5 0;
#X restore 78 89 pd coeff;
#X text 251 122 if (tmp > env);
#N canvas 522 86 480 241 hv.multiplex 0;
#X obj 38 197 outlet~;
#N canvas 467 216 159 96 @hv_obj 0;
#X obj 60 18 inlet~;
#X obj 15 18 inlet~;
#X obj 15 65 outlet~;
#X obj 15 42 *~;
#X connect 0 0 3 1;
#X connect 1 0 3 0;
#X connect 3 0 2 0;
#X restore 38 112 pd @hv_obj __and~f;
#N canvas 467 216 188 166 @hv_obj 0;
#X obj 79 11 inlet~;
#X obj 31 11 inlet~;
#X obj 16 112 outlet~;
#X obj 16 37 sig~ 1;
#X obj 16 61 -~;
#X obj 16 89 *~;
#X connect 0 0 5 1;
#X connect 1 0 4 1;
#X connect 3 0 4 0;
#X connect 4 0 5 0;
#X connect 5 0 2 0;
#X restore 162 114 pd @hv_obj __andnot~f;
#N canvas 538 372 182 89 @hv_obj 0;
#X obj 66 18 inlet~;
#X obj 15 18 inlet~;
#X obj 15 65 outlet~;
#X obj 15 42 +~, f 9;
#X connect 0 0 3 1;
#X connect 1 0 3 0;
#X connect 3 0 2 0;
#X restore 38 157 pd @hv_obj __or~f;
#X obj 285 34 inlet~ lhs;
#X obj 384 34 inlet~ rhs;
#X obj 38 34 inlet~ input-a;
#X obj 162 34 inlet~ input-b;
#N canvas 0 23 144 197 @hv_obj 0;
#X obj 23 69 -~;
#X obj 23 94 clip~ -1e-37 0;
#X obj 23 18 inlet~;
#X obj 67 19 inlet~;
#X obj 23 159 outlet~;
#X obj 23 136 *~ 1e+37;
#X obj 23 44 min~;
#X obj 23 115 +~ 1e-37;
#X connect 0 0 1 0;
#X connect 1 0 7 0;
#X connect 2 0 6 0;
#X connect 3 0 6 1;
#X connect 3 0 0 1;
#X connect 5 0 4 0;
#X connect 6 0 0 0;
#X connect 7 0 5 0;
#X restore 285 73 pd @hv_obj __gt~f;
#X connect 1 0 3 0;
#X connect 2 0 3 1;
#X connect 3 0 0 0;
#X connect 4 0 8 0;
#X connect 5 0 8 1;
#X connect 6 0 1 0;
#X connect 7 0 2 1;
#X connect 8 0 2 0;
#X connect 8 0 1 1;
#X restore 78 131 pd hv.multiplex;
#X obj 78 42 inlet;
#X obj 192 42 inlet;
#X text 192 22 release (ms);
#X text 78 22 attack (ms);
#X obj 68 201 send~ \$0-env1;
#X obj 165 110 r~ \$0-env1;
#X connect 0 0 6 1;
#X connect 1 0 0 0;
#X connect 2 0 7 0;
#X connect 2 0 25 0;
#X connect 3 0 4 0;
#X connect 4 0 13 0;
#X connect 5 0 18 0;
#X connect 6 0 2 0;
#X connect 8 0 17 0;
#X connect 13 0 5 1;
#X connect 13 0 8 1;
#X connect 15 0 16 0;
#X connect 16 0 6 0;
#X connect 16 0 20 2;
#X connect 17 0 20 1;
#X connect 18 0 20 0;
#X connect 20 0 0 1;
#X connect 20 0 2 1;
#X connect 21 0 5 0;
#X connect 22 0 8 0;
#X connect 26 0 20 3;
#X restore 27 112 pd hv.envfollow;
#X obj 12 31 inlet~;
#X obj 27 133 -~;
#X obj 131 77 inlet;
#X obj 131 98 + 100;
#X obj 131 119 dbtorms;
#X obj 27 154 *~;
#X msg 187 119 1 \$1;
#X obj 187 140 /;
#X obj 187 98 inlet;
#X obj 27 175 +~;
#X obj 27 196 /~;
#X obj 27 217 clip~ 0 1;
#X obj 12 268 *~;
#X obj 70 31 inlet;
#X obj 114 31 inlet;
#X obj 12 289 outlet~;
#X text 12 11 inlet;
#X text 70 11 attack;
#X text 114 11 release;
#X text 131 57 threshold;
#X text 187 78 ratio;
#N canvas 173 211 450 300 tanh~ 0;
#X obj 12 12 inlet~;
#X obj 12 38 clip~ -3 3;
#X obj 27 64 *~;
#X obj 12 192 outlet~;
#X obj 27 140 /~;
#X obj 12 166 *~;
#X obj 67 90 *~ 9;
#X text 92 42 // http://www.musicdsp.org/showone.php?id=238;
#X text 92 62 // y = x * (27 + x^2) / (27 + 9*x^2);
#X obj 27 90 +~ 27;
#X obj 67 116 +~ 27;
#X text 92 22 // pade-approximation of tanh function;
#X connect 0 0 1 0;
#X connect 1 0 2 0;
#X connect 1 0 2 1;
#X connect 1 0 5 0;
#X connect 2 0 9 0;
#X connect 2 0 6 0;
#X connect 4 0 5 1;
#X connect 5 0 3 0;
#X connect 6 0 10 0;
#X connect 9 0 4 0;
#X connect 10 0 4 1;
#X restore 27 238 pd tanh~;
#X connect 0 0 2 0;
#X connect 0 0 11 1;
#X connect 1 0 13 0;
#X connect 1 0 0 0;
#X connect 2 0 6 0;
#X connect 3 0 4 0;
#X connect 4 0 5 0;
#X connect 5 0 2 1;
#X connect 5 0 10 1;
#X connect 6 0 10 0;
#X connect 7 0 8 0;
#X connect 8 0 6 1;
#X connect 9 0 7 0;
#X connect 10 0 11 0;
#X connect 11 0 12 0;
#X connect 12 0 22 0;
#X connect 13 0 16 0;
#X connect 14 0 0 1;
#X connect 15 0 0 2;
#X connect 22 0 13 1;
#X restore 247 500 pd compressor~;
#X obj 483 123 inlet~;
#X obj 603 153 inlet~;
#N canvas 47 73 450 300 tanh~ 0;
#X obj 12 12 inlet~;
#X obj 12 38 clip~ -3 3;
#X obj 27 64 *~;
#X obj 12 192 outlet~;
#X obj 27 140 /~;
#X obj 12 166 *~;
#X obj 67 90 *~ 9;
#X text 92 42 // http://www.musicdsp.org/showone.php?id=238;
#X text 92 62 // y = x * (27 + x^2) / (27 + 9*x^2);
#X obj 27 90 +~ 27;
#X obj 67 116 +~ 27;
#X text 92 22 // pade-approximation of tanh function;
#X connect 0 0 1 0;
#X connect 1 0 2 0;
#X connect 1 0 2 1;
#X connect 1 0 5 0;
#X connect 2 0 9 0;
#X connect 2 0 6 0;
#X connect 4 0 5 1;
#X connect 5 0 3 0;
#X connect 6 0 10 0;
#X connect 9 0 4 0;
#X connect 10 0 4 1;
#X restore 470 740 pd tanh~;
#X text 12 568 Inlet 1: Input;
#X text 483 103 Inlet 2: Triangle LFO;
#X text 603 133 Inlet 3: Square LFO;
#X obj 360 405 r fromGUI;
#X obj 360 426 route list;
#X obj 360 447 route /delayFb;
#X text 360 385 GUI: Delay Feedback knob;
#X obj 610 220 r fromGUI;
#X obj 610 241 route list;
#X obj 610 262 route /delayMod;
#X text 610 200 GUI: Delay Mod knob;
#X obj 207 154 r fromGUI;
#X obj 207 175 route list;
#X obj 207 196 route /delayTime;
#X text 207 134 GUI: Delay Time knob;
#X obj 77 672 r fromGUI;
#X obj 77 693 route list;
#X text 77 652 GUI: Delay Time knob;
#X obj 77 714 route /delayMix;
#X obj 445 31 r fromGUI;
#X obj 445 52 route list;
#X obj 445 73 route /delaySource;
#X text 445 11 GUI: Delay source switch;
#X obj 445 94 t f f;
#X obj 309 109 *~ 0.5;
#X obj 430 168 r fromGUI;
#X obj 430 189 route list;
#X obj 430 231 t f f;
#X obj 430 210 route /delayWaveform;
#X text 430 148 GUI: Delay waveform switch;
#X obj 247 411 lop~ 6000;
#X obj 247 390 hip~ 5;
#X connect 0 0 15 0;
#X connect 0 0 42 0;
#X connect 2 0 3 0;
#X connect 3 0 4 0;
#X connect 4 0 6 0;
#X connect 5 0 39 0;
#X connect 6 0 5 0;
#X connect 7 0 9 0;
#X connect 8 0 2 0;
#X connect 10 0 92 0;
#X connect 11 0 51 0;
#X connect 12 0 57 1;
#X connect 12 1 57 2;
#X connect 12 2 57 3;
#X connect 12 3 57 4;
#X connect 13 0 49 0;
#X connect 14 0 56 1;
#X connect 14 1 56 2;
#X connect 15 0 7 0;
#X connect 16 0 48 0;
#X connect 17 0 18 0;
#X connect 17 1 21 1;
#X connect 18 0 19 0;
#X connect 19 0 20 0;
#X connect 20 0 21 0;
#X connect 21 0 22 0;
#X connect 22 0 23 0;
#X connect 23 0 24 1;
#X connect 23 0 55 0;
#X connect 24 0 7 1;
#X connect 25 0 85 0;
#X connect 26 0 50 0;
#X connect 27 0 26 1;
#X connect 28 0 50 1;
#X connect 29 0 47 0;
#X connect 30 0 33 1;
#X connect 31 0 30 1;
#X connect 32 0 29 1;
#X connect 33 0 34 0;
#X connect 34 0 39 1;
#X connect 35 0 36 0;
#X connect 36 0 37 0;
#X connect 37 0 38 0;
#X connect 38 0 34 1;
#X connect 39 0 10 0;
#X connect 40 0 41 0;
#X connect 41 0 42 1;
#X connect 42 0 46 0;
#X connect 43 0 44 0;
#X connect 44 0 45 0;
#X connect 44 0 41 1;
#X connect 45 0 46 1;
#X connect 46 0 1 0;
#X connect 47 0 33 0;
#X connect 48 0 15 1;
#X connect 49 0 14 0;
#X connect 50 0 30 0;
#X connect 51 0 12 0;
#X connect 52 0 53 0;
#X connect 53 0 54 1;
#X connect 54 0 60 0;
#X connect 55 0 53 1;
#X connect 56 0 24 0;
#X connect 56 0 54 0;
#X connect 57 0 56 0;
#X connect 58 0 26 0;
#X connect 59 0 28 0;
#X connect 60 0 45 1;
#X connect 64 0 65 0;
#X connect 65 0 66 0;
#X connect 66 0 17 0;
#X connect 68 0 69 0;
#X connect 69 0 70 0;
#X connect 70 0 35 0;
#X connect 72 0 73 0;
#X connect 73 0 74 0;
#X connect 74 0 8 0;
#X connect 76 0 77 0;
#X connect 77 0 79 0;
#X connect 79 0 43 0;
#X connect 80 0 81 0;
#X connect 81 0 82 0;
#X connect 82 0 84 0;
#X connect 84 0 32 0;
#X connect 84 1 31 0;
#X connect 85 0 29 0;
#X connect 86 0 87 0;
#X connect 87 0 89 0;
#X connect 88 0 27 0;
#X connect 88 1 28 1;
#X connect 89 0 88 0;
#X connect 91 0 57 0;
#X connect 92 0 91 0;
#X restore 358 247 pd delay;
#X obj 592 67 r \$0-s-dsp;
#X msg 592 88 dsp \$1;
#X obj 592 109 s pd;
#X obj 592 179 print -n;
#X obj 592 137 loadbang;
#X obj 662 67 loadbang;
#X msg 662 88 1;
#X obj 662 109 s \$0-r-dsp;
#N canvas 1027 619 248 280 prm.hold 0;
#X obj 12 152 line~;
#X obj 12 173 outlet~;
#X msg 12 131 \$1 23.22;
#X obj 12 110 pow 2;
#X obj 12 42 r fromGUI;
#X obj 12 63 route list;
#X obj 12 84 route /hold;
#X text 12 22 GUI: Hold knob;
#X connect 0 0 1 0;
#X connect 2 0 0 0;
#X connect 3 0 2 0;
#X connect 4 0 5 0;
#X connect 5 0 6 0;
#X connect 6 0 3 0;
#X restore 281 124 pd prm.hold;
#X obj 358 339 dac~ 1 2;
#N canvas 635 173 731 728 lira.voice 0;
#N canvas 1027 619 224 268 prm.sharp 0;
#X obj 12 100 pow 2;
#X obj 12 142 line~;
#X obj 12 163 outlet~;
#X msg 12 121 \$1 23.22;
#X obj 12 32 r fromGUI;
#X obj 12 53 route list;
#X obj 12 74 route /sharp12;
#X text 12 12 GUI: Sharp knob 1 2;
#X connect 0 0 3 0;
#X connect 1 0 2 0;
#X connect 3 0 1 0;
#X connect 4 0 5 0;
#X connect 5 0 6 0;
#X connect 6 0 0 0;
#X restore 421 382 pd prm.sharp;
#X obj 12 398 *~;
#X obj 81 461 *~;
#X obj 12 575 *~;
#X obj 12 687 outlet~;
#X obj 12 635 +~;
#X obj 262 418 *~;
#X obj 331 471 *~;
#X obj 247 579 *~;
#X obj 32 302 *~;
#N canvas 1027 619 256 239 prm.mod 0;
#X obj 12 173 line~;
#X obj 12 194 outlet~;
#X obj 12 110 pow 4;
#X obj 12 131 * 2;
#X msg 12 152 \$1 23.22;
#X obj 12 42 r fromGUI;
#X obj 12 63 route list;
#X obj 12 84 route /mod12;
#X text 12 22 GUI: Mod knob 1 2;
#X connect 0 0 1 0;
#X connect 2 0 3 0;
#X connect 3 0 4 0;
#X connect 4 0 0 0;
#X connect 5 0 6 0;
#X connect 6 0 7 0;
#X connect 7 0 2 0;
#X restore 135 265 pd prm.mod;
#X obj 227 302 *~;
#X obj 120 286 *~;
#X obj 120 244 inlet~;
#N canvas 897 538 270 373 prm.sensor 0;
#X obj 12 307 outlet~;
#X obj 12 141 sel 1 0;
#X msg 12 203 1 \$1;
#X msg 112 203 0 \$1;
#X obj 12 244 line~;
#X obj 12 265 *~;
#X obj 82 265 -~ 0.25;
#X obj 82 286 cos~;
#X obj 12 120 i;
#X obj 82 307 /~ 2;
#X obj 82 328 outlet~;
#X obj 12 31 r fromGUI;
#X obj 12 52 route list;
#X obj 12 73 route /sensor1;
#X obj 22 99 r \$0-trigger12;
#X text 12 11 GUI: Sensor button 1;
#X obj 12 183 v \$0-attack12;
#X obj 112 182 v \$0-release12;
#X connect 1 0 16 0;
#X connect 1 1 17 0;
#X connect 2 0 4 0;
#X connect 3 0 4 0;
#X connect 4 0 5 0;
#X connect 4 0 5 1;
#X connect 4 0 6 0;
#X connect 5 0 0 0;
#X connect 6 0 7 0;
#X connect 7 0 9 0;
#X connect 8 0 1 0;
#X connect 9 0 10 0;
#X connect 11 0 12 0;
#X connect 12 0 13 0;
#X connect 13 0 8 0;
#X connect 14 0 8 0;
#X connect 16 0 2 0;
#X connect 17 0 3 0;
#X restore 54 518 pd prm.sensor;
#X obj 406 403 loadbang;
#X msg 406 424 1;
#X obj 406 445 -~;
#X obj 373 523 inlet~;
#X obj 54 539 min~ 1;
#X obj 360 201 inlet~;
#X text 120 224 (I1) Mod Source;
#X text 373 503 (I3) Hold;
#X text 360 181 (I2) Pitch;
#X obj 12 217 *~;
#X obj 262 217 *~;
#X obj 516 190 line~;
#X obj 466 185 osc~ 3;
#X obj 349 312 sig~ 0.53125;
#X obj 466 206 *~;
#X obj 12 268 +~;
#X obj 262 268 +~;
#X obj 32 238 *~;
#X obj 292 238 *~;
#X obj 466 12 loadbang;
#X msg 492 80 seed \$1;
#X obj 466 312 *~ 0.025;
#X obj 466 122 / 1000;
#X obj 466 101 random 1001;
#X obj 466 164 + 0.5;
#X obj 466 143 * 3;
#X obj 563 444 sel 1 0;
#X obj 563 486 unpack f f;
#X obj 536 423 t b f;
#X obj 396 222 *~ 0.005;
#X msg 563 465 100 100;
#X msg 633 465 200 8000;
#X msg 516 169 \$1 23.22;
#X obj 92 656 hip~ 3;
#X obj 92 677 send~ \$0-voice12;
#N canvas 68 96 559 539 os.triangle~ 0;
#N canvas 47 73 450 425 rlpf 0;
#X obj 177 80 samplerate~;
#X obj 229 12 loadbang;
#X obj 45 202 sig~ 1;
#X obj 45 250 -~;
#X obj 177 122 / 2;
#X obj 156 318 outlet~;
#X obj 177 101 t f f;
#X obj 82 123 inlet~;
#X obj 12 123 inlet~;
#X msg 229 33 bang;
#X obj 269 211 inlet;
#X msg 269 232 clear;
#X msg 256 123 1;
#X obj 256 144 atan;
#X obj 229 54 t b b;
#X obj 82 144 clip~ 0 22050;
#X obj 256 165 * -8;
#X obj 189 212 exp~;
#X obj 12 276 *~;
#X obj 60 228 abs~;
#X obj 156 292 rpole~;
#X obj 189 191 *~ -6.28319;
#X obj 159 170 /~ 44100;
#X text 12 13 One-pole Lowpass Filter;
#X text 8 369 https://www.musicdsp.org/en/latest/Filters/237-one-pole-filter-lp-and-hp.html
;
#X text 8 349 Reference:;
#X text 269 191 (I3) Clear internal state;
#X text 206 318 (O1) Output;
#X text 12 103 (I1) Input;
#X text 82 103 (I2) Frequency;
#X connect 0 0 6 0;
#X connect 1 0 9 0;
#X connect 2 0 3 0;
#X connect 3 0 18 1;
#X connect 4 0 15 2;
#X connect 6 0 4 0;
#X connect 6 1 22 1;
#X connect 7 0 15 0;
#X connect 8 0 18 0;
#X connect 9 0 14 0;
#X connect 10 0 11 0;
#X connect 11 0 20 0;
#X connect 12 0 13 0;
#X connect 13 0 16 0;
#X connect 14 0 0 0;
#X connect 14 1 12 0;
#X connect 15 0 22 0;
#X connect 16 0 21 1;
#X connect 17 0 20 1;
#X connect 17 0 19 0;
#X connect 18 0 20 0;
#X connect 19 0 3 1;
#X connect 20 0 5 0;
#X connect 21 0 17 0;
#X connect 22 0 21 0;
#X restore 387 284 pd rlpf;
#X obj 12 87 phasor~;
#X obj 195 67 *~;
#X obj 12 210 +~;
#N canvas 1329 474 147 163 1/Fs 0;
#X obj 12 54 samplerate~;
#X obj 12 12 loadbang;
#X msg 12 75 1 \$1;
#X obj 12 96 /;
#X msg 12 33 bang;
#X obj 12 117 outlet;
#X connect 0 0 2 0;
#X connect 1 0 4 0;
#X connect 2 0 3 0;
#X connect 3 0 5 0;
#X connect 4 0 0 0;
#X restore 210 41 pd 1/Fs;
#X text 12 422 http://www.martin-finke.de/blog/articles/audio-plugins-018-polyblep-oscillator/
;
#X text 12 402 https://github.com/enzienaudio/heavylib/tree/master/hv.osc
;
#N canvas 1008 608 416 294 polyblep 0;
#X obj 167 225 -~;
#X obj 230 127 -~;
#X obj 230 12 sig~ 1;
#X obj 177 74 /~;
#X obj 167 252 outlet~;
#X obj 12 173 *~;
#X obj 162 173 *~;
#X obj 12 90 *~;
#X obj 162 147 -~;
#X obj 47 54 inlet~;
#X text 47 34 (I1) Phase;
#X obj 12 147 -~ 1;
#X obj 177 120 -~ 1;
#X text 245 38 (I2) Normalised Frequency;
#X obj 32 199 *~;
#X obj 182 199 *~;
#N canvas 1389 528 164 179 >=~ 0;
#X obj 47 64 -~;
#X obj 47 85 clip~ -1e-37 0;
#X obj 12 12 inlet~;
#X obj 62 12 inlet~;
#X obj 47 148 outlet~;
#X obj 47 127 *~ 1e+37;
#X obj 12 38 min~;
#X obj 47 106 +~ 1e-37;
#X connect 0 0 1 0;
#X connect 1 0 7 0;
#X connect 2 0 6 0;
#X connect 3 0 6 1;
#X connect 3 0 0 1;
#X connect 5 0 4 0;
#X connect 6 0 0 0;
#X connect 7 0 5 0;
#X restore 197 153 pd >=~;
#N canvas 1221 655 166 185 <=~ 0;
#X obj 41 60 -~;
#X obj 41 81 clip~ -1e-37 0;
#X obj 12 12 inlet~;
#X obj 62 12 inlet~;
#X obj 41 144 outlet~;
#X obj 41 123 *~ 1e+37;
#X obj 41 38 min~;
#X obj 41 102 +~ 1e-37;
#X connect 0 0 1 0;
#X connect 1 0 7 0;
#X connect 2 0 6 0;
#X connect 2 0 0 1;
#X connect 3 0 6 1;
#X connect 5 0 4 0;
#X connect 6 0 0 0;
#X connect 7 0 5 0;
#X restore 47 173 pd <=~;
#X obj 245 58 inlet~;
#X connect 0 0 4 0;
#X connect 1 0 16 1;
#X connect 2 0 3 0;
#X connect 2 0 1 0;
#X connect 3 0 7 1;
#X connect 3 0 12 0;
#X connect 5 0 14 0;
#X connect 6 0 15 0;
#X connect 7 0 8 0;
#X connect 7 0 11 0;
#X connect 8 0 6 0;
#X connect 8 0 6 1;
#X connect 9 0 7 0;
#X connect 9 0 17 0;
#X connect 9 0 16 0;
#X connect 11 0 5 0;
#X connect 11 0 5 1;
#X connect 12 0 8 1;
#X connect 14 0 0 0;
#X connect 15 0 0 1;
#X connect 16 0 15 1;
#X connect 17 0 14 1;
#X connect 18 0 1 1;
#X connect 18 0 3 1;
#X connect 18 0 17 1;
#X restore 132 149 pd polyblep;
#N canvas 1412 395 163 124 normalize 0;
#X obj 12 75 outlet~;
#X obj 12 12 inlet~;
#X obj 12 54 -~ 1;
#X obj 12 33 *~ 2;
#X connect 1 0 3 0;
#X connect 2 0 0 0;
#X connect 3 0 2 0;
#X restore 12 149 pd normalize;
#X text 12 11 (I1) Frequency;
#X text 12 452 https://github.com/cfloisand/pd-externals;
#X obj 172 205 +~;
#X obj 157 310 outlet~;
#N canvas 1008 608 416 294 polyblep 0;
#X obj 167 225 -~;
#X obj 230 127 -~;
#X obj 230 12 sig~ 1;
#X obj 177 74 /~;
#X obj 167 252 outlet~;
#X obj 12 173 *~;
#X obj 162 173 *~;
#X obj 12 90 *~;
#X obj 162 147 -~;
#X obj 47 54 inlet~;
#X text 47 34 (I1) Phase;
#X obj 12 147 -~ 1;
#X obj 177 120 -~ 1;
#X text 245 38 (I2) Normalised Frequency;
#X obj 32 199 *~;
#X obj 182 199 *~;
#N canvas 1389 528 164 179 >=~ 0;
#X obj 47 64 -~;
#X obj 47 85 clip~ -1e-37 0;
#X obj 12 12 inlet~;
#X obj 62 12 inlet~;
#X obj 47 148 outlet~;
#X obj 47 127 *~ 1e+37;
#X obj 12 38 min~;
#X obj 47 106 +~ 1e-37;
#X connect 0 0 1 0;
#X connect 1 0 7 0;
#X connect 2 0 6 0;
#X connect 3 0 6 1;
#X connect 3 0 0 1;
#X connect 5 0 4 0;
#X connect 6 0 0 0;
#X connect 7 0 5 0;
#X restore 197 153 pd >=~;
#N canvas 1221 655 166 185 <=~ 0;
#X obj 41 60 -~;
#X obj 41 81 clip~ -1e-37 0;
#X obj 12 12 inlet~;
#X obj 62 12 inlet~;
#X obj 41 144 outlet~;
#X obj 41 123 *~ 1e+37;
#X obj 41 38 min~;
#X obj 41 102 +~ 1e-37;
#X connect 0 0 1 0;
#X connect 1 0 7 0;
#X connect 2 0 6 0;
#X connect 2 0 0 1;
#X connect 3 0 6 1;
#X connect 5 0 4 0;
#X connect 6 0 0 0;
#X connect 7 0 5 0;
#X restore 47 173 pd <=~;
#X obj 245 58 inlet~;
#X connect 0 0 4 0;
#X connect 1 0 16 1;
#X connect 2 0 3 0;
#X connect 2 0 1 0;
#X connect 3 0 7 1;
#X connect 3 0 12 0;
#X connect 5 0 14 0;
#X connect 6 0 15 0;
#X connect 7 0 8 0;
#X connect 7 0 11 0;
#X connect 8 0 6 0;
#X connect 8 0 6 1;
#X connect 9 0 7 0;
#X connect 9 0 17 0;
#X connect 9 0 16 0;
#X connect 11 0 5 0;
#X connect 11 0 5 1;
#X connect 12 0 8 1;
#X connect 14 0 0 0;
#X connect 15 0 0 1;
#X connect 16 0 15 1;
#X connect 17 0 14 1;
#X connect 18 0 1 1;
#X connect 18 0 3 1;
#X connect 18 0 17 1;
#X restore 172 179 pd polyblep;
#N canvas 1412 395 163 124 normalize 0;
#X obj 12 75 outlet~;
#X obj 12 12 inlet~;
#X obj 12 54 -~ 1;
#X obj 12 33 *~ 2;
#X connect 1 0 3 0;
#X connect 2 0 0 0;
#X connect 3 0 2 0;
#X restore 258 189 pd normalize;
#X obj 258 119 +~;
#X obj 258 145 wrap~;
#X obj 157 226 -~;
#X obj 157 247 +~;
#X obj 344 103 samphold~;
#X obj 344 54 clip~ 0 1;
#X obj 344 231 *~ 2;
#X msg 354 87 reset;
#X obj 157 268 -~ 1;
#X text 12 382 References:;
#X obj 387 347 outlet~;
#X obj 12 30 inlet~;
#X obj 12 51 abs~;
#X obj 406 208 /~ 4;
#X text 157 330 (O1) Square;
#X text 387 367 (O2) Triangle;
#X obj 387 326 -~ 0.145;
#X obj 387 305 *~ 2.65;
#X obj 157 289 *~ 0.59;
#X obj 344 33 inlet~;
#X obj 406 229 max~ 100;
#X connect 0 0 32 0;
#X connect 1 0 8 0;
#X connect 1 0 7 0;
#X connect 1 0 15 0;
#X connect 1 0 19 1;
#X connect 2 0 7 1;
#X connect 2 0 13 1;
#X connect 3 0 17 0;
#X connect 4 0 2 1;
#X connect 7 0 3 1;
#X connect 8 0 3 0;
#X connect 11 0 17 1;
#X connect 13 0 11 0;
#X connect 14 0 11 1;
#X connect 15 0 16 0;
#X connect 16 0 14 0;
#X connect 16 0 13 0;
#X connect 17 0 18 0;
#X connect 18 0 23 0;
#X connect 19 0 15 1;
#X connect 19 0 21 0;
#X connect 20 0 19 0;
#X connect 21 0 18 1;
#X connect 22 0 19 0;
#X connect 23 0 0 0;
#X connect 23 0 33 0;
#X connect 26 0 27 0;
#X connect 27 0 1 0;
#X connect 27 0 2 0;
#X connect 27 0 28 0;
#X connect 28 0 35 0;
#X connect 31 0 25 0;
#X connect 32 0 31 0;
#X connect 33 0 12 0;
#X connect 34 0 20 0;
#X connect 35 0 0 1;
#X restore 12 328 pd os.triangle~;
#N canvas 68 96 559 539 os.triangle~ 0;
#N canvas 47 73 450 425 rlpf 0;
#X obj 177 80 samplerate~;
#X obj 229 12 loadbang;
#X obj 45 202 sig~ 1;
#X obj 45 250 -~;
#X obj 177 122 / 2;
#X obj 156 318 outlet~;
#X obj 177 101 t f f;
#X obj 82 123 inlet~;
#X obj 12 123 inlet~;
#X msg 229 33 bang;
#X obj 269 211 inlet;
#X msg 269 232 clear;
#X msg 256 123 1;
#X obj 256 144 atan;
#X obj 229 54 t b b;
#X obj 82 144 clip~ 0 22050;
#X obj 256 165 * -8;
#X obj 189 212 exp~;
#X obj 12 276 *~;
#X obj 60 228 abs~;
#X obj 156 292 rpole~;
#X obj 189 191 *~ -6.28319;
#X obj 159 170 /~ 44100;
#X text 12 13 One-pole Lowpass Filter;
#X text 8 369 https://www.musicdsp.org/en/latest/Filters/237-one-pole-filter-lp-and-hp.html
;
#X text 8 349 Reference:;
#X text 269 191 (I3) Clear internal state;
#X text 206 318 (O1) Output;
#X text 12 103 (I1) Input;
#X text 82 103 (I2) Frequency;
#X connect 0 0 6 0;
#X connect 1 0 9 0;
#X connect 2 0 3 0;
#X connect 3 0 18 1;
#X connect 4 0 15 2;
#X connect 6 0 4 0;
#X connect 6 1 22 1;
#X connect 7 0 15 0;
#X connect 8 0 18 0;
#X connect 9 0 14 0;
#X connect 10 0 11 0;
#X connect 11 0 20 0;
#X connect 12 0 13 0;
#X connect 13 0 16 0;
#X connect 14 0 0 0;
#X connect 14 1 12 0;
#X connect 15 0 22 0;
#X connect 16 0 21 1;
#X connect 17 0 20 1;
#X connect 17 0 19 0;
#X connect 18 0 20 0;
#X connect 19 0 3 1;
#X connect 20 0 5 0;
#X connect 21 0 17 0;
#X connect 22 0 21 0;
#X restore 387 284 pd rlpf;
#X obj 12 87 phasor~;
#X obj 195 67 *~;
#X obj 12 210 +~;
#N canvas 1329 474 147 163 1/Fs 0;
#X obj 12 54 samplerate~;
#X obj 12 12 loadbang;
#X msg 12 75 1 \$1;
#X obj 12 96 /;
#X msg 12 33 bang;
#X obj 12 117 outlet;
#X connect 0 0 2 0;
#X connect 1 0 4 0;
#X connect 2 0 3 0;
#X connect 3 0 5 0;
#X connect 4 0 0 0;
#X restore 210 41 pd 1/Fs;
#X text 12 422 http://www.martin-finke.de/blog/articles/audio-plugins-018-polyblep-oscillator/
;
#X text 12 402 https://github.com/enzienaudio/heavylib/tree/master/hv.osc
;
#N canvas 1008 608 416 294 polyblep 0;
#X obj 167 225 -~;
#X obj 230 127 -~;
#X obj 230 12 sig~ 1;
#X obj 177 74 /~;
#X obj 167 252 outlet~;
#X obj 12 173 *~;
#X obj 162 173 *~;
#X obj 12 90 *~;
#X obj 162 147 -~;
#X obj 47 54 inlet~;
#X text 47 34 (I1) Phase;
#X obj 12 147 -~ 1;
#X obj 177 120 -~ 1;
#X text 245 38 (I2) Normalised Frequency;
#X obj 32 199 *~;
#X obj 182 199 *~;
#N canvas 1389 528 164 179 >=~ 0;
#X obj 47 64 -~;
#X obj 47 85 clip~ -1e-37 0;
#X obj 12 12 inlet~;
#X obj 62 12 inlet~;
#X obj 47 148 outlet~;
#X obj 47 127 *~ 1e+37;
#X obj 12 38 min~;
#X obj 47 106 +~ 1e-37;
#X connect 0 0 1 0;
#X connect 1 0 7 0;
#X connect 2 0 6 0;
#X connect 3 0 6 1;
#X connect 3 0 0 1;
#X connect 5 0 4 0;
#X connect 6 0 0 0;
#X connect 7 0 5 0;
#X restore 197 153 pd >=~;
#N canvas 1221 655 166 185 <=~ 0;
#X obj 41 60 -~;
#X obj 41 81 clip~ -1e-37 0;
#X obj 12 12 inlet~;
#X obj 62 12 inlet~;
#X obj 41 144 outlet~;
#X obj 41 123 *~ 1e+37;
#X obj 41 38 min~;
#X obj 41 102 +~ 1e-37;
#X connect 0 0 1 0;
#X connect 1 0 7 0;
#X connect 2 0 6 0;
#X connect 2 0 0 1;
#X connect 3 0 6 1;
#X connect 5 0 4 0;
#X connect 6 0 0 0;
#X connect 7 0 5 0;
#X restore 47 173 pd <=~;
#X obj 245 58 inlet~;
#X connect 0 0 4 0;
#X connect 1 0 16 1;
#X connect 2 0 3 0;
#X connect 2 0 1 0;
#X connect 3 0 7 1;
#X connect 3 0 12 0;
#X connect 5 0 14 0;
#X connect 6 0 15 0;
#X connect 7 0 8 0;
#X connect 7 0 11 0;
#X connect 8 0 6 0;
#X connect 8 0 6 1;
#X connect 9 0 7 0;
#X connect 9 0 17 0;
#X connect 9 0 16 0;
#X connect 11 0 5 0;
#X connect 11 0 5 1;
#X connect 12 0 8 1;
#X connect 14 0 0 0;
#X connect 15 0 0 1;
#X connect 16 0 15 1;
#X connect 17 0 14 1;
#X connect 18 0 1 1;
#X connect 18 0 3 1;
#X connect 18 0 17 1;
#X restore 132 149 pd polyblep;
#N canvas 1412 395 163 124 normalize 0;
#X obj 12 75 outlet~;
#X obj 12 12 inlet~;
#X obj 12 54 -~ 1;
#X obj 12 33 *~ 2;
#X connect 1 0 3 0;
#X connect 2 0 0 0;
#X connect 3 0 2 0;
#X restore 12 149 pd normalize;
#X text 12 11 (I1) Frequency;
#X text 12 452 https://github.com/cfloisand/pd-externals;
#X obj 172 205 +~;
#X obj 157 310 outlet~;
#N canvas 1008 608 416 294 polyblep 0;
#X obj 167 225 -~;
#X obj 230 127 -~;
#X obj 230 12 sig~ 1;
#X obj 177 74 /~;
#X obj 167 252 outlet~;
#X obj 12 173 *~;
#X obj 162 173 *~;
#X obj 12 90 *~;
#X obj 162 147 -~;
#X obj 47 54 inlet~;
#X text 47 34 (I1) Phase;
#X obj 12 147 -~ 1;
#X obj 177 120 -~ 1;
#X text 245 38 (I2) Normalised Frequency;
#X obj 32 199 *~;
#X obj 182 199 *~;
#N canvas 1389 528 164 179 >=~ 0;
#X obj 47 64 -~;
#X obj 47 85 clip~ -1e-37 0;
#X obj 12 12 inlet~;
#X obj 62 12 inlet~;
#X obj 47 148 outlet~;
#X obj 47 127 *~ 1e+37;
#X obj 12 38 min~;
#X obj 47 106 +~ 1e-37;
#X connect 0 0 1 0;
#X connect 1 0 7 0;
#X connect 2 0 6 0;
#X connect 3 0 6 1;
#X connect 3 0 0 1;
#X connect 5 0 4 0;
#X connect 6 0 0 0;
#X connect 7 0 5 0;
#X restore 197 153 pd >=~;
#N canvas 1221 655 166 185 <=~ 0;
#X obj 41 60 -~;
#X obj 41 81 clip~ -1e-37 0;
#X obj 12 12 inlet~;
#X obj 62 12 inlet~;
#X obj 41 144 outlet~;
#X obj 41 123 *~ 1e+37;
#X obj 41 38 min~;
#X obj 41 102 +~ 1e-37;
#X connect 0 0 1 0;
#X connect 1 0 7 0;
#X connect 2 0 6 0;
#X connect 2 0 0 1;
#X connect 3 0 6 1;
#X connect 5 0 4 0;
#X connect 6 0 0 0;
#X connect 7 0 5 0;
#X restore 47 173 pd <=~;
#X obj 245 58 inlet~;
#X connect 0 0 4 0;
#X connect 1 0 16 1;
#X connect 2 0 3 0;
#X connect 2 0 1 0;
#X connect 3 0 7 1;
#X connect 3 0 12 0;
#X connect 5 0 14 0;
#X connect 6 0 15 0;
#X connect 7 0 8 0;
#X connect 7 0 11 0;
#X connect 8 0 6 0;
#X connect 8 0 6 1;
#X connect 9 0 7 0;
#X connect 9 0 17 0;
#X connect 9 0 16 0;
#X connect 11 0 5 0;
#X connect 11 0 5 1;
#X connect 12 0 8 1;
#X connect 14 0 0 0;
#X connect 15 0 0 1;
#X connect 16 0 15 1;
#X connect 17 0 14 1;
#X connect 18 0 1 1;
#X connect 18 0 3 1;
#X connect 18 0 17 1;
#X restore 172 179 pd polyblep;
#N canvas 1412 395 163 124 normalize 0;
#X obj 12 75 outlet~;
#X obj 12 12 inlet~;
#X obj 12 54 -~ 1;
#X obj 12 33 *~ 2;
#X connect 1 0 3 0;
#X connect 2 0 0 0;
#X connect 3 0 2 0;
#X restore 258 189 pd normalize;
#X obj 258 119 +~;
#X obj 258 145 wrap~;
#X obj 157 226 -~;
#X obj 157 247 +~;
#X obj 344 103 samphold~;
#X obj 344 54 clip~ 0 1;
#X obj 344 231 *~ 2;
#X msg 354 87 reset;
#X obj 157 268 -~ 1;
#X text 12 382 References:;
#X obj 387 347 outlet~;
#X obj 12 30 inlet~;
#X obj 12 51 abs~;
#X obj 406 208 /~ 4;
#X text 157 330 (O1) Square;
#X text 387 367 (O2) Triangle;
#X obj 387 326 -~ 0.145;
#X obj 387 305 *~ 2.65;
#X obj 157 289 *~ 0.59;
#X obj 344 33 inlet~;
#X obj 406 229 max~ 100;
#X connect 0 0 32 0;
#X connect 1 0 8 0;
#X connect 1 0 7 0;
#X connect 1 0 15 0;
#X connect 1 0 19 1;
#X connect 2 0 7 1;
#X connect 2 0 13 1;
#X connect 3 0 17 0;
#X connect 4 0 2 1;
#X connect 7 0 3 1;
#X connect 8 0 3 0;
#X connect 11 0 17 1;
#X connect 13 0 11 0;
#X connect 14 0 11 1;
#X connect 15 0 16 0;
#X connect 16 0 14 0;
#X connect 16 0 13 0;
#X connect 17 0 18 0;
#X connect 18 0 23 0;
#X connect 19 0 15 1;
#X connect 19 0 21 0;
#X connect 20 0 19 0;
#X connect 21 0 18 1;
#X connect 22 0 19 0;
#X connect 23 0 0 0;
#X connect 23 0 33 0;
#X connect 26 0 27 0;
#X connect 27 0 1 0;
#X connect 27 0 2 0;
#X connect 27 0 28 0;
#X connect 28 0 35 0;
#X connect 31 0 25 0;
#X connect 32 0 31 0;
#X connect 33 0 12 0;
#X connect 34 0 20 0;
#X connect 35 0 0 1;
#X restore 262 328 pd os.triangle~;
#N canvas 980 504 257 300 tune1 0;
#X obj 50 240 line~;
#X obj 50 261 outlet~;
#X obj 50 198 mtof;
#X obj 50 120 * 93;
#X obj 50 176 - 16;
#X obj 50 52 r fromGUI;
#X obj 50 73 route list;
#X obj 50 94 route /tune1;
#X text 50 32 GUI: Tune knob 1;
#X obj 50 141 i;
#X msg 50 219 \$1 100;
#X connect 0 0 1 0;
#X connect 2 0 10 0;
#X connect 3 0 9 0;
#X connect 4 0 2 0;
#X connect 5 0 6 0;
#X connect 6 0 7 0;
#X connect 7 0 3 0;
#X connect 9 0 4 0;
#X connect 10 0 0 0;
#X restore 12 186 pd tune1;
#X obj 536 558 s \$0-trigger12;
#X obj 536 355 r fromGUI;
#X obj 536 376 route list;
#X obj 536 397 route /fast12;
#X text 536 335 GUI: Fast toggle;
#N canvas 897 538 270 373 prm.sensor 0;
#X obj 12 307 outlet~;
#X obj 12 141 sel 1 0;
#X msg 12 203 1 \$1;
#X msg 112 203 0 \$1;
#X obj 12 244 line~;
#X obj 12 265 *~;
#X obj 82 265 -~ 0.25;
#X obj 82 286 cos~;
#X obj 12 120 i;
#X obj 82 307 /~ 2;
#X obj 82 328 outlet~;
#X obj 12 31 r fromGUI;
#X obj 12 52 route list;
#X obj 22 99 r \$0-trigger12;
#X text 12 11 GUI: Sensor button 2;
#X obj 12 73 route /sensor2;
#X obj 12 182 v \$0-attack12;
#X obj 112 182 v \$0-release12;
#X connect 1 0 16 0;
#X connect 1 1 17 0;
#X connect 2 0 4 0;
#X connect 3 0 4 0;
#X connect 4 0 5 0;
#X connect 4 0 5 1;
#X connect 4 0 6 0;
#X connect 5 0 0 0;
#X connect 6 0 7 0;
#X connect 7 0 9 0;
#X connect 8 0 1 0;
#X connect 9 0 10 0;
#X connect 11 0 12 0;
#X connect 12 0 15 0;
#X connect 13 0 8 0;
#X connect 15 0 8 0;
#X connect 16 0 2 0;
#X connect 17 0 3 0;
#X restore 174 518 pd prm.sensor;
#X obj 174 539 min~ 1;
#N canvas 980 504 257 300 tune2 0;
#X obj 50 230 line~;
#X obj 50 251 outlet~;
#X obj 50 188 mtof;
#X obj 50 120 * 93;
#X obj 50 166 - 16;
#X obj 50 52 r fromGUI;
#X obj 50 73 route list;
#X obj 50 94 route /tune2;
#X text 50 32 GUI: Tune knob 2;
#X obj 50 141 i;
#X msg 50 209 \$1 100;
#X connect 0 0 1 0;
#X connect 2 0 10 0;
#X connect 3 0 9 0;
#X connect 4 0 2 0;
#X connect 5 0 6 0;
#X connect 6 0 7 0;
#X connect 7 0 3 0;
#X connect 9 0 4 0;
#X connect 10 0 0 0;
#X restore 262 186 pd tune2;
#X obj 551 98 r fromGUI;
#X obj 551 119 route list;
#X obj 551 140 route /vibrato;
#X obj 492 38 r \$0-seed;
#X obj 492 59 + 1;
#X text 551 78 GUI: Vibrato toggle;
#X obj 563 527 v \$0-attack12;
#X obj 620 507 v \$0-release12;
#X connect 0 0 1 1;
#X connect 0 0 17 1;
#X connect 0 0 6 1;
#X connect 1 0 3 0;
#X connect 2 0 3 0;
#X connect 3 0 5 0;
#X connect 5 0 4 0;
#X connect 5 0 48 0;
#X connect 6 0 8 1;
#X connect 7 0 8 1;
#X connect 8 0 5 1;
#X connect 9 0 50 0;
#X connect 10 0 12 1;
#X connect 11 0 51 0;
#X connect 12 0 9 1;
#X connect 12 0 11 0;
#X connect 13 0 12 0;
#X connect 14 0 19 0;
#X connect 14 1 3 0;
#X connect 15 0 16 0;
#X connect 16 0 17 0;
#X connect 17 0 2 1;
#X connect 17 0 7 1;
#X connect 18 0 19 0;
#X connect 18 0 59 0;
#X connect 19 0 3 1;
#X connect 20 0 25 1;
#X connect 20 0 24 1;
#X connect 24 0 30 0;
#X connect 24 0 32 0;
#X connect 25 0 31 0;
#X connect 25 0 33 0;
#X connect 26 0 29 1;
#X connect 27 0 29 0;
#X connect 28 0 50 1;
#X connect 28 0 51 1;
#X connect 29 0 36 0;
#X connect 29 0 44 0;
#X connect 30 0 9 0;
#X connect 30 0 50 0;
#X connect 31 0 11 1;
#X connect 31 0 51 0;
#X connect 32 0 30 1;
#X connect 33 0 31 1;
#X connect 34 0 38 0;
#X connect 35 0 38 0;
#X connect 36 0 50 1;
#X connect 36 0 51 1;
#X connect 37 0 40 0;
#X connect 38 0 37 0;
#X connect 39 0 27 0;
#X connect 40 0 39 0;
#X connect 41 0 45 0;
#X connect 41 1 46 0;
#X connect 42 0 67 0;
#X connect 42 1 68 0;
#X connect 43 0 53 0;
#X connect 43 1 41 0;
#X connect 44 0 33 1;
#X connect 44 0 32 1;
#X connect 45 0 42 0;
#X connect 46 0 42 0;
#X connect 47 0 26 0;
#X connect 48 0 49 0;
#X connect 50 0 1 0;
#X connect 50 1 2 0;
#X connect 51 0 6 0;
#X connect 51 1 7 0;
#X connect 52 0 24 0;
#X connect 54 0 55 0;
#X connect 55 0 56 0;
#X connect 56 0 43 0;
#X connect 58 0 59 0;
#X connect 58 1 8 1;
#X connect 59 0 8 0;
#X connect 60 0 25 0;
#X connect 61 0 62 0;
#X connect 62 0 63 0;
#X connect 63 0 47 0;
#X connect 64 0 65 0;
#X connect 65 0 35 0;
#X restore 22 185 pd lira.voice 1 2;
#N canvas 948 525 509 484 modulation.source 0;
#X obj 12 427 *~;
#X obj 282 428 *~;
#X obj 282 228 *~;
#X obj 152 228 *~;
#X obj 167 164 == 0;
#X obj 27 386 * 0.999;
#X obj 27 407 + 0.001;
#X obj 297 386 * 0.999;
#X obj 297 407 + 0.001;
#X obj 167 186 * 0.999;
#X obj 167 207 + 0.001;
#X obj 337 186 * 0.999;
#X obj 337 207 + 0.001;
#X obj 12 458 outlet~;
#X obj 282 32 r~ \$0-total-feedback;
#X obj 12 32 r~ \$0-voice34;
#X obj 291 276 r fromGUI;
#X obj 291 297 route list;
#X obj 291 318 route /source12;
#X obj 291 339 t f f;
#X obj 27 365 == 2;
#X obj 297 365 == 0;
#X text 291 256 GUI: Source selector 1 2;
#X obj 310 75 r fromGUI;
#X obj 310 96 route list;
#X text 310 55 GUI: Source selector 1 2;
#X obj 310 117 route /totalFb;
#X obj 310 138 t f f;
#X obj 152 32 inlet~;
#X text 152 12 Inlet 1: Square LFO;
#X connect 0 0 13 0;
#X connect 1 0 13 0;
#X connect 2 0 1 0;
#X connect 3 0 1 0;
#X connect 4 0 9 0;
#X connect 5 0 6 0;
#X connect 6 0 0 1;
#X connect 7 0 8 0;
#X connect 8 0 1 1;
#X connect 9 0 10 0;
#X connect 10 0 3 1;
#X connect 11 0 12 0;
#X connect 12 0 2 1;
#X connect 14 0 2 0;
#X connect 15 0 0 0;
#X connect 16 0 17 0;
#X connect 17 0 18 0;
#X connect 18 0 19 0;
#X connect 19 0 20 0;
#X connect 19 1 21 0;
#X connect 20 0 5 0;
#X connect 21 0 7 0;
#X connect 23 0 24 0;
#X connect 24 0 26 0;
#X connect 26 0 27 0;
#X connect 27 0 4 0;
#X connect 27 1 11 0;
#X connect 28 0 3 0;
#X restore 22 72 pd modulation.source 1 2;
#X msg 592 158 LIRA-4 by Mike Moreno DSP 2022;
#N canvas 839 424 232 250 parameter.pitch 0;
#X obj 12 188 outlet~;
#X obj 12 167 line~;
#X obj 12 125 + 0.01;
#X obj 12 104 * 1.99;
#X msg 12 146 \$1 23.22;
#X obj 12 31 r fromGUI;
#X obj 12 52 route list;
#X obj 12 73 route /pitch;
#X text 12 11 GUI: Pitch knob;
#X connect 1 0 0 0;
#X connect 2 0 4 0;
#X connect 3 0 2 0;
#X connect 4 0 1 0;
#X connect 5 0 6 0;
#X connect 6 0 7 0;
#X connect 7 0 3 0;
#X restore 231 98 pd parameter.pitch;
#N canvas 591 511 509 484 modulation.source 0;
#X obj 12 427 *~;
#X obj 282 428 *~;
#X obj 282 228 *~;
#X obj 152 228 *~;
#X obj 167 164 == 0;
#X obj 27 386 * 0.999;
#X obj 27 407 + 0.001;
#X obj 297 386 * 0.999;
#X obj 297 407 + 0.001;
#X obj 167 186 * 0.999;
#X obj 167 207 + 0.001;
#X obj 337 186 * 0.999;
#X obj 337 207 + 0.001;
#X obj 12 458 outlet~;
#X obj 282 32 r~ \$0-total-feedback;
#X obj 291 276 r fromGUI;
#X obj 291 297 route list;
#X obj 291 339 t f f;
#X obj 27 365 == 2;
#X obj 297 365 == 0;
#X obj 310 75 r fromGUI;
#X obj 310 96 route list;
#X text 310 55 GUI: Source selector 1 2;
#X obj 310 117 route /totalFb;
#X obj 310 138 t f f;
#X obj 152 32 inlet~;
#X text 152 12 Inlet 1: Square LFO;
#X obj 291 318 route /source34;
#X text 291 256 GUI: Source selector 3 4;
#X obj 12 32 r~ \$0-voice12;
#X connect 0 0 13 0;
#X connect 1 0 13 0;
#X connect 2 0 1 0;
#X connect 3 0 1 0;
#X connect 4 0 9 0;
#X connect 5 0 6 0;
#X connect 6 0 0 1;
#X connect 7 0 8 0;
#X connect 8 0 1 1;
#X connect 9 0 10 0;
#X connect 10 0 3 1;
#X connect 11 0 12 0;
#X connect 12 0 2 1;
#X connect 14 0 2 0;
#X connect 15 0 16 0;
#X connect 16 0 27 0;
#X connect 17 0 18 0;
#X connect 17 1 19 0;
#X connect 18 0 5 0;
#X connect 19 0 7 0;
#X connect 20 0 21 0;
#X connect 21 0 23 0;
#X connect 23 0 24 0;
#X connect 24 0 4 0;
#X connect 24 1 11 0;
#X connect 25 0 3 0;
#X connect 27 0 17 0;
#X connect 29 0 0 0;
#X restore 182 72 pd modulation.source 3 4;
#X obj 182 221 *~ 0.333333;
#N canvas 618 162 743 725 lira.voice 0;
#N canvas 1027 619 224 268 prm.sharp 0;
#X obj 12 100 pow 2;
#X obj 12 142 line~;
#X obj 12 163 outlet~;
#X msg 12 121 \$1 23.22;
#X obj 12 32 r fromGUI;
#X obj 12 53 route list;
#X obj 12 74 route /sharp34;
#X text 12 12 GUI: Sharp knob 3 4;
#X connect 0 0 3 0;
#X connect 1 0 2 0;
#X connect 3 0 1 0;
#X connect 4 0 5 0;
#X connect 5 0 6 0;
#X connect 6 0 0 0;
#X restore 421 382 pd prm.sharp;
#X obj 12 398 *~;
#X obj 81 461 *~;
#X obj 12 575 *~;
#X obj 12 687 outlet~;
#X obj 12 635 +~;
#X obj 262 418 *~;
#X obj 331 471 *~;
#X obj 247 579 *~;
#X obj 32 302 *~;
#N canvas 1027 619 256 239 prm.mod 0;
#X obj 12 173 line~;
#X obj 12 194 outlet~;
#X obj 12 110 pow 4;
#X obj 12 131 * 2;
#X msg 12 152 \$1 23.22;
#X obj 12 42 r fromGUI;
#X obj 12 63 route list;
#X obj 12 84 route /mod34;
#X text 12 22 GUI: Mod knob 3 4;
#X connect 0 0 1 0;
#X connect 2 0 3 0;
#X connect 3 0 4 0;
#X connect 4 0 0 0;
#X connect 5 0 6 0;
#X connect 6 0 7 0;
#X connect 7 0 2 0;
#X restore 135 265 pd prm.mod;
#X obj 227 302 *~;
#X obj 120 286 *~;
#X obj 120 244 inlet~;
#N canvas 897 538 270 373 prm.sensor 0;
#X obj 12 307 outlet~;
#X obj 12 141 sel 1 0;
#X msg 12 203 1 \$1;
#X msg 112 203 0 \$1;
#X obj 12 244 line~;
#X obj 12 265 *~;
#X obj 82 265 -~ 0.25;
#X obj 82 286 cos~;
#X obj 12 120 i;
#X obj 82 307 /~ 2;
#X obj 82 328 outlet~;
#X obj 12 31 r fromGUI;
#X obj 12 52 route list;
#X obj 12 73 route /sensor3;
#X text 12 11 GUI: Sensor button 3;
#X obj 22 99 r \$0-trigger34;
#X obj 12 182 v \$0-attack34;
#X obj 112 182 v \$0-release34;
#X connect 1 0 16 0;
#X connect 1 1 17 0;
#X connect 2 0 4 0;
#X connect 3 0 4 0;
#X connect 4 0 5 0;
#X connect 4 0 5 1;
#X connect 4 0 6 0;
#X connect 5 0 0 0;
#X connect 6 0 7 0;
#X connect 7 0 9 0;
#X connect 8 0 1 0;
#X connect 9 0 10 0;
#X connect 11 0 12 0;
#X connect 12 0 13 0;
#X connect 13 0 8 0;
#X connect 15 0 8 0;
#X connect 16 0 2 0;
#X connect 17 0 3 0;
#X restore 54 518 pd prm.sensor;
#X obj 406 403 loadbang;
#X msg 406 424 1;
#X obj 406 445 -~;
#X obj 373 523 inlet~;
#X obj 54 539 min~ 1;
#X obj 360 201 inlet~;
#X text 120 224 (I1) Mod Source;
#X text 373 503 (I3) Hold;
#X text 360 181 (I2) Pitch;
#X obj 12 217 *~;
#X obj 262 217 *~;
#X obj 516 190 line~;
#X obj 466 185 osc~ 3;
#X obj 349 312 sig~ 0.53125;
#X obj 466 206 *~;
#X obj 12 268 +~;
#X obj 262 268 +~;
#X obj 32 238 *~;
#X obj 292 238 *~;
#X obj 466 12 loadbang;
#X msg 492 80 seed \$1;
#X obj 466 312 *~ 0.025;
#X obj 466 122 / 1000;
#X obj 466 101 random 1001;
#X obj 466 164 + 0.5;
#X obj 466 143 * 3;
#X obj 563 444 sel 1 0;
#X obj 563 486 unpack f f;
#X obj 536 423 t b f;
#X obj 396 222 *~ 0.005;
#X msg 563 465 100 100;
#X msg 633 465 200 8000;
#X msg 516 169 \$1 23.22;
#X obj 92 656 hip~ 3;
#N canvas 68 96 559 539 os.triangle~ 0;
#N canvas 47 73 450 425 rlpf 0;
#X obj 177 80 samplerate~;
#X obj 229 12 loadbang;
#X obj 45 202 sig~ 1;
#X obj 45 250 -~;
#X obj 177 122 / 2;
#X obj 156 318 outlet~;
#X obj 177 101 t f f;
#X obj 82 123 inlet~;
#X obj 12 123 inlet~;
#X msg 229 33 bang;
#X obj 269 211 inlet;
#X msg 269 232 clear;
#X msg 256 123 1;
#X obj 256 144 atan;
#X obj 229 54 t b b;
#X obj 82 144 clip~ 0 22050;
#X obj 256 165 * -8;
#X obj 189 212 exp~;
#X obj 12 276 *~;
#X obj 60 228 abs~;
#X obj 156 292 rpole~;
#X obj 189 191 *~ -6.28319;
#X obj 159 170 /~ 44100;
#X text 12 13 One-pole Lowpass Filter;
#X text 8 369 https://www.musicdsp.org/en/latest/Filters/237-one-pole-filter-lp-and-hp.html
;
#X text 8 349 Reference:;
#X text 269 191 (I3) Clear internal state;
#X text 206 318 (O1) Output;
#X text 12 103 (I1) Input;
#X text 82 103 (I2) Frequency;
#X connect 0 0 6 0;
#X connect 1 0 9 0;
#X connect 2 0 3 0;
#X connect 3 0 18 1;
#X connect 4 0 15 2;
#X connect 6 0 4 0;
#X connect 6 1 22 1;
#X connect 7 0 15 0;
#X connect 8 0 18 0;
#X connect 9 0 14 0;
#X connect 10 0 11 0;
#X connect 11 0 20 0;
#X connect 12 0 13 0;
#X connect 13 0 16 0;
#X connect 14 0 0 0;
#X connect 14 1 12 0;
#X connect 15 0 22 0;
#X connect 16 0 21 1;
#X connect 17 0 20 1;
#X connect 17 0 19 0;
#X connect 18 0 20 0;
#X connect 19 0 3 1;
#X connect 20 0 5 0;
#X connect 21 0 17 0;
#X connect 22 0 21 0;
#X restore 387 284 pd rlpf;
#X obj 12 87 phasor~;
#X obj 195 67 *~;
#X obj 12 210 +~;
#N canvas 1329 474 147 163 1/Fs 0;
#X obj 12 54 samplerate~;
#X obj 12 12 loadbang;
#X msg 12 75 1 \$1;
#X obj 12 96 /;
#X msg 12 33 bang;
#X obj 12 117 outlet;
#X connect 0 0 2 0;
#X connect 1 0 4 0;
#X connect 2 0 3 0;
#X connect 3 0 5 0;
#X connect 4 0 0 0;
#X restore 210 41 pd 1/Fs;
#X text 12 422 http://www.martin-finke.de/blog/articles/audio-plugins-018-polyblep-oscillator/
;
#X text 12 402 https://github.com/enzienaudio/heavylib/tree/master/hv.osc
;
#N canvas 1008 608 416 294 polyblep 0;
#X obj 167 225 -~;
#X obj 230 127 -~;
#X obj 230 12 sig~ 1;
#X obj 177 74 /~;
#X obj 167 252 outlet~;
#X obj 12 173 *~;
#X obj 162 173 *~;
#X obj 12 90 *~;
#X obj 162 147 -~;
#X obj 47 54 inlet~;
#X text 47 34 (I1) Phase;
#X obj 12 147 -~ 1;
#X obj 177 120 -~ 1;
#X text 245 38 (I2) Normalised Frequency;
#X obj 32 199 *~;
#X obj 182 199 *~;
#N canvas 1389 528 164 179 >=~ 0;
#X obj 47 64 -~;
#X obj 47 85 clip~ -1e-37 0;
#X obj 12 12 inlet~;
#X obj 62 12 inlet~;
#X obj 47 148 outlet~;
#X obj 47 127 *~ 1e+37;
#X obj 12 38 min~;
#X obj 47 106 +~ 1e-37;
#X connect 0 0 1 0;
#X connect 1 0 7 0;
#X connect 2 0 6 0;
#X connect 3 0 6 1;
#X connect 3 0 0 1;
#X connect 5 0 4 0;
#X connect 6 0 0 0;
#X connect 7 0 5 0;
#X restore 197 153 pd >=~;
#N canvas 1221 655 166 185 <=~ 0;
#X obj 41 60 -~;
#X obj 41 81 clip~ -1e-37 0;
#X obj 12 12 inlet~;
#X obj 62 12 inlet~;
#X obj 41 144 outlet~;
#X obj 41 123 *~ 1e+37;
#X obj 41 38 min~;
#X obj 41 102 +~ 1e-37;
#X connect 0 0 1 0;
#X connect 1 0 7 0;
#X connect 2 0 6 0;
#X connect 2 0 0 1;
#X connect 3 0 6 1;
#X connect 5 0 4 0;
#X connect 6 0 0 0;
#X connect 7 0 5 0;
#X restore 47 173 pd <=~;
#X obj 245 58 inlet~;
#X connect 0 0 4 0;
#X connect 1 0 16 1;
#X connect 2 0 3 0;
#X connect 2 0 1 0;
#X connect 3 0 7 1;
#X connect 3 0 12 0;
#X connect 5 0 14 0;
#X connect 6 0 15 0;
#X connect 7 0 8 0;
#X connect 7 0 11 0;
#X connect 8 0 6 0;
#X connect 8 0 6 1;
#X connect 9 0 7 0;
#X connect 9 0 17 0;
#X connect 9 0 16 0;
#X connect 11 0 5 0;
#X connect 11 0 5 1;
#X connect 12 0 8 1;
#X connect 14 0 0 0;
#X connect 15 0 0 1;
#X connect 16 0 15 1;
#X connect 17 0 14 1;
#X connect 18 0 1 1;
#X connect 18 0 3 1;
#X connect 18 0 17 1;
#X restore 132 149 pd polyblep;
#N canvas 1412 395 163 124 normalize 0;
#X obj 12 75 outlet~;
#X obj 12 12 inlet~;
#X obj 12 54 -~ 1;
#X obj 12 33 *~ 2;
#X connect 1 0 3 0;
#X connect 2 0 0 0;
#X connect 3 0 2 0;
#X restore 12 149 pd normalize;
#X text 12 11 (I1) Frequency;
#X text 12 452 https://github.com/cfloisand/pd-externals;
#X obj 172 205 +~;
#X obj 157 310 outlet~;
#N canvas 1008 608 416 294 polyblep 0;
#X obj 167 225 -~;
#X obj 230 127 -~;
#X obj 230 12 sig~ 1;
#X obj 177 74 /~;
#X obj 167 252 outlet~;
#X obj 12 173 *~;
#X obj 162 173 *~;
#X obj 12 90 *~;
#X obj 162 147 -~;
#X obj 47 54 inlet~;
#X text 47 34 (I1) Phase;
#X obj 12 147 -~ 1;
#X obj 177 120 -~ 1;
#X text 245 38 (I2) Normalised Frequency;
#X obj 32 199 *~;
#X obj 182 199 *~;
#N canvas 1389 528 164 179 >=~ 0;
#X obj 47 64 -~;
#X obj 47 85 clip~ -1e-37 0;
#X obj 12 12 inlet~;
#X obj 62 12 inlet~;
#X obj 47 148 outlet~;
#X obj 47 127 *~ 1e+37;
#X obj 12 38 min~;
#X obj 47 106 +~ 1e-37;
#X connect 0 0 1 0;
#X connect 1 0 7 0;
#X connect 2 0 6 0;
#X connect 3 0 6 1;
#X connect 3 0 0 1;
#X connect 5 0 4 0;
#X connect 6 0 0 0;
#X connect 7 0 5 0;
#X restore 197 153 pd >=~;
#N canvas 1221 655 166 185 <=~ 0;
#X obj 41 60 -~;
#X obj 41 81 clip~ -1e-37 0;
#X obj 12 12 inlet~;
#X obj 62 12 inlet~;
#X obj 41 144 outlet~;
#X obj 41 123 *~ 1e+37;
#X obj 41 38 min~;
#X obj 41 102 +~ 1e-37;
#X connect 0 0 1 0;
#X connect 1 0 7 0;
#X connect 2 0 6 0;
#X connect 2 0 0 1;
#X connect 3 0 6 1;
#X connect 5 0 4 0;
#X connect 6 0 0 0;
#X connect 7 0 5 0;
#X restore 47 173 pd <=~;
#X obj 245 58 inlet~;
#X connect 0 0 4 0;
#X connect 1 0 16 1;
#X connect 2 0 3 0;
#X connect 2 0 1 0;
#X connect 3 0 7 1;
#X connect 3 0 12 0;
#X connect 5 0 14 0;
#X connect 6 0 15 0;
#X connect 7 0 8 0;
#X connect 7 0 11 0;
#X connect 8 0 6 0;
#X connect 8 0 6 1;
#X connect 9 0 7 0;
#X connect 9 0 17 0;
#X connect 9 0 16 0;
#X connect 11 0 5 0;
#X connect 11 0 5 1;
#X connect 12 0 8 1;
#X connect 14 0 0 0;
#X connect 15 0 0 1;
#X connect 16 0 15 1;
#X connect 17 0 14 1;
#X connect 18 0 1 1;
#X connect 18 0 3 1;
#X connect 18 0 17 1;
#X restore 172 179 pd polyblep;
#N canvas 1412 395 163 124 normalize 0;
#X obj 12 75 outlet~;
#X obj 12 12 inlet~;
#X obj 12 54 -~ 1;
#X obj 12 33 *~ 2;
#X connect 1 0 3 0;
#X connect 2 0 0 0;
#X connect 3 0 2 0;
#X restore 258 189 pd normalize;
#X obj 258 119 +~;
#X obj 258 145 wrap~;
#X obj 157 226 -~;
#X obj 157 247 +~;
#X obj 344 103 samphold~;
#X obj 344 54 clip~ 0 1;
#X obj 344 231 *~ 2;
#X msg 354 87 reset;
#X obj 157 268 -~ 1;
#X text 12 382 References:;
#X obj 387 347 outlet~;
#X obj 12 30 inlet~;
#X obj 12 51 abs~;
#X obj 406 208 /~ 4;
#X text 157 330 (O1) Square;
#X text 387 367 (O2) Triangle;
#X obj 387 326 -~ 0.145;
#X obj 387 305 *~ 2.65;
#X obj 157 289 *~ 0.59;
#X obj 344 33 inlet~;
#X obj 406 229 max~ 100;
#X connect 0 0 32 0;
#X connect 1 0 8 0;
#X connect 1 0 7 0;
#X connect 1 0 15 0;
#X connect 1 0 19 1;
#X connect 2 0 7 1;
#X connect 2 0 13 1;
#X connect 3 0 17 0;
#X connect 4 0 2 1;
#X connect 7 0 3 1;
#X connect 8 0 3 0;
#X connect 11 0 17 1;
#X connect 13 0 11 0;
#X connect 14 0 11 1;
#X connect 15 0 16 0;
#X connect 16 0 14 0;
#X connect 16 0 13 0;
#X connect 17 0 18 0;
#X connect 18 0 23 0;
#X connect 19 0 15 1;
#X connect 19 0 21 0;
#X connect 20 0 19 0;
#X connect 21 0 18 1;
#X connect 22 0 19 0;
#X connect 23 0 0 0;
#X connect 23 0 33 0;
#X connect 26 0 27 0;
#X connect 27 0 1 0;
#X connect 27 0 2 0;
#X connect 27 0 28 0;
#X connect 28 0 35 0;
#X connect 31 0 25 0;
#X connect 32 0 31 0;
#X connect 33 0 12 0;
#X connect 34 0 20 0;
#X connect 35 0 0 1;
#X restore 12 328 pd os.triangle~;
#N canvas 68 96 559 539 os.triangle~ 0;
#N canvas 47 73 450 425 rlpf 0;
#X obj 177 80 samplerate~;
#X obj 229 12 loadbang;
#X obj 45 202 sig~ 1;
#X obj 45 250 -~;
#X obj 177 122 / 2;
#X obj 156 318 outlet~;
#X obj 177 101 t f f;
#X obj 82 123 inlet~;
#X obj 12 123 inlet~;
#X msg 229 33 bang;
#X obj 269 211 inlet;
#X msg 269 232 clear;
#X msg 256 123 1;
#X obj 256 144 atan;
#X obj 229 54 t b b;
#X obj 82 144 clip~ 0 22050;
#X obj 256 165 * -8;
#X obj 189 212 exp~;
#X obj 12 276 *~;
#X obj 60 228 abs~;
#X obj 156 292 rpole~;
#X obj 189 191 *~ -6.28319;
#X obj 159 170 /~ 44100;
#X text 12 13 One-pole Lowpass Filter;
#X text 8 369 https://www.musicdsp.org/en/latest/Filters/237-one-pole-filter-lp-and-hp.html
;
#X text 8 349 Reference:;
#X text 269 191 (I3) Clear internal state;
#X text 206 318 (O1) Output;
#X text 12 103 (I1) Input;
#X text 82 103 (I2) Frequency;
#X connect 0 0 6 0;
#X connect 1 0 9 0;
#X connect 2 0 3 0;
#X connect 3 0 18 1;
#X connect 4 0 15 2;
#X connect 6 0 4 0;
#X connect 6 1 22 1;
#X connect 7 0 15 0;
#X connect 8 0 18 0;
#X connect 9 0 14 0;
#X connect 10 0 11 0;
#X connect 11 0 20 0;
#X connect 12 0 13 0;
#X connect 13 0 16 0;
#X connect 14 0 0 0;
#X connect 14 1 12 0;
#X connect 15 0 22 0;
#X connect 16 0 21 1;
#X connect 17 0 20 1;
#X connect 17 0 19 0;
#X connect 18 0 20 0;
#X connect 19 0 3 1;
#X connect 20 0 5 0;
#X connect 21 0 17 0;
#X connect 22 0 21 0;
#X restore 387 284 pd rlpf;
#X obj 12 87 phasor~;
#X obj 195 67 *~;
#X obj 12 210 +~;
#N canvas 1329 474 147 163 1/Fs 0;
#X obj 12 54 samplerate~;
#X obj 12 12 loadbang;
#X msg 12 75 1 \$1;
#X obj 12 96 /;
#X msg 12 33 bang;
#X obj 12 117 outlet;
#X connect 0 0 2 0;
#X connect 1 0 4 0;
#X connect 2 0 3 0;
#X connect 3 0 5 0;
#X connect 4 0 0 0;
#X restore 210 41 pd 1/Fs;
#X text 12 422 http://www.martin-finke.de/blog/articles/audio-plugins-018-polyblep-oscillator/
;
#X text 12 402 https://github.com/enzienaudio/heavylib/tree/master/hv.osc
;
#N canvas 1008 608 416 294 polyblep 0;
#X obj 167 225 -~;
#X obj 230 127 -~;
#X obj 230 12 sig~ 1;
#X obj 177 74 /~;
#X obj 167 252 outlet~;
#X obj 12 173 *~;
#X obj 162 173 *~;
#X obj 12 90 *~;
#X obj 162 147 -~;
#X obj 47 54 inlet~;
#X text 47 34 (I1) Phase;
#X obj 12 147 -~ 1;
#X obj 177 120 -~ 1;
#X text 245 38 (I2) Normalised Frequency;
#X obj 32 199 *~;
#X obj 182 199 *~;
#N canvas 1389 528 164 179 >=~ 0;
#X obj 47 64 -~;
#X obj 47 85 clip~ -1e-37 0;
#X obj 12 12 inlet~;
#X obj 62 12 inlet~;
#X obj 47 148 outlet~;
#X obj 47 127 *~ 1e+37;
#X obj 12 38 min~;
#X obj 47 106 +~ 1e-37;
#X connect 0 0 1 0;
#X connect 1 0 7 0;
#X connect 2 0 6 0;
#X connect 3 0 6 1;
#X connect 3 0 0 1;
#X connect 5 0 4 0;
#X connect 6 0 0 0;
#X connect 7 0 5 0;
#X restore 197 153 pd >=~;
#N canvas 1221 655 166 185 <=~ 0;
#X obj 41 60 -~;
#X obj 41 81 clip~ -1e-37 0;
#X obj 12 12 inlet~;
#X obj 62 12 inlet~;
#X obj 41 144 outlet~;
#X obj 41 123 *~ 1e+37;
#X obj 41 38 min~;
#X obj 41 102 +~ 1e-37;
#X connect 0 0 1 0;
#X connect 1 0 7 0;
#X connect 2 0 6 0;
#X connect 2 0 0 1;
#X connect 3 0 6 1;
#X connect 5 0 4 0;
#X connect 6 0 0 0;
#X connect 7 0 5 0;
#X restore 47 173 pd <=~;
#X obj 245 58 inlet~;
#X connect 0 0 4 0;
#X connect 1 0 16 1;
#X connect 2 0 3 0;
#X connect 2 0 1 0;
#X connect 3 0 7 1;
#X connect 3 0 12 0;
#X connect 5 0 14 0;
#X connect 6 0 15 0;
#X connect 7 0 8 0;
#X connect 7 0 11 0;
#X connect 8 0 6 0;
#X connect 8 0 6 1;
#X connect 9 0 7 0;
#X connect 9 0 17 0;
#X connect 9 0 16 0;
#X connect 11 0 5 0;
#X connect 11 0 5 1;
#X connect 12 0 8 1;
#X connect 14 0 0 0;
#X connect 15 0 0 1;
#X connect 16 0 15 1;
#X connect 17 0 14 1;
#X connect 18 0 1 1;
#X connect 18 0 3 1;
#X connect 18 0 17 1;
#X restore 132 149 pd polyblep;
#N canvas 1412 395 163 124 normalize 0;
#X obj 12 75 outlet~;
#X obj 12 12 inlet~;
#X obj 12 54 -~ 1;
#X obj 12 33 *~ 2;
#X connect 1 0 3 0;
#X connect 2 0 0 0;
#X connect 3 0 2 0;
#X restore 12 149 pd normalize;
#X text 12 11 (I1) Frequency;
#X text 12 452 https://github.com/cfloisand/pd-externals;
#X obj 172 205 +~;
#X obj 157 310 outlet~;
#N canvas 1008 608 416 294 polyblep 0;
#X obj 167 225 -~;
#X obj 230 127 -~;
#X obj 230 12 sig~ 1;
#X obj 177 74 /~;
#X obj 167 252 outlet~;
#X obj 12 173 *~;
#X obj 162 173 *~;
#X obj 12 90 *~;
#X obj 162 147 -~;
#X obj 47 54 inlet~;
#X text 47 34 (I1) Phase;
#X obj 12 147 -~ 1;
#X obj 177 120 -~ 1;
#X text 245 38 (I2) Normalised Frequency;
#X obj 32 199 *~;
#X obj 182 199 *~;
#N canvas 1389 528 164 179 >=~ 0;
#X obj 47 64 -~;
#X obj 47 85 clip~ -1e-37 0;
#X obj 12 12 inlet~;
#X obj 62 12 inlet~;
#X obj 47 148 outlet~;
#X obj 47 127 *~ 1e+37;
#X obj 12 38 min~;
#X obj 47 106 +~ 1e-37;
#X connect 0 0 1 0;
#X connect 1 0 7 0;
#X connect 2 0 6 0;
#X connect 3 0 6 1;
#X connect 3 0 0 1;
#X connect 5 0 4 0;
#X connect 6 0 0 0;
#X connect 7 0 5 0;
#X restore 197 153 pd >=~;
#N canvas 1221 655 166 185 <=~ 0;
#X obj 41 60 -~;
#X obj 41 81 clip~ -1e-37 0;
#X obj 12 12 inlet~;
#X obj 62 12 inlet~;
#X obj 41 144 outlet~;
#X obj 41 123 *~ 1e+37;
#X obj 41 38 min~;
#X obj 41 102 +~ 1e-37;
#X connect 0 0 1 0;
#X connect 1 0 7 0;
#X connect 2 0 6 0;
#X connect 2 0 0 1;
#X connect 3 0 6 1;
#X connect 5 0 4 0;
#X connect 6 0 0 0;
#X connect 7 0 5 0;
#X restore 47 173 pd <=~;
#X obj 245 58 inlet~;
#X connect 0 0 4 0;
#X connect 1 0 16 1;
#X connect 2 0 3 0;
#X connect 2 0 1 0;
#X connect 3 0 7 1;
#X connect 3 0 12 0;
#X connect 5 0 14 0;
#X connect 6 0 15 0;
#X connect 7 0 8 0;
#X connect 7 0 11 0;
#X connect 8 0 6 0;
#X connect 8 0 6 1;
#X connect 9 0 7 0;
#X connect 9 0 17 0;
#X connect 9 0 16 0;
#X connect 11 0 5 0;
#X connect 11 0 5 1;
#X connect 12 0 8 1;
#X connect 14 0 0 0;
#X connect 15 0 0 1;
#X connect 16 0 15 1;
#X connect 17 0 14 1;
#X connect 18 0 1 1;
#X connect 18 0 3 1;
#X connect 18 0 17 1;
#X restore 172 179 pd polyblep;
#N canvas 1412 395 163 124 normalize 0;
#X obj 12 75 outlet~;
#X obj 12 12 inlet~;
#X obj 12 54 -~ 1;
#X obj 12 33 *~ 2;
#X connect 1 0 3 0;
#X connect 2 0 0 0;
#X connect 3 0 2 0;
#X restore 258 189 pd normalize;
#X obj 258 119 +~;
#X obj 258 145 wrap~;
#X obj 157 226 -~;
#X obj 157 247 +~;
#X obj 344 103 samphold~;
#X obj 344 54 clip~ 0 1;
#X obj 344 231 *~ 2;
#X msg 354 87 reset;
#X obj 157 268 -~ 1;
#X text 12 382 References:;
#X obj 387 347 outlet~;
#X obj 12 30 inlet~;
#X obj 12 51 abs~;
#X obj 406 208 /~ 4;
#X text 157 330 (O1) Square;
#X text 387 367 (O2) Triangle;
#X obj 387 326 -~ 0.145;
#X obj 387 305 *~ 2.65;
#X obj 157 289 *~ 0.59;
#X obj 344 33 inlet~;
#X obj 406 229 max~ 100;
#X connect 0 0 32 0;
#X connect 1 0 8 0;
#X connect 1 0 7 0;
#X connect 1 0 15 0;
#X connect 1 0 19 1;
#X connect 2 0 7 1;
#X connect 2 0 13 1;
#X connect 3 0 17 0;
#X connect 4 0 2 1;
#X connect 7 0 3 1;
#X connect 8 0 3 0;
#X connect 11 0 17 1;
#X connect 13 0 11 0;
#X connect 14 0 11 1;
#X connect 15 0 16 0;
#X connect 16 0 14 0;
#X connect 16 0 13 0;
#X connect 17 0 18 0;
#X connect 18 0 23 0;
#X connect 19 0 15 1;
#X connect 19 0 21 0;
#X connect 20 0 19 0;
#X connect 21 0 18 1;
#X connect 22 0 19 0;
#X connect 23 0 0 0;
#X connect 23 0 33 0;
#X connect 26 0 27 0;
#X connect 27 0 1 0;
#X connect 27 0 2 0;
#X connect 27 0 28 0;
#X connect 28 0 35 0;
#X connect 31 0 25 0;
#X connect 32 0 31 0;
#X connect 33 0 12 0;
#X connect 34 0 20 0;
#X connect 35 0 0 1;
#X restore 262 328 pd os.triangle~;
#X obj 536 355 r fromGUI;
#X obj 536 376 route list;
#X text 536 335 GUI: Fast toggle;
#N canvas 897 538 270 373 prm.sensor 0;
#X obj 12 307 outlet~;
#X obj 12 141 sel 1 0;
#X msg 12 203 1 \$1;
#X msg 112 203 0 \$1;
#X obj 12 244 line~;
#X obj 12 265 *~;
#X obj 82 265 -~ 0.25;
#X obj 82 286 cos~;
#X obj 12 120 i;
#X obj 82 307 /~ 2;
#X obj 82 328 outlet~;
#X obj 12 31 r fromGUI;
#X obj 12 52 route list;
#X obj 22 99 r \$0-trigger34;
#X obj 12 73 route /sensor4;
#X text 12 11 GUI: Sensor button 4;
#X obj 12 182 v \$0-attack34;
#X obj 112 182 v \$0-release34;
#X connect 1 0 16 0;
#X connect 1 1 17 0;
#X connect 2 0 4 0;
#X connect 3 0 4 0;
#X connect 4 0 5 0;
#X connect 4 0 5 1;
#X connect 4 0 6 0;
#X connect 5 0 0 0;
#X connect 6 0 7 0;
#X connect 7 0 9 0;
#X connect 8 0 1 0;
#X connect 9 0 10 0;
#X connect 11 0 12 0;
#X connect 12 0 14 0;
#X connect 13 0 8 0;
#X connect 14 0 8 0;
#X connect 16 0 2 0;
#X connect 17 0 3 0;
#X restore 174 518 pd prm.sensor;
#X obj 174 539 min~ 1;
#X obj 561 88 r fromGUI;
#X obj 561 109 route list;
#X obj 561 130 route /vibrato;
#X obj 492 38 r \$0-seed;
#X text 561 68 GUI: Vibrato toggle;
#X obj 92 677 send~ \$0-voice34;
#X obj 536 558 s \$0-trigger34;
#X obj 536 397 route /fast34;
#N canvas 980 504 257 325 tune3 0;
#X obj 50 221 line~;
#X obj 50 242 outlet~;
#X obj 50 179 mtof;
#X obj 50 52 r fromGUI;
#X obj 50 73 route list;
#X obj 50 94 route /tune3;
#X text 50 32 GUI: Tune knob 3;
#X obj 50 157 + 7;
#X obj 50 115 * 109;
#X obj 50 136 i;
#X msg 50 200 \$1 100;
#X connect 0 0 1 0;
#X connect 2 0 10 0;
#X connect 3 0 4 0;
#X connect 4 0 5 0;
#X connect 5 0 8 0;
#X connect 7 0 2 0;
#X connect 8 0 9 0;
#X connect 9 0 7 0;
#X connect 10 0 0 0;
#X restore 12 186 pd tune3;
#N canvas 980 504 257 300 tune4 0;
#X obj 40 211 line~;
#X obj 40 232 outlet~;
#X obj 40 169 mtof;
#X obj 40 42 r fromGUI;
#X obj 40 63 route list;
#X obj 40 84 route /tune4;
#X text 40 22 GUI: Tune knob 4;
#X obj 40 105 * 107;
#X obj 40 147 + 9;
#X obj 40 126 i;
#X msg 40 190 \$1 100;
#X connect 0 0 1 0;
#X connect 2 0 10 0;
#X connect 3 0 4 0;
#X connect 4 0 5 0;
#X connect 5 0 7 0;
#X connect 7 0 9 0;
#X connect 8 0 2 0;
#X connect 9 0 8 0;
#X connect 10 0 0 0;
#X restore 262 186 pd tune4;
#X obj 492 59 + 2;
#X obj 563 527 v \$0-attack34;
#X obj 619 507 v \$0-release34;
#X connect 0 0 1 1;
#X connect 0 0 17 1;
#X connect 0 0 6 1;
#X connect 1 0 3 0;
#X connect 2 0 3 0;
#X connect 3 0 5 0;
#X connect 5 0 4 0;
#X connect 5 0 48 0;
#X connect 6 0 8 1;
#X connect 7 0 8 1;
#X connect 8 0 5 1;
#X connect 9 0 49 0;
#X connect 10 0 12 1;
#X connect 11 0 50 0;
#X connect 12 0 9 1;
#X connect 12 0 11 0;
#X connect 13 0 12 0;
#X connect 14 0 19 0;
#X connect 14 1 3 0;
#X connect 15 0 16 0;
#X connect 16 0 17 0;
#X connect 17 0 2 1;
#X connect 17 0 7 1;
#X connect 18 0 19 0;
#X connect 18 0 55 0;
#X connect 19 0 3 1;
#X connect 20 0 25 1;
#X connect 20 0 24 1;
#X connect 24 0 30 0;
#X connect 24 0 32 0;
#X connect 25 0 31 0;
#X connect 25 0 33 0;
#X connect 26 0 29 1;
#X connect 27 0 29 0;
#X connect 28 0 49 1;
#X connect 28 0 50 1;
#X connect 29 0 36 0;
#X connect 29 0 44 0;
#X connect 30 0 9 0;
#X connect 30 0 49 0;
#X connect 31 0 11 1;
#X connect 31 0 50 0;
#X connect 32 0 30 1;
#X connect 33 0 31 1;
#X connect 34 0 38 0;
#X connect 35 0 38 0;
#X connect 36 0 49 1;
#X connect 36 0 50 1;
#X connect 37 0 40 0;
#X connect 38 0 37 0;
#X connect 39 0 27 0;
#X connect 40 0 39 0;
#X connect 41 0 45 0;
#X connect 41 1 46 0;
#X connect 42 0 67 0;
#X connect 42 1 68 0;
#X connect 43 0 62 0;
#X connect 43 1 41 0;
#X connect 44 0 33 1;
#X connect 44 0 32 1;
#X connect 45 0 42 0;
#X connect 46 0 42 0;
#X connect 47 0 26 0;
#X connect 48 0 61 0;
#X connect 49 0 1 0;
#X connect 49 1 2 0;
#X connect 50 0 6 0;
#X connect 50 1 7 0;
#X connect 51 0 52 0;
#X connect 52 0 63 0;
#X connect 54 0 55 0;
#X connect 54 1 8 1;
#X connect 55 0 8 0;
#X connect 56 0 57 0;
#X connect 57 0 58 0;
#X connect 58 0 47 0;
#X connect 59 0 66 0;
#X connect 63 0 43 0;
#X connect 64 0 24 0;
#X connect 65 0 25 0;
#X connect 66 0 35 0;
#X restore 182 185 pd lira.voice 3 4;
#N canvas 487 285 489 478 initializeParameters-page1 0;
#X obj 25 44 loadbang;
#X obj 25 86 send toGUI;
#X obj 155 44 loadbang;
#X obj 155 86 send toGUI;
#X obj 265 44 loadbang;
#X obj 265 86 send toGUI;
#X obj 25 124 loadbang;
#X obj 25 166 send toGUI;
#X obj 155 124 loadbang;
#X obj 155 166 send toGUI;
#X obj 265 124 loadbang;
#X obj 265 166 send toGUI;
#X obj 25 194 loadbang;
#X obj 25 236 send toGUI;
#X obj 155 194 loadbang;
#X obj 155 236 send toGUI;
#X obj 265 194 loadbang;
#X obj 265 236 send toGUI;
#X obj 375 194 loadbang;
#X obj 375 236 send toGUI;
#X obj 25 274 loadbang;
#X obj 25 316 send toGUI;
#X obj 155 274 loadbang;
#X obj 155 316 send toGUI;
#X obj 265 274 loadbang;
#X obj 265 316 send toGUI;
#X obj 375 274 loadbang;
#X obj 375 316 send toGUI;
#X obj 25 344 loadbang;
#X obj 25 386 send toGUI;
#X obj 155 344 loadbang;
#X obj 155 386 send toGUI;
#X obj 375 44 loadbang;
#X obj 375 86 send toGUI;
#X msg 25 64 list /totalFb 0;
#X msg 155 65 list /hold 0;
#X msg 265 65 list /vibrato 0;
#X msg 375 65 list /volume 1;
#X msg 265 145 list /source34 2;
#X msg 155 145 list /pitch 0.5;
#X msg 25 145 list /source12 2;
#X msg 25 215 list /mod12 0;
#X msg 155 215 list /sharp12 0.5;
#X msg 265 215 list /sharp34 0.5;
#X msg 375 215 list /mod34 0;
#X msg 375 295 list /tune4 0.5;
#X msg 265 295 list /tune3 0.5;
#X msg 155 295 list /tune2 0.6;
#X msg 25 295 list /tune1 0.4;
#X msg 25 365 list /fast12 0;
#X msg 155 365 list /fast34 0;
#X connect 0 0 34 0;
#X connect 2 0 35 0;
#X connect 4 0 36 0;
#X connect 6 0 40 0;
#X connect 8 0 39 0;
#X connect 10 0 38 0;
#X connect 12 0 41 0;
#X connect 14 0 42 0;
#X connect 16 0 43 0;
#X connect 18 0 44 0;
#X connect 20 0 48 0;
#X connect 22 0 47 0;
#X connect 24 0 46 0;
#X connect 26 0 45 0;
#X connect 28 0 49 0;
#X connect 30 0 50 0;
#X connect 32 0 37 0;
#X connect 34 0 1 0;
#X connect 35 0 3 0;
#X connect 36 0 5 0;
#X connect 37 0 33 0;
#X connect 38 0 11 0;
#X connect 39 0 9 0;
#X connect 40 0 7 0;
#X connect 41 0 13 0;
#X connect 42 0 15 0;
#X connect 43 0 17 0;
#X connect 44 0 19 0;
#X connect 45 0 27 0;
#X connect 46 0 25 0;
#X connect 47 0 23 0;
#X connect 48 0 21 0;
#X connect 49 0 29 0;
#X connect 50 0 31 0;
#X restore 482 219 pd initializeParameters-page1;
#N canvas 369 522 489 478 initializeParameters-page2 0;
#X obj 25 44 loadbang;
#X obj 25 86 send toGUI;
#X obj 195 44 loadbang;
#X obj 195 86 send toGUI;
#X msg 25 64 list /distortionDrive 0.5;
#X msg 195 65 list /distortionMix 0.5;
#X obj 25 134 loadbang;
#X obj 25 176 send toGUI;
#X obj 195 134 loadbang;
#X obj 195 176 send toGUI;
#X msg 25 154 list /delayWaveform 0;
#X msg 195 155 list /delaySource 2;
#X obj 325 134 loadbang;
#X obj 325 176 send toGUI;
#X msg 325 155 list /delayMod 0.1;
#X obj 25 204 loadbang;
#X obj 25 246 send toGUI;
#X obj 195 204 loadbang;
#X obj 195 246 send toGUI;
#X obj 325 204 loadbang;
#X obj 325 246 send toGUI;
#X msg 25 224 list /delayFb 0.5;
#X msg 195 225 list /delayMix 0.5;
#X msg 325 225 list /delayTime 0.5;
#X obj 25 294 loadbang;
#X obj 25 336 send toGUI;
#X obj 195 294 loadbang;
#X obj 195 336 send toGUI;
#X obj 25 364 loadbang;
#X obj 25 406 send toGUI;
#X obj 195 364 loadbang;
#X obj 195 406 send toGUI;
#X msg 195 315 list /lfoLink 0;
#X msg 25 314 list /lfoAndOr 0;
#X msg 25 384 list /lfoFreqA 0.6;
#X msg 195 385 list /lfoFreqB 0.7;
#X connect 0 0 4 0;
#X connect 2 0 5 0;
#X connect 4 0 1 0;
#X connect 5 0 3 0;
#X connect 6 0 10 0;
#X connect 8 0 11 0;
#X connect 10 0 7 0;
#X connect 11 0 9 0;
#X connect 12 0 14 0;
#X connect 14 0 13 0;
#X connect 15 0 21 0;
#X connect 17 0 22 0;
#X connect 19 0 23 0;
#X connect 21 0 16 0;
#X connect 22 0 18 0;
#X connect 23 0 20 0;
#X connect 24 0 33 0;
#X connect 26 0 32 0;
#X connect 28 0 34 0;
#X connect 30 0 35 0;
#X connect 32 0 27 0;
#X connect 33 0 25 0;
#X connect 34 0 29 0;
#X connect 35 0 31 0;
#X restore 482 239 pd initializeParameters-page2;
#X connect 1 0 2 0;
#X connect 2 0 3 0;
#X connect 2 1 7 0;
#X connect 3 0 4 0;
#X connect 4 0 5 0;
#X connect 5 0 6 0;
#X connect 7 0 3 1;
#X connect 8 0 20 0;
#X connect 8 0 20 1;
#X connect 9 0 25 0;
#X connect 9 0 22 0;
#X connect 9 1 10 1;
#X connect 9 2 10 2;
#X connect 10 0 8 0;
#X connect 11 0 12 0;
#X connect 12 0 13 0;
#X connect 15 0 23 0;
#X connect 16 0 17 0;
#X connect 17 0 18 0;
#X connect 19 0 21 2;
#X connect 19 0 27 2;
#X connect 21 0 26 0;
#X connect 22 0 21 0;
#X connect 23 0 14 0;
#X connect 24 0 21 1;
#X connect 24 0 27 1;
#X connect 25 0 27 0;
#X connect 26 0 10 0;
#X connect 27 0 26 0;
