#N canvas 356 22 808 1005 10;
#X declare -path ./abs;
#N canvas 187 660 763 300 gui.link 0;
#X obj 12 12 gui.link 1 \$0 fast-12;
#X obj 12 32 gui.link 2 \$0 fast-34;
#X obj 12 52 gui.link 3 \$0 fast-56;
#X obj 12 72 gui.link 4 \$0 fast-78;
#X obj 12 102 gui.link 5 \$0 tune-1;
#X obj 12 122 gui.link 6 \$0 tune-2;
#X obj 12 142 gui.link 7 \$0 tune-3;
#X obj 12 162 gui.link 8 \$0 tune-4;
#X obj 12 182 gui.link 9 \$0 tune-5;
#X obj 12 202 gui.link 10 \$0 tune-6;
#X obj 12 222 gui.link 11 \$0 tune-7;
#X obj 13 242 gui.link 12 \$0 tune-8;
#X obj 162 12 gui.link 13 \$0 sharp-12;
#X obj 162 72 gui.link 16 \$0 sharp-78;
#X obj 162 52 gui.link 15 \$0 sharp-56;
#X obj 162 32 gui.link 14 \$0 sharp-34;
#X obj 162 102 gui.link 17 \$0 mod-12;
#X obj 162 122 gui.link 18 \$0 mod-34;
#X obj 162 142 gui.link 19 \$0 mod-56;
#X obj 162 162 gui.link 20 \$0 mod-78;
#X obj 162 192 gui.link 21 \$0 source-12;
#X obj 162 212 gui.link 22 \$0 source-34;
#X obj 162 232 gui.link 23 \$0 source-56;
#X obj 162 252 gui.link 24 \$0 source-78;
#X obj 322 12 gui.link 25 \$0 pitch-1234;
#X obj 322 32 gui.link 26 \$0 pitch-5678;
#X obj 322 62 gui.link 27 \$0 hold-1234;
#X obj 322 82 gui.link 28 \$0 hold-5678;
#X obj 322 122 gui.link 29 \$0 switch;
#X obj 322 142 gui.link 30 \$0 total-fb;
#X obj 322 162 gui.link 31 \$0 vibrato;
#X obj 322 192 gui.link 32 \$0 f-a;
#X obj 322 212 gui.link 33 \$0 f-b;
#X obj 322 232 gui.link 34 \$0 andor;
#X obj 322 252 gui.link 35 \$0 link;
#X obj 482 12 gui.link 36 \$0 time-1;
#X obj 482 32 gui.link 37 \$0 time-2;
#X obj 482 72 gui.link 39 \$0 del-mix;
#X obj 482 52 gui.link 38 \$0 feedback;
#X obj 482 112 gui.link 40 \$0 mod-1;
#X obj 482 132 gui.link 41 \$0 mod-2;
#X obj 482 152 gui.link 42 \$0 del-mod;
#X obj 482 172 gui.link 43 \$0 lfo-wav;
#X obj 482 222 gui.link 45 \$0 dst-mix;
#X obj 482 242 gui.link 46 \$0 vol;
#X obj 482 202 gui.link 44 \$0 drv;
#X obj 482 262 gui.link 47 \$0 quantize;
#X restore -1 746 pd gui.link;
#X obj 25 1 cnv 24 358 24 empty empty LIRA•8 120 13 0 24 -1 -262144
0;
#X obj 0 1 bng 24 250 50 0 empty empty empty 17 7 0 10 -262144 -1 -1
;
#X obj 0 26 cnv 19 383 675 empty empty LIRA•8 308 195 0 20 -256626
-1 0;
#X obj 27 473 vsl 19 128 0 127 0 0 \$0-s-tune-1 \$0-r-tune-1 TUNE -5
-9 0 14 -262144 -1 -1 0 1;
#X obj 30 428 hsl 54 19 0 127 0 0 \$0-s-sharp-12 \$0-r-sharp-12 SHARP
5 -7 0 14 -1 -262144 -1 0 1;
#X obj 30 388 hsl 54 19 0 127 0 0 \$0-s-mod-12 \$0-r-mod-12 MOD 14
-7 0 14 -1 -262144 -1 0 1;
#X obj 67 473 vsl 19 128 0 127 0 0 \$0-s-tune-2 \$0-r-tune-2 TUNE -5
-9 0 14 -262144 -1 -1 0 1;
#X obj 48 619 tgl 17 0 \$0-s-fast-12 \$0-r-fast-12 FAST -5 -7 0 12
-262144 -1 -1 0 1;
#X obj 22 641 cnv 19 29 50 empty empty empty 20 12 0 14 -1 -66577 0
;
#X obj 27 665 tgl 19 0 \$0-s-sensor-1 \$0-r-sensor-1 1 5 -10 0 14 -262144
-1 -262144 0 1;
#X obj 62 641 cnv 19 29 50 empty empty empty 20 12 0 14 -1 -66577 0
;
#X obj 67 665 tgl 19 0 \$0-s-sensor-2 \$0-r-sensor-2 2 5 -10 0 14 -262144
-1 -262144 0 1;
#X obj 112 641 cnv 19 29 50 empty empty empty 20 12 0 14 -1 -66577
0;
#X obj 117 665 tgl 19 0 \$0-s-sensor-3 \$0-r-sensor-3 3 5 -10 0 14
-262144 -1 -262144 0 1;
#X obj 152 641 cnv 19 29 50 empty empty empty 20 12 0 14 -1 -66577
0;
#X obj 157 665 tgl 19 0 \$0-s-sensor-4 \$0-r-sensor-4 4 5 -10 0 14
-262144 -1 -262144 0 1;
#X obj 202 641 cnv 19 29 50 empty empty empty 20 12 0 14 -1 -66577
0;
#X obj 207 665 tgl 19 0 \$0-s-sensor-5 \$0-r-sensor-5 5 5 -10 0 14
-262144 -1 -262144 0 1;
#X obj 242 641 cnv 19 29 50 empty empty empty 20 12 0 14 -1 -66577
0;
#X obj 247 665 tgl 19 0 \$0-s-sensor-6 \$0-r-sensor-6 6 5 -10 0 14
-262144 -1 -262144 0 1;
#X obj 292 641 cnv 19 29 50 empty empty empty 20 12 0 14 -1 -66577
0;
#X obj 297 665 tgl 19 0 \$0-s-sensor-7 \$0-r-sensor-7 7 5 -10 0 14
-262144 -1 -262144 0 1;
#X obj 332 641 cnv 19 29 50 empty empty empty 20 12 0 14 -1 -66577
0;
#X obj 337 665 tgl 19 0 \$0-s-sensor-8 \$0-r-sensor-8 8 5 -10 0 14
-262144 -1 -262144 0 1;
#X obj 28 304 hsl 128 19 0 127 0 0 \$0-s-pitch-1234 \$0-r-pitch-1234
PITCH 40 -7 0 14 -1 -262144 -1 0 1;
#X obj 228 304 hsl 128 19 0 127 0 0 \$0-s-pitch-5678 \$0-r-pitch-5678
PITCH 40 -7 0 14 -1 -262144 -1 0 1;
#X obj 28 348 hradio 19 1 0 3 \$0-s-source-12 \$0-r-source-12 OFF 17
-7 0 14 -262144 -1 -1 1;
#X obj 117 473 vsl 19 128 0 127 0 0 \$0-s-tune-3 \$0-r-tune-3 TUNE
-5 -9 0 14 -262144 -1 -1 0 1;
#X obj 157 473 vsl 19 128 0 127 0 0 \$0-s-tune-4 \$0-r-tune-4 TUNE
-5 -10 0 14 -262144 -1 -1 0 1;
#X obj 207 473 vsl 19 128 0 127 0 0 \$0-s-tune-5 \$0-r-tune-5 TUNE
-5 -10 0 14 -262144 -1 -1 0 1;
#X obj 247 473 vsl 19 128 0 127 0 0 \$0-s-tune-6 \$0-r-tune-6 TUNE
-5 -10 0 14 -262144 -1 -1 0 1;
#X obj 297 473 vsl 19 128 0 127 0 0 \$0-s-tune-7 \$0-r-tune-7 TUNE
-5 -10 0 14 -262144 -1 -1 0 1;
#X obj 337 473 vsl 19 128 0 127 0 0 \$0-s-tune-8 \$0-r-tune-8 TUNE
-5 -10 0 14 -262144 -1 -1 0 1;
#X obj 120 428 hsl 54 19 0 127 0 0 \$0-s-sharp-34 \$0-r-sharp-34 SHARP
5 -7 0 14 -1 -262144 -1 0 1;
#X obj 210 428 hsl 54 19 0 127 0 0 \$0-s-sharp-56 \$0-r-sharp-56 SHARP
5 -7 0 14 -1 -262144 -1 0 1;
#X obj 300 428 hsl 54 19 0 127 0 0 \$0-s-sharp-78 \$0-r-sharp-78 SHARP
5 -7 0 14 -1 -262144 -1 0 1;
#X obj 120 388 hsl 54 19 0 127 0 0 \$0-s-mod-34 \$0-r-mod-34 MOD 14
-7 0 14 -1 -262144 -1 0 1;
#X obj 210 388 hsl 54 19 0 127 0 0 \$0-s-mod-56 \$0-r-mod-56 MOD 14
-7 0 14 -1 -262144 -1 0 1;
#X obj 300 388 hsl 54 19 0 127 0 0 \$0-s-mod-78 \$0-r-mod-78 MOD 14
-7 0 14 -1 -262144 -1 0 1;
#X obj 138 619 tgl 17 0 \$0-s-fast-34 \$0-r-fast-34 FAST -5 -7 0 12
-262144 -1 -1 0 1;
#X obj 228 619 tgl 17 0 \$0-s-fast-56 \$0-r-fast-56 FAST -5 -7 0 12
-262144 -1 -1 0 1;
#X obj 318 619 tgl 17 0 \$0-s-fast-78 \$0-r-fast-78 FAST -5 -7 0 12
-262144 -1 -1 0 1;
#X obj 100 440 cnv 3 3 200 empty empty empty 20 12 0 14 -1 -66577 0
;
#X obj 190 400 cnv 3 3 240 empty empty empty 20 12 0 14 -1 -66577 0
;
#X obj 370 400 cnv 3 3 240 empty empty empty 20 12 0 14 -1 -66577 0
;
#X obj 10 400 cnv 3 3 240 empty empty empty 20 12 0 14 -1 -66577 0
;
#X obj 87 436 cnv 3 29 3 empty empty empty 20 12 0 14 -1 -66577 0;
#X obj 177 396 cnv 3 29 3 empty empty empty 20 12 0 14 -1 -66577 0
;
#X obj 267 436 cnv 3 29 3 empty empty empty 20 12 0 14 -1 -66577 0
;
#X obj 10 396 cnv 3 16 3 empty empty empty 20 12 0 14 -1 -66577 0;
#X obj 357 396 cnv 3 16 3 empty empty empty 20 12 0 14 -1 -66577 0
;
#X obj 92 641 cnv 3 19 3 empty empty empty 20 12 0 14 -1 -66577 0;
#X obj 272 641 cnv 3 19 3 empty empty empty 20 12 0 14 -1 -66577 0
;
#X obj 182 641 cnv 3 19 3 empty empty empty 20 12 0 14 -1 -66577 0
;
#X obj 10 641 cnv 3 11 3 empty empty empty 20 12 0 14 -1 -66577 0;
#X obj 280 440 cnv 3 3 200 empty empty empty 20 12 0 14 -1 -66577 0
;
#X obj 362 641 cnv 3 11 3 empty empty empty 20 12 0 14 -1 -66577 0
;
#X obj 228 261 hsl 128 19 0 127 0 0 \$0-s-hold-5678 \$0-r-hold-5678
HOLD 45 -7 0 14 -1 -262144 -1 0 1;
#X obj 183 280 tgl 17 0 \$0-s-switch \$0-r-switch SWITCH -13 -7 0 12
-262144 -1 -1 0 1;
#X obj 153 235 tgl 17 0 \$0-s-total-fb \$0-r-total-fb TOTAL-FB -20
-7 0 12 -262144 -1 -1 0 1;
#X obj 223 234 tgl 17 0 \$0-s-vibrato \$0-r-vibrato VIBRATO -15 -7
0 12 -262144 -1 -1 0 1;
#X msg 398 768 8;
#X obj 398 789 until;
#X obj 398 810 i;
#X obj 428 810 + 1;
#X obj 398 852 t f f;
#X obj 398 925 list prepend;
#X obj 467 878 + 1;
#X obj 398 873 + 1;
#X obj 398 831 % 8;
#X obj 0 187 cnv 19 95 20 empty empty HYPER-LFO 5 11 0 14 -1 -262144
0;
#X obj 288 187 cnv 19 95 20 empty empty DISTORTION 10 11 0 14 -1 -262144
0;
#X obj 144 187 cnv 19 95 20 empty empty MOD-DELAY 12 11 0 14 -1 -262144
0;
#X obj 100 26 cnv 3 3 160 empty empty empty 20 12 0 14 -1 -66577 0
;
#X obj 280 26 cnv 3 3 160 empty empty empty 20 12 0 14 -1 -66577 0
;
#X obj 0 187 cnv 3 383 3 empty empty empty 20 12 0 14 -1 -66577 0;
#X obj 118 348 hradio 19 1 0 3 \$0-s-source-34 \$0-r-source-34 OFF
17 -7 0 14 -262144 -1 -1 1;
#X obj 208 348 hradio 19 1 0 3 \$0-s-source-56 \$0-r-source-56 OFF
17 -7 0 14 -262144 -1 -1 1;
#X obj 298 348 hradio 19 1 0 3 \$0-s-source-78 \$0-r-source-78 OFF
17 -7 0 14 -262144 -1 -1 1;
#X obj 28 261 hsl 128 19 0 127 0 0 \$0-s-hold-1234 \$0-r-hold-1234
HOLD 45 -7 0 14 -1 -262144 -1 0 1;
#X obj 398 946 route 1 2 3 4 5 6 7 8;
#X msg 398 904 receive $\\\$0-tune-\\\$1;
#X obj 109 162 hradio 19 1 0 2 \$0-s-lfo-wav \$0-r-lfo-wav TRI 0 -8
0 14 -1 -262144 -1 0;
#X obj 109 126 hradio 19 1 0 3 \$0-s-del-mod \$0-r-del-mod LFO 0 -7
0 14 -1 -262144 -1 2;
#X obj 177 88 hsl 95 19 0 127 0 0 \$0-s-time-2 \$0-r-time-2 TIME-2
23 -7 0 14 -1 -262144 -1 0 1;
#X obj 112 88 hsl 54 19 0 127 0 0 \$0-s-mod-2 \$0-r-mod-2 MOD-2 6 -7
0 14 -1 -262144 -1 0 1;
#X obj 177 52 hsl 95 19 0 127 0 0 \$0-s-time-1 \$0-r-time-1 TIME-1
23 -8 0 14 -1 -262144 -1 0 1;
#X obj 112 52 hsl 54 19 0 127 0 0 \$0-s-mod-1 \$0-r-mod-1 MOD-1 6 -7
0 14 -1 -262144 -1 0 1;
#X obj 354 50 vsl 19 128 0 127 0 0 \$0-s-vol \$0-r-vol VOL -2 -9 0
14 -1 -262144 -1 0 1;
#X obj 324 50 vsl 19 128 0 127 0 0 \$0-s-dst-mix \$0-r-dst-mix MIX
-2 -9 0 14 -1 -262144 -1 0 1;
#X obj 294 50 vsl 19 128 0 127 0 0 \$0-s-drv \$0-r-drv DRV -2 -9 0
14 -1 -262144 -1 0 1;
#X obj 38 49 vsl 19 128 0 127 0 0 \$0-s-f-b \$0-r-f-b F-B -2 -9 0 14
-1 -262144 -1 0 1;
#X obj 8 49 vsl 19 128 0 127 0 0 \$0-s-f-a \$0-r-f-a F-A -2 -9 0 14
-1 -228856 -1 0 1;
#X obj 68 47 vradio 19 1 0 2 \$0-s-andor \$0-r-andor OR 2 -7 0 14 -1
-262144 -1 1;
#X obj 68 96 bng 19 50 10 0 empty \$0-r-led empty 17 7 0 10 -1 -4034
-1;
#X obj 310 228 cnv 15 15 15 empty empty ORGANISMIC 0 8 0 12 -256626
-1 0;
#X obj 312 240 cnv 15 15 15 empty empty SYNTHESIZER 0 8 0 10 -256626
-1 0;
#X obj 55 408 cnv 4 4 4 empty empty empty 20 12 0 14 -1 -66577 0;
#X obj -1 726 declare -path ./abs;
#X obj 87 396 cnv 3 10 3 empty empty empty 20 12 0 14 -1 -66577 0;
#X obj 106 396 cnv 3 10 3 empty empty empty 20 12 0 14 -1 -66577 0
;
#X obj 86 356 cnv 3 11 3 empty empty empty 20 12 0 14 -1 -66577 0;
#X obj 106 356 cnv 3 11 3 empty empty empty 20 12 0 14 -1 -66577 0
;
#X obj 94 360 cnv 3 3 35 empty empty empty 20 12 0 14 -1 -66577 0;
#X obj 106 360 cnv 3 3 35 empty empty empty 20 12 0 14 -1 -66577 0
;
#X obj 267 396 cnv 3 10 3 empty empty empty 20 12 0 14 -1 -66577 0
;
#X obj 286 396 cnv 3 10 3 empty empty empty 20 12 0 14 -1 -66577 0
;
#X obj 266 356 cnv 3 11 3 empty empty empty 20 12 0 14 -1 -66577 0
;
#X obj 286 356 cnv 3 11 3 empty empty empty 20 12 0 14 -1 -66577 0
;
#X obj 274 360 cnv 3 3 35 empty empty empty 20 12 0 14 -1 -66577 0
;
#X obj 286 360 cnv 3 3 35 empty empty empty 20 12 0 14 -1 -66577 0
;
#X text 168 297 34 > 56;
#X text 168 307 78 > 12;
#X obj 68 146 tgl 19 0 \$0-s-link \$0-r-link LINK -4 -8 0 14 -1 -262144
-1 0 1;
#X obj 41 408 cnv 4 4 4 empty empty empty 20 12 0 14 -1 -66577 0;
#X obj 68 408 cnv 4 4 4 empty empty empty 20 12 0 14 -1 -66577 0;
#X obj 28 408 cnv 4 4 4 empty empty empty 20 12 0 14 -1 -66577 0;
#X obj 81 408 cnv 4 4 4 empty empty empty 20 12 0 14 -1 -66577 0;
#X obj 145 408 cnv 4 4 4 empty empty empty 20 12 0 14 -1 -66577 0;
#X obj 131 408 cnv 4 4 4 empty empty empty 20 12 0 14 -1 -66577 0;
#X obj 158 408 cnv 4 4 4 empty empty empty 20 12 0 14 -1 -66577 0;
#X obj 118 408 cnv 4 4 4 empty empty empty 20 12 0 14 -1 -66577 0;
#X obj 171 408 cnv 4 4 4 empty empty empty 20 12 0 14 -1 -66577 0;
#X obj 235 408 cnv 4 4 4 empty empty empty 20 12 0 14 -1 -66577 0;
#X obj 221 408 cnv 4 4 4 empty empty empty 20 12 0 14 -1 -66577 0;
#X obj 248 408 cnv 4 4 4 empty empty empty 20 12 0 14 -1 -66577 0;
#X obj 208 408 cnv 4 4 4 empty empty empty 20 12 0 14 -1 -66577 0;
#X obj 261 408 cnv 4 4 4 empty empty empty 20 12 0 14 -1 -66577 0;
#X obj 325 408 cnv 4 4 4 empty empty empty 20 12 0 14 -1 -66577 0;
#X obj 311 408 cnv 4 4 4 empty empty empty 20 12 0 14 -1 -66577 0;
#X obj 338 408 cnv 4 4 4 empty empty empty 20 12 0 14 -1 -66577 0;
#X obj 298 408 cnv 4 4 4 empty empty empty 20 12 0 14 -1 -66577 0;
#X obj 351 408 cnv 4 4 4 empty empty empty 20 12 0 14 -1 -66577 0;
#X obj 55 448 cnv 4 4 4 empty empty empty 20 12 0 14 -1 -66577 0;
#X obj 41 448 cnv 4 4 4 empty empty empty 20 12 0 14 -1 -66577 0;
#X obj 68 448 cnv 4 4 4 empty empty empty 20 12 0 14 -1 -66577 0;
#X obj 28 448 cnv 4 4 4 empty empty empty 20 12 0 14 -1 -66577 0;
#X obj 81 448 cnv 4 4 4 empty empty empty 20 12 0 14 -1 -66577 0;
#X obj 145 448 cnv 4 4 4 empty empty empty 20 12 0 14 -1 -66577 0;
#X obj 131 448 cnv 4 4 4 empty empty empty 20 12 0 14 -1 -66577 0;
#X obj 158 448 cnv 4 4 4 empty empty empty 20 12 0 14 -1 -66577 0;
#X obj 118 448 cnv 4 4 4 empty empty empty 20 12 0 14 -1 -66577 0;
#X obj 171 448 cnv 4 4 4 empty empty empty 20 12 0 14 -1 -66577 0;
#X obj 235 448 cnv 4 4 4 empty empty empty 20 12 0 14 -1 -66577 0;
#X obj 221 448 cnv 4 4 4 empty empty empty 20 12 0 14 -1 -66577 0;
#X obj 248 448 cnv 4 4 4 empty empty empty 20 12 0 14 -1 -66577 0;
#X obj 208 448 cnv 4 4 4 empty empty empty 20 12 0 14 -1 -66577 0;
#X obj 261 448 cnv 4 4 4 empty empty empty 20 12 0 14 -1 -66577 0;
#X obj 325 448 cnv 4 4 4 empty empty empty 20 12 0 14 -1 -66577 0;
#X obj 311 448 cnv 4 4 4 empty empty empty 20 12 0 14 -1 -66577 0;
#X obj 338 448 cnv 4 4 4 empty empty empty 20 12 0 14 -1 -66577 0;
#X obj 298 448 cnv 4 4 4 empty empty empty 20 12 0 14 -1 -66577 0;
#X obj 351 448 cnv 4 4 4 empty empty empty 20 12 0 14 -1 -66577 0;
#X obj 258 324 cnv 4 4 4 empty empty empty 20 12 0 14 -1 -66577 0;
#X obj 290 324 cnv 4 4 4 empty empty empty 20 12 0 14 -1 -66577 0;
#X obj 321 324 cnv 4 4 4 empty empty empty 20 12 0 14 -1 -66577 0;
#X obj 353 324 cnv 4 4 4 empty empty empty 20 12 0 14 -1 -66577 0;
#X obj 226 324 cnv 4 4 4 empty empty empty 20 12 0 14 -1 -66577 0;
#X obj 58 324 cnv 4 4 4 empty empty empty 20 12 0 14 -1 -66577 0;
#X obj 90 324 cnv 4 4 4 empty empty empty 20 12 0 14 -1 -66577 0;
#X obj 121 324 cnv 4 4 4 empty empty empty 20 12 0 14 -1 -66577 0;
#X obj 153 324 cnv 4 4 4 empty empty empty 20 12 0 14 -1 -66577 0;
#X obj 26 324 cnv 4 4 4 empty empty empty 20 12 0 14 -1 -66577 0;
#X obj 258 281 cnv 4 4 4 empty empty empty 20 12 0 14 -1 -66577 0;
#X obj 290 281 cnv 4 4 4 empty empty empty 20 12 0 14 -1 -66577 0;
#X obj 321 281 cnv 4 4 4 empty empty empty 20 12 0 14 -1 -66577 0;
#X obj 353 281 cnv 4 4 4 empty empty empty 20 12 0 14 -1 -66577 0;
#X obj 226 281 cnv 4 4 4 empty empty empty 20 12 0 14 -1 -66577 0;
#X obj 58 281 cnv 4 4 4 empty empty empty 20 12 0 14 -1 -66577 0;
#X obj 90 281 cnv 4 4 4 empty empty empty 20 12 0 14 -1 -66577 0;
#X obj 121 281 cnv 4 4 4 empty empty empty 20 12 0 14 -1 -66577 0;
#X obj 153 281 cnv 4 4 4 empty empty empty 20 12 0 14 -1 -66577 0;
#X obj 26 281 cnv 4 4 4 empty empty empty 20 12 0 14 -1 -66577 0;
#X obj 156 146 cnv 3 3 24 empty empty empty 20 12 0 14 -1 -66577 0
;
#X obj 148 170 cnv 3 11 3 empty empty empty 20 12 0 14 -1 -66577 0
;
#X obj 177 162 hsl 95 19 0 127 0 0 \$0-s-del-mix \$0-r-del-mix MIX
35 -7 0 14 -1 -262144 -1 0 1;
#X obj 177 126 hsl 95 19 0 127 0 0 \$0-s-feedback \$0-r-feedback FEEDBACK
16 -7 0 14 -1 -262144 -1 0 1;
#X obj -1 804 text define -k \$0-tune;
#A set -16 93 \; -16 93 \; 7 109 \; 9 107 \; 20 116.54 \; 20 116.54
\; 33 126.24 \; 33 131.22 \;;
#X obj -1 834 loadbang;
#X obj -1 855 t b b;
#X obj -1 897 realtime;
#X obj -1 918 * 1000;
#X obj -1 939 i;
#X obj -1 960 s \$0-seed;
#X obj 44 876 del 200;
#X obj 394 526 lira.voice \$0 1 2;
#X obj 424 578 lira.voice \$0 3 4;
#X obj 584 526 lira.voice \$0 5 6;
#X obj 614 578 lira.voice \$0 7 8;
#X obj 394 422 prm.source \$0 1 2 3 4 7 8;
#X obj 404 552 prm.source \$0 3 4 1 2 1 2;
#X obj 584 422 prm.source \$0 5 6 7 8 3 4;
#X obj 594 552 prm.source \$0 7 8 5 6 5 6;
#N canvas 789 216 438 510 hyper-lfo 0;
#X obj 12 179 phasor~;
#X obj 292 418 phasor~;
#X obj 197 339 *~;
#X obj 197 402 *~;
#N canvas 654 271 320 351 triangle-lfo 0;
#X obj 12 211 /~ 2;
#X obj 12 12 inlet~;
#X obj 33 38 loadbang;
#X msg 33 59 1;
#X obj 33 80 -~;
#X obj 12 101 min~;
#X obj 12 122 *~ 4;
#X obj 12 143 -~ 1;
#X obj 179 38 inlet~;
#X obj 200 64 loadbang;
#X msg 200 85 1;
#X obj 200 106 -~;
#X obj 179 127 min~;
#X obj 179 148 *~ 4;
#X obj 179 169 -~ 1;
#X obj 12 232 s~ \$0-del-tri 0;
#X connect 0 0 15 0;
#X connect 1 0 4 1;
#X connect 1 0 5 0;
#X connect 2 0 3 0;
#X connect 3 0 4 0;
#X connect 4 0 5 1;
#X connect 5 0 6 0;
#X connect 6 0 7 0;
#X connect 7 0 0 0;
#X connect 8 0 11 1;
#X connect 8 0 12 0;
#X connect 9 0 10 0;
#X connect 10 0 11 0;
#X connect 11 0 12 1;
#X connect 12 0 13 0;
#X connect 13 0 14 0;
#X connect 14 0 0 0;
#X restore 12 474 pd triangle-lfo;
#N canvas 464 83 568 346 square-lfo 0;
#X obj 179 74 *~ 1000;
#X obj 179 95 clip~ -1 1;
#X obj 12 111 *~;
#X obj 12 174 *~;
#X obj 27 153 == 0;
#X obj 179 179 *~;
#X obj 211 211 snapshot~;
#X obj 179 137 /~ 2;
#X obj 211 232 change;
#X obj 211 274 s \$0-r-led;
#X obj 12 195 +~;
#X obj 12 12 inlet~;
#X obj 179 32 inlet~;
#X obj 12 236 s~ \$0-sqr-lfo 0;
#X obj 275 153 s~ \$0-del-sqr 0;
#X obj 211 190 bang~;
#X obj 211 253 sel 1 -1;
#X obj 179 53 cos~;
#X obj 194 158 r \$0-andor;
#X obj 27 132 r \$0-andor;
#X connect 0 0 1 0;
#X connect 1 0 2 1;
#X connect 1 0 7 0;
#X connect 2 0 3 0;
#X connect 3 0 10 0;
#X connect 4 0 3 1;
#X connect 5 0 10 1;
#X connect 6 0 8 0;
#X connect 7 0 5 0;
#X connect 7 0 14 0;
#X connect 8 0 16 0;
#X connect 10 0 6 0;
#X connect 10 0 13 0;
#X connect 11 0 2 0;
#X connect 11 0 7 0;
#X connect 12 0 17 0;
#X connect 15 0 6 0;
#X connect 16 0 9 0;
#X connect 16 1 9 0;
#X connect 17 0 0 0;
#X connect 18 0 5 1;
#X connect 19 0 4 0;
#X restore 72 434 pd square-lfo;
#X obj 72 226 *~ 1000;
#X obj 72 247 clip~ -1 1;
#X obj 12 32 / 127;
#X obj 12 95 - 75;
#X obj 12 116 mtof;
#X obj 12 158 line~;
#X obj 292 198 / 127;
#X obj 292 260 - 75;
#X obj 292 281 mtof;
#X obj 292 323 line~;
#X obj 292 219 pow 2;
#X obj 292 239 * 127;
#X obj 12 53 pow 2;
#X obj 12 74 * 127;
#X obj 197 360 /~ 2;
#X obj 72 205 cos~;
#X msg 12 137 \$1 23.22;
#X msg 292 302 \$1 23.22;
#X obj 12 11 r \$0-f-a;
#X obj 292 177 r \$0-f-b;
#X obj 212 381 r \$0-link;
#X connect 0 0 4 0;
#X connect 0 0 21 0;
#X connect 1 0 4 1;
#X connect 1 0 5 1;
#X connect 2 0 20 0;
#X connect 3 0 1 0;
#X connect 6 0 7 0;
#X connect 7 0 2 0;
#X connect 7 0 5 0;
#X connect 8 0 18 0;
#X connect 9 0 10 0;
#X connect 10 0 22 0;
#X connect 11 0 0 0;
#X connect 12 0 16 0;
#X connect 13 0 14 0;
#X connect 14 0 23 0;
#X connect 15 0 2 1;
#X connect 15 0 1 0;
#X connect 16 0 17 0;
#X connect 17 0 13 0;
#X connect 18 0 19 0;
#X connect 19 0 9 0;
#X connect 20 0 3 0;
#X connect 21 0 6 0;
#X connect 22 0 11 0;
#X connect 23 0 15 0;
#X connect 24 0 8 0;
#X connect 25 0 12 0;
#X connect 26 0 3 1;
#X restore 394 401 pd hyper-lfo;
#X obj 443 448 prm.pitch \$0 1 2 3 4;
#X obj 633 445 prm.pitch \$0 5 6 7 8;
#N canvas 457 110 898 773 delay 0;
#X obj 12 492 inlet~;
#X obj 12 739 outlet~;
#X obj 177 105 / 127;
#X msg 177 147 2 \$1;
#X obj 177 168 pow;
#X obj 177 189 * 1.45125;
#X obj 177 231 line~;
#X msg 177 210 \$1 23.22;
#X obj 162 534 +~;
#X obj 177 126 * 12;
#X obj 162 555 delwrite~ \$0-mod-delay-1 5944;
#X obj 177 273 vd~ \$0-mod-delay-1;
#X obj 192 336 loadbang;
#X obj 177 404 compressor~;
#X obj 192 378 unpack f f f f;
#X obj 202 425 loadbang;
#X obj 177 488 expander~;
#X obj 202 467 unpack f f;
#X obj 92 518 +~;
#X obj 107 476 noise~;
#X obj 290 351 / 127;
#X obj 290 372 t f f;
#X obj 290 393 * 2;
#X msg 290 414 2 \$1;
#X obj 290 435 pow;
#X obj 290 456 *;
#X msg 290 477 \$1 23.22;
#X obj 290 498 line~;
#X obj 177 514 *~;
#X obj 177 294 hip~ 1;
#X obj 177 315 lop~ 4000;
#X obj 269 2 vd~ \$0-mod-delay-1;
#X obj 322 142 *~;
#X obj 337 121 == 0;
#X obj 372 162 *~;
#X obj 322 178 +~;
#X obj 269 95 *~;
#X obj 322 199 *~;
#X obj 402 183 == 2;
#X obj 284 74 == 0;
#X obj 269 215 +~;
#X obj 269 236 *~;
#X obj 500 136 / 127;
#X obj 500 157 pow 2;
#X obj 500 178 * 10;
#X msg 500 199 \$1 23.22;
#X obj 500 220 line~;
#X obj 177 252 +~;
#X obj 794 115 / 127;
#X msg 794 157 2 \$1;
#X obj 794 178 pow;
#X obj 794 199 * 1.45125;
#X obj 794 241 line~;
#X msg 794 220 \$1 23.22;
#X obj 541 534 +~;
#X obj 794 136 * 12;
#X obj 586 341 loadbang;
#X obj 571 409 compressor~;
#X obj 586 383 unpack f f f f;
#X obj 596 430 loadbang;
#X obj 571 493 expander~;
#X obj 596 472 unpack f f;
#X obj 556 514 *~;
#X obj 571 299 hip~ 1;
#X obj 571 320 lop~ 4000;
#X obj 586 194 *~;
#X obj 601 173 == 0;
#X obj 571 215 +~;
#X obj 571 236 *~;
#X obj 708 136 / 127;
#X obj 708 157 pow 2;
#X obj 708 178 * 10;
#X msg 708 199 \$1 23.22;
#X obj 708 220 line~;
#X obj 571 257 +~;
#X obj 586 80 vd~ \$0-mod-delay-2;
#X obj 541 555 delwrite~ \$0-mod-delay-2 5944;
#X obj 571 278 vd~ \$0-mod-delay-2;
#X obj 400 563 +~;
#X obj 27 655 -~;
#X obj 12 676 *~;
#X obj 77 597 / 127;
#X msg 77 618 \$1 23.22;
#X obj 77 639 line~;
#X obj 385 655 *~;
#X obj 12 718 +~;
#X obj 586 101 /~ 2;
#X obj 269 23 /~ 2;
#X obj 586 122 lop~ 689;
#X obj 269 116 lop~ 689;
#X obj 322 79 r~ \$0-del-tri;
#X obj 372 120 r~ \$0-del-sqr;
#X obj 107 497 *~ 0.001;
#X msg 202 445 -60 5;
#X msg 596 450 -60 5;
#X msg 192 357 2.5 2.5 -12 5;
#X msg 586 362 2.5 2.5 -12 5;
#X obj 462 589 /~;
#X obj 462 568 sig~ 1;
#X obj 400 605 *~;
#X obj 400 626 ma.tanh~;
#X obj 477 547 max~ 1.5;
#X obj 177 85 r \$0-time-1;
#X obj 284 53 r \$0-del-mod;
#X obj 337 100 r \$0-lfo-wav;
#X obj 387 141 r \$0-lfo-wav;
#X obj 402 162 r \$0-del-mod;
#X obj 708 115 r \$0-mod-2;
#X obj 794 95 r \$0-time-2;
#X obj 290 330 r \$0-feedback;
#X obj 77 576 r \$0-del-mix;
#X obj 601 152 r \$0-del-mod;
#X obj 500 115 r \$0-mod-1;
#X obj 400 584 /~ 1;
#X obj 12 697 *~ 0.7;
#X obj 26 613 loadbang;
#X msg 26 634 1;
#X connect 0 0 18 0;
#X connect 0 0 80 0;
#X connect 2 0 9 0;
#X connect 3 0 4 0;
#X connect 4 0 5 0;
#X connect 5 0 7 0;
#X connect 6 0 47 0;
#X connect 7 0 6 0;
#X connect 8 0 10 0;
#X connect 9 0 3 0;
#X connect 11 0 29 0;
#X connect 12 0 95 0;
#X connect 13 0 16 0;
#X connect 14 0 13 1;
#X connect 14 1 13 2;
#X connect 14 2 13 3;
#X connect 14 3 13 4;
#X connect 15 0 93 0;
#X connect 16 0 28 0;
#X connect 16 0 78 0;
#X connect 17 0 16 1;
#X connect 17 1 16 2;
#X connect 18 0 8 0;
#X connect 18 0 54 0;
#X connect 19 0 92 0;
#X connect 20 0 21 0;
#X connect 21 0 22 0;
#X connect 21 1 25 1;
#X connect 22 0 23 0;
#X connect 23 0 24 0;
#X connect 24 0 25 0;
#X connect 25 0 26 0;
#X connect 26 0 27 0;
#X connect 27 0 28 1;
#X connect 27 0 62 0;
#X connect 27 0 101 0;
#X connect 28 0 8 1;
#X connect 29 0 30 0;
#X connect 30 0 13 0;
#X connect 31 0 87 0;
#X connect 32 0 35 0;
#X connect 33 0 32 1;
#X connect 34 0 35 1;
#X connect 35 0 37 0;
#X connect 36 0 89 0;
#X connect 37 0 40 1;
#X connect 37 0 67 0;
#X connect 38 0 37 1;
#X connect 39 0 36 1;
#X connect 40 0 41 0;
#X connect 41 0 47 1;
#X connect 42 0 43 0;
#X connect 43 0 44 0;
#X connect 44 0 45 0;
#X connect 45 0 46 0;
#X connect 46 0 41 1;
#X connect 47 0 11 0;
#X connect 48 0 55 0;
#X connect 49 0 50 0;
#X connect 50 0 51 0;
#X connect 51 0 53 0;
#X connect 52 0 74 1;
#X connect 53 0 52 0;
#X connect 54 0 76 0;
#X connect 55 0 49 0;
#X connect 56 0 96 0;
#X connect 57 0 60 0;
#X connect 58 0 57 1;
#X connect 58 1 57 2;
#X connect 58 2 57 3;
#X connect 58 3 57 4;
#X connect 59 0 94 0;
#X connect 60 0 62 1;
#X connect 60 0 78 1;
#X connect 61 0 60 1;
#X connect 61 1 60 2;
#X connect 62 0 54 1;
#X connect 63 0 64 0;
#X connect 64 0 57 0;
#X connect 65 0 67 1;
#X connect 66 0 65 1;
#X connect 67 0 68 0;
#X connect 68 0 74 0;
#X connect 69 0 70 0;
#X connect 70 0 71 0;
#X connect 71 0 72 0;
#X connect 72 0 73 0;
#X connect 73 0 68 1;
#X connect 74 0 77 0;
#X connect 75 0 86 0;
#X connect 77 0 63 0;
#X connect 78 0 113 0;
#X connect 79 0 80 1;
#X connect 80 0 114 0;
#X connect 81 0 82 0;
#X connect 82 0 83 0;
#X connect 83 0 84 0;
#X connect 83 0 79 1;
#X connect 84 0 85 1;
#X connect 85 0 1 0;
#X connect 86 0 88 0;
#X connect 87 0 36 0;
#X connect 88 0 65 0;
#X connect 89 0 40 0;
#X connect 90 0 32 0;
#X connect 91 0 34 0;
#X connect 92 0 18 1;
#X connect 93 0 17 0;
#X connect 94 0 61 0;
#X connect 95 0 14 0;
#X connect 96 0 58 0;
#X connect 97 0 99 1;
#X connect 98 0 97 0;
#X connect 99 0 100 0;
#X connect 100 0 84 1;
#X connect 101 0 97 1;
#X connect 102 0 2 0;
#X connect 103 0 39 0;
#X connect 104 0 33 0;
#X connect 105 0 34 1;
#X connect 106 0 38 0;
#X connect 107 0 69 0;
#X connect 108 0 48 0;
#X connect 109 0 20 0;
#X connect 110 0 81 0;
#X connect 111 0 66 0;
#X connect 112 0 42 0;
#X connect 113 0 99 0;
#X connect 114 0 85 0;
#X connect 115 0 116 0;
#X connect 116 0 79 0;
#X restore 394 655 pd delay;
#X obj 109 848 r \$0-s-dsp;
#X msg 109 869 dsp \$1;
#X obj 109 890 s pd;
#X obj 109 960 print -n;
#X obj 109 918 loadbang;
#X obj 179 848 loadbang;
#X msg 179 869 1;
#X obj 179 890 s \$0-r-dsp;
#X obj 556 711 notein;
#X obj 556 732 pack f f;
#X obj 556 796 clone -s 1 note 8 \$0;
#X obj 556 753 list prepend all;
#X obj 556 774 list trim;
#X msg 109 939 LIRA-8 by Mike Moreno DSP 2020;
#X obj 394 697 dac~ 1 2;
#N canvas 587 244 893 572 labels 0;
#X obj 39 227 s \$0-r-source-12;
#X obj 39 80 text get \$0-source-12-label;
#X obj 12 12 text define -k \$0-source-12-label;
#A set 1 34 20 \; 2 OFF 20 \; 2 LFO-CV 4 \;;
#X msg 39 206 label \$1;
#X obj 39 185 makefilename %s;
#X obj 39 143 route 1 2;
#X obj 64 164 symbol;
#X msg 39 122 \$1 \$2;
#X obj 39 101 t a a;
#X obj 107 138 s \$0-r-source-12;
#X msg 259 206 label \$1;
#X obj 259 185 makefilename %s;
#X obj 259 143 route 1 2;
#X obj 284 164 symbol;
#X msg 259 122 \$1 \$2;
#X obj 259 101 t a a;
#X msg 39 476 label \$1;
#X obj 39 455 makefilename %s;
#X obj 39 413 route 1 2;
#X obj 64 434 symbol;
#X msg 39 392 \$1 \$2;
#X obj 39 371 t a a;
#X msg 259 476 label \$1;
#X obj 259 455 makefilename %s;
#X obj 259 413 route 1 2;
#X obj 284 434 symbol;
#X msg 259 392 \$1 \$2;
#X obj 259 371 t a a;
#X obj 259 227 s \$0-r-source-34;
#X obj 39 497 s \$0-r-source-56;
#X obj 259 497 s \$0-r-source-78;
#X obj 39 350 text get \$0-source-56-label;
#X obj 259 350 text get \$0-source-78-label;
#X obj 232 282 text define -k \$0-source-78-label;
#A set 1 56 20 \; 2 OFF 20 \; 2 LFO-CV 4 \;;
#X obj 12 282 text define -k \$0-source-56-label;
#A set 1 78 20 \; 2 OFF 20 \; 2 LFO-CV 4 \;;
#X obj 232 12 text define -k \$0-source-34-label;
#A set 1 12 20 \; 2 OFF 20 \; 2 LFO-CV 4 \;;
#X obj 259 80 text get \$0-source-34-label;
#X obj 327 138 s \$0-r-source-34;
#X obj 107 408 s \$0-r-source-56;
#X obj 327 408 s \$0-r-source-78;
#X obj 479 101 t a a;
#X obj 452 12 text define -k \$0-andor-label;
#A set AND -2 \; OR 2 \;;
#X obj 479 80 text get \$0-andor-label;
#X obj 479 143 symbol;
#X obj 479 185 s \$0-r-andor;
#X msg 479 164 label \$1;
#X obj 547 138 s \$0-r-andor;
#X msg 479 122 \$1;
#X obj 679 122 symbol;
#X msg 679 143 label \$1;
#X msg 679 101 \$1;
#X obj 679 164 s \$0-r-del-mod;
#X obj 629 391 symbol;
#X msg 629 412 label \$1;
#X msg 629 370 \$1;
#X obj 629 433 s \$0-r-lfo-wav;
#X msg 547 117 label_pos \$2 -7;
#X msg 107 387 label_pos \$3 -7;
#X msg 327 387 label_pos \$3 -7;
#X msg 327 117 label_pos \$3 -7;
#X msg 107 117 label_pos \$3 -7;
#X obj 12 59 t b a;
#X obj 232 59 t b a;
#X obj 452 59 t b a;
#X obj 652 59 t b a;
#X obj 12 329 t b a;
#X obj 232 329 t b a;
#X obj 602 329 t b a;
#X obj 12 248 s \$0-redraw;
#X obj 232 248 s \$0-redraw;
#X obj 452 206 s \$0-redraw;
#X obj 652 185 s \$0-redraw;
#X obj 12 518 s \$0-redraw;
#X obj 232 518 s \$0-redraw;
#X obj 602 454 s \$0-redraw;
#X obj 498 472 r \$0-redraw;
#X msg 498 493 gui redraw;
#X obj 498 514 s camomile;
#X obj 12 38 r \$0-source-12;
#X obj 232 38 r \$0-source-34;
#X obj 452 38 r \$0-andor;
#X obj 652 38 r \$0-del-mod;
#X obj 602 308 r \$0-lfo-wav;
#X obj 232 308 r \$0-source-78;
#X obj 12 308 r \$0-source-56;
#X obj 602 282 text define -k \$0-lfo-wav-label;
#A set TRI \; SQR \;;
#X obj 629 349 text get \$0-lfo-wav-label;
#X obj 679 80 text get \$0-del-mod-label;
#X obj 652 12 text define -k \$0-del-mod-label;
#A set SELF \; OFF \; LFO \;;
#X connect 1 0 8 0;
#X connect 3 0 0 0;
#X connect 4 0 3 0;
#X connect 5 0 4 0;
#X connect 5 1 6 0;
#X connect 6 0 3 0;
#X connect 7 0 5 0;
#X connect 8 0 7 0;
#X connect 8 1 60 0;
#X connect 10 0 28 0;
#X connect 11 0 10 0;
#X connect 12 0 11 0;
#X connect 12 1 13 0;
#X connect 13 0 10 0;
#X connect 14 0 12 0;
#X connect 15 0 14 0;
#X connect 15 1 59 0;
#X connect 16 0 29 0;
#X connect 17 0 16 0;
#X connect 18 0 17 0;
#X connect 18 1 19 0;
#X connect 19 0 16 0;
#X connect 20 0 18 0;
#X connect 21 0 20 0;
#X connect 21 1 57 0;
#X connect 22 0 30 0;
#X connect 23 0 22 0;
#X connect 24 0 23 0;
#X connect 24 1 25 0;
#X connect 25 0 22 0;
#X connect 26 0 24 0;
#X connect 27 0 26 0;
#X connect 27 1 58 0;
#X connect 31 0 21 0;
#X connect 32 0 27 0;
#X connect 36 0 15 0;
#X connect 40 0 47 0;
#X connect 40 1 56 0;
#X connect 42 0 40 0;
#X connect 43 0 45 0;
#X connect 45 0 44 0;
#X connect 47 0 43 0;
#X connect 48 0 49 0;
#X connect 49 0 51 0;
#X connect 50 0 48 0;
#X connect 52 0 53 0;
#X connect 53 0 55 0;
#X connect 54 0 52 0;
#X connect 56 0 46 0;
#X connect 57 0 38 0;
#X connect 58 0 39 0;
#X connect 59 0 37 0;
#X connect 60 0 9 0;
#X connect 61 0 68 0;
#X connect 61 1 1 0;
#X connect 62 0 69 0;
#X connect 62 1 36 0;
#X connect 63 0 70 0;
#X connect 63 1 42 0;
#X connect 64 0 71 0;
#X connect 64 1 87 0;
#X connect 65 0 72 0;
#X connect 65 1 31 0;
#X connect 66 0 73 0;
#X connect 66 1 32 0;
#X connect 67 0 74 0;
#X connect 67 1 86 0;
#X connect 75 0 76 0;
#X connect 76 0 77 0;
#X connect 78 0 61 0;
#X connect 79 0 62 0;
#X connect 80 0 63 0;
#X connect 81 0 64 0;
#X connect 82 0 67 0;
#X connect 83 0 66 0;
#X connect 84 0 65 0;
#X connect 86 0 54 0;
#X connect 87 0 50 0;
#X restore -1 766 pd labels;
#N canvas 1027 619 248 280 prm.hold 0;
#X obj 12 96 line~;
#X obj 12 117 outlet~;
#X msg 12 75 \$1 23.22;
#X obj 12 33 / 127;
#X obj 12 54 pow 2;
#X obj 12 12 r \$0-hold-1234;
#X connect 0 0 1 0;
#X connect 2 0 0 0;
#X connect 3 0 4 0;
#X connect 4 0 2 0;
#X connect 5 0 3 0;
#X restore 493 469 pd prm.hold;
#N canvas 1027 619 248 280 prm.hold 0;
#X obj 12 96 line~;
#X obj 12 117 outlet~;
#X msg 12 75 \$1 23.22;
#X obj 12 33 / 127;
#X obj 12 54 pow 2;
#X obj 12 12 r \$0-hold-5678;
#X connect 0 0 1 0;
#X connect 2 0 0 0;
#X connect 3 0 4 0;
#X connect 4 0 2 0;
#X connect 5 0 3 0;
#X restore 683 466 pd prm.hold;
#N canvas 559 314 372 653 master_output 0;
#X obj 275 488 / 127;
#X obj 275 572 line~;
#X obj 67 588 *~;
#X obj 12 176 inlet~;
#X obj 275 509 pow 2;
#X obj 67 609 outlet~;
#X obj 112 32 / 127;
#X obj 112 116 pow;
#X obj 112 158 + 100;
#X obj 112 179 dbtorms;
#X msg 112 200 \$1 23.22;
#X msg 275 551 \$1 23.22;
#X obj 112 221 line~;
#X obj 97 242 *~;
#X obj 97 284 ma.tanh~;
#X obj 207 401 / 127;
#X msg 207 422 \$1 23.22;
#X obj 207 443 line~;
#X obj 82 469 *~;
#X obj 27 459 -~;
#X obj 12 480 *~;
#X obj 67 506 +~;
#X obj 97 368 hip~ 10;
#X obj 112 74 + 1;
#X obj 97 347 +~;
#X obj 112 326 /~ 4;
#X obj 112 305 pow~ 31;
#X obj 97 263 hip~ 20;
#X obj 31 384 *~ 0.1;
#X obj 82 415 +~;
#X obj 87 527 ma.tanh~;
#X obj 87 569 s~ \$0-total-feedback;
#X msg 112 94 3 \$1;
#X obj 112 53 * 2;
#X obj 112 137 + 3;
#X obj 153 352 sig~ 1;
#X obj 153 373 /~;
#X obj 97 389 *~;
#X obj 168 331 clip~ 1 4;
#X obj 87 548 hip~ 3;
#X obj 275 467 r \$0-vol;
#X obj 112 11 r \$0-drv;
#X obj 207 380 r \$0-dst-mix;
#X obj 27 417 loadbang;
#X msg 27 438 1;
#X connect 0 0 4 0;
#X connect 1 0 2 1;
#X connect 2 0 5 0;
#X connect 3 0 20 0;
#X connect 3 0 13 0;
#X connect 3 0 28 0;
#X connect 4 0 11 0;
#X connect 6 0 33 0;
#X connect 7 0 34 0;
#X connect 8 0 9 0;
#X connect 9 0 10 0;
#X connect 10 0 12 0;
#X connect 11 0 1 0;
#X connect 12 0 13 1;
#X connect 12 0 38 0;
#X connect 13 0 27 0;
#X connect 14 0 24 0;
#X connect 14 0 26 0;
#X connect 15 0 16 0;
#X connect 16 0 17 0;
#X connect 17 0 18 1;
#X connect 17 0 19 1;
#X connect 18 0 21 1;
#X connect 19 0 20 1;
#X connect 20 0 21 0;
#X connect 21 0 30 0;
#X connect 21 0 2 0;
#X connect 22 0 37 0;
#X connect 23 0 32 0;
#X connect 24 0 22 0;
#X connect 25 0 24 1;
#X connect 26 0 25 0;
#X connect 27 0 14 0;
#X connect 28 0 29 0;
#X connect 29 0 18 0;
#X connect 30 0 39 0;
#X connect 32 0 7 0;
#X connect 33 0 23 0;
#X connect 34 0 8 0;
#X connect 35 0 36 0;
#X connect 36 0 37 1;
#X connect 37 0 29 1;
#X connect 38 0 36 1;
#X connect 39 0 31 0;
#X connect 40 0 0 0;
#X connect 41 0 6 0;
#X connect 42 0 15 0;
#X connect 43 0 44 0;
#X connect 44 0 19 0;
#X restore 394 676 pd master_output;
#X obj 24 234 tgl 17 0 \$0-s-quantize \$0-r-quantize QUANTIZE -18 -7
0 12 -262144 -1 -1 0 1;
#X obj 394 635 *~ 0.16;
#X connect 62 0 63 0;
#X connect 63 0 64 0;
#X connect 64 0 70 0;
#X connect 65 0 64 1;
#X connect 66 0 69 0;
#X connect 66 1 68 0;
#X connect 67 0 81 0;
#X connect 68 0 67 1;
#X connect 69 0 82 0;
#X connect 70 0 65 0;
#X connect 70 0 66 0;
#X connect 82 0 67 0;
#X connect 179 0 180 0;
#X connect 180 0 181 0;
#X connect 180 1 185 0;
#X connect 181 0 182 0;
#X connect 182 0 183 0;
#X connect 183 0 184 0;
#X connect 185 0 181 1;
#X connect 186 0 218 0;
#X connect 187 0 218 0;
#X connect 188 0 218 0;
#X connect 189 0 218 0;
#X connect 190 0 186 0;
#X connect 191 0 187 0;
#X connect 192 0 188 0;
#X connect 193 0 189 0;
#X connect 195 0 186 1;
#X connect 195 0 187 1;
#X connect 196 0 189 1;
#X connect 196 0 188 1;
#X connect 197 0 216 0;
#X connect 198 0 199 0;
#X connect 199 0 200 0;
#X connect 202 0 211 0;
#X connect 203 0 204 0;
#X connect 204 0 205 0;
#X connect 206 0 207 0;
#X connect 206 1 207 1;
#X connect 207 0 209 0;
#X connect 209 0 210 0;
#X connect 210 0 208 0;
#X connect 211 0 201 0;
#X connect 214 0 186 2;
#X connect 214 0 187 2;
#X connect 215 0 188 2;
#X connect 215 0 189 2;
#X connect 216 0 212 0;
#X connect 216 0 212 1;
#X connect 218 0 197 0;
#X coords 0 -1 1 1 385 702 2 -1 0;
