#N canvas 967 219 756 661 10;
#X obj 17 61 sel 0 1;
#X msg 17 103 0 \, destroy;
#X obj 17 40 tgl 16 0 empty empty empty 17 7 0 10 -262144 -1 -1 1 1
;
#X obj 150 471 cos~;
#X obj 190 471 cos~;
#X obj 190 450 -~ 0.25;
#N canvas 633 304 450 474 sig2pix~ 0;
#X obj 40 277 pix_texture;
#X obj 40 298 alpha 1;
#X obj 97 203 inlet~;
#X obj 40 203 inlet;
#X obj 97 224 clip~ 0 1;
#X obj 167 203 inlet~;
#X obj 167 224 clip~ 0 1;
#X obj 237 203 inlet~;
#X obj 237 224 clip~ 0 1;
#X obj 307 203 inlet~;
#X obj 307 224 clip~ 0 1;
#X obj 40 319 outlet;
#X obj 188 295 block~ 1024 2 1;
#X obj 40 256 pix_sig2pix~ 16 16;
#X connect 0 0 1 0;
#X connect 1 0 11 0;
#X connect 2 0 4 0;
#X connect 3 0 13 0;
#X connect 4 0 13 0;
#X connect 5 0 6 0;
#X connect 6 0 13 1;
#X connect 7 0 8 0;
#X connect 8 0 13 2;
#X connect 9 0 10 0;
#X connect 10 0 13 3;
#X connect 13 0 0 0;
#X restore 121 337 pd sig2pix~;
#X obj 136 274 /~ 2;
#X obj 136 295 +~ 0.5;
#X obj 151 316 phasor~ 0.5;
#X obj 136 253 osc~ 1;
#X obj 198 239 osc~ 20;
#X obj 198 260 *~ 10;
#X obj 198 281 clip~ 0 1;
#X obj 121 551 scopeXYZ~ 4096;
#X obj 202 530 phasor~ 689;
#X obj 504 232 gemhead -1;
#X obj 504 353 pix_snap2tex;
#X obj 549 306 t b b;
#X obj 504 313 t b a;
#X obj 504 391 alpha;
#X obj 549 287 loadbang;
#X msg 549 329 0 0;
#X obj 150 492 *~ 2;
#X obj 190 492 *~ 2;
#X msg 36 82 reset \, dimen 480 480 \, create \, 1;
#X msg 595 328 480 480;
#X obj 121 229 gemhead;
#X obj 326 216 bng 16 250 50 0 empty empty empty 17 7 0 10 -262144
-1 -1;
#X msg 326 237 open ./LIRA.wav \, start;
#X obj 326 258 readsf~;
#X obj 266 279 env~;
#X obj 17 124 gemwin 24;
#X obj 150 409 phasor~ 60;
#X obj 504 458 square 5;
#X obj 504 415 colorRGB 1 1 1 0.9;
#X obj 326 434 *~ 0.5;
#X obj 326 485 dac~ 1 2;
#X obj 335 36 loadbang;
#X msg 335 57 dsp 1;
#X obj 335 78 s pd;
#X obj 266 300 dbtorms;
#X msg 266 321 \$1 23.22;
#X obj 266 342 line~;
#X obj 266 384 clip~ 0 1;
#X obj 266 363 *~ 8;
#X connect 0 0 1 0;
#X connect 0 1 25 0;
#X connect 1 0 32 0;
#X connect 2 0 0 0;
#X connect 3 0 23 0;
#X connect 4 0 24 0;
#X connect 5 0 4 0;
#X connect 6 0 14 0;
#X connect 7 0 8 0;
#X connect 8 0 6 1;
#X connect 9 0 6 2;
#X connect 10 0 7 0;
#X connect 11 0 12 0;
#X connect 12 0 13 0;
#X connect 13 0 6 3;
#X connect 15 0 14 3;
#X connect 16 0 19 0;
#X connect 17 0 20 0;
#X connect 18 0 22 0;
#X connect 18 1 26 0;
#X connect 19 0 17 0;
#X connect 19 1 17 0;
#X connect 20 0 35 0;
#X connect 21 0 18 0;
#X connect 22 0 17 1;
#X connect 23 0 14 1;
#X connect 24 0 14 2;
#X connect 25 0 32 0;
#X connect 26 0 17 2;
#X connect 27 0 6 0;
#X connect 28 0 29 0;
#X connect 29 0 30 0;
#X connect 30 0 31 0;
#X connect 30 0 36 0;
#X connect 31 0 41 0;
#X connect 33 0 3 0;
#X connect 33 0 5 0;
#X connect 35 0 34 0;
#X connect 36 0 3 0;
#X connect 36 0 5 0;
#X connect 36 0 37 0;
#X connect 36 0 37 1;
#X connect 38 0 39 0;
#X connect 39 0 40 0;
#X connect 41 0 42 0;
#X connect 42 0 43 0;
#X connect 43 0 45 0;
#X connect 44 0 6 4;
#X connect 45 0 44 0;
