#N canvas 216 616 319 183 10;
#X obj 12 33 / 127;
#X obj 12 138 outlet~;
#X obj 12 117 line~;
#X obj 12 12 r \$1-s-pitch-\$2\$3\$4\$5;
#X obj 12 75 + 0.01;
#X obj 12 54 * 1.99;
#X msg 12 96 \$1 23.22;
#X connect 0 0 5 0;
#X connect 2 0 1 0;
#X connect 3 0 0 0;
#X connect 4 0 6 0;
#X connect 5 0 4 0;
#X connect 6 0 2 0;
