#N canvas 986 22 893 1036 10;
#X declare -path ./abs;
#X obj 0 26 cnv 19 383 675 empty empty LIRA•8 308 195 0 20 -256626
-1 0;
#X obj 27 473 vsl 19 128 0 127 0 0 \$0-s-tune-1 \$0-r-tune-1 TUNE -5
-9 0 14 -262144 -1 -1 0 1;
#X obj 30 428 hsl 54 19 0 127 0 0 \$0-s-sharp-12 \$0-r-sharp-12 SHARP
5 -7 0 14 -1 -262144 -1 0 1;
#X obj 30 388 hsl 54 19 0 127 0 0 \$0-s-mod-12 \$0-r-mod-12 MOD 14
-7 0 14 -1 -262144 -1 0 1;
#X obj 67 473 vsl 19 128 0 127 0 0 \$0-s-tune-2 \$0-r-tune-2 TUNE -5
-9 0 14 -262144 -1 -1 0 1;
#X obj 48 619 tgl 17 0 \$0-s-fast-12 \$0-r-fast-12 FAST -5 -7 0 12
-262144 -1 -1 0 1;
#X obj 22 641 cnv 19 29 50 empty empty empty 20 12 0 14 -1 -66577 0
;
#X obj 27 665 tgl 19 0 \$0-s-sensor-1 \$0-r-sensor-1 1 5 -10 0 14 -262144
-1 -262144 0 1;
#X obj 62 641 cnv 19 29 50 empty empty empty 20 12 0 14 -1 -66577 0
;
#X obj 67 665 tgl 19 0 \$0-s-sensor-2 \$0-r-sensor-2 2 5 -10 0 14 -262144
-1 -262144 0 1;
#X obj 112 641 cnv 19 29 50 empty empty empty 20 12 0 14 -1 -66577
0;
#X obj 117 665 tgl 19 0 \$0-s-sensor-3 \$0-r-sensor-3 3 5 -10 0 14
-262144 -1 -262144 0 1;
#X obj 152 641 cnv 19 29 50 empty empty empty 20 12 0 14 -1 -66577
0;
#X obj 157 665 tgl 19 0 \$0-s-sensor-4 \$0-r-sensor-4 4 5 -10 0 14
-262144 -1 -262144 0 1;
#X obj 202 641 cnv 19 29 50 empty empty empty 20 12 0 14 -1 -66577
0;
#X obj 207 665 tgl 19 0 \$0-s-sensor-5 \$0-r-sensor-5 5 5 -10 0 14
-262144 -1 -262144 0 1;
#X obj 242 641 cnv 19 29 50 empty empty empty 20 12 0 14 -1 -66577
0;
#X obj 247 665 tgl 19 0 \$0-s-sensor-6 \$0-r-sensor-6 6 5 -10 0 14
-262144 -1 -262144 0 1;
#X obj 292 641 cnv 19 29 50 empty empty empty 20 12 0 14 -1 -66577
0;
#X obj 297 665 tgl 19 0 \$0-s-sensor-7 \$0-r-sensor-7 7 5 -10 0 14
-262144 -1 -262144 0 1;
#X obj 332 641 cnv 19 29 50 empty empty empty 20 12 0 14 -1 -66577
0;
#X obj 337 665 tgl 19 0 \$0-s-sensor-8 \$0-r-sensor-8 8 5 -10 0 14
-262144 -1 -262144 0 1;
#X obj 28 304 hsl 128 19 0 127 0 0 \$0-s-pitch-1234 \$0-r-pitch-1234
PITCH 40 -7 0 14 -1 -262144 -1 0 1;
#X obj 228 304 hsl 128 19 0 127 0 0 \$0-s-pitch-5678 \$0-r-pitch-5678
PITCH 40 -7 0 14 -1 -262144 -1 0 1;
#X obj 28 348 hradio 19 1 0 3 \$0-s-source-12 \$0-r-source-12 LFO-CV
4 -7 0 14 -262144 -1 -1 2;
#X obj 117 473 vsl 19 128 0 127 0 0 \$0-s-tune-3 \$0-r-tune-3 TUNE
-5 -9 0 14 -262144 -1 -1 0 1;
#X obj 157 473 vsl 19 128 0 127 0 0 \$0-s-tune-4 \$0-r-tune-4 TUNE
-5 -10 0 14 -262144 -1 -1 0 1;
#X obj 207 473 vsl 19 128 0 127 0 0 \$0-s-tune-5 \$0-r-tune-5 TUNE
-5 -10 0 14 -262144 -1 -1 0 1;
#X obj 247 473 vsl 19 128 0 127 0 0 \$0-s-tune-6 \$0-r-tune-6 TUNE
-5 -10 0 14 -262144 -1 -1 0 1;
#X obj 297 473 vsl 19 128 0 127 0 0 \$0-s-tune-7 \$0-r-tune-7 TUNE
-5 -10 0 14 -262144 -1 -1 0 1;
#X obj 337 473 vsl 19 128 0 127 0 0 \$0-s-tune-8 \$0-r-tune-8 TUNE
-5 -10 0 14 -262144 -1 -1 0 1;
#X obj 120 428 hsl 54 19 0 127 0 0 \$0-s-sharp-34 \$0-r-sharp-34 SHARP
5 -7 0 14 -1 -262144 -1 0 1;
#X obj 210 428 hsl 54 19 0 127 0 0 \$0-s-sharp-56 \$0-r-sharp-56 SHARP
5 -7 0 14 -1 -262144 -1 0 1;
#X obj 300 428 hsl 54 19 0 127 0 0 \$0-s-sharp-78 \$0-r-sharp-78 SHARP
5 -7 0 14 -1 -262144 -1 0 1;
#X obj 120 388 hsl 54 19 0 127 0 0 \$0-s-mod-34 \$0-r-mod-34 MOD 14
-7 0 14 -1 -262144 -1 0 1;
#X obj 210 388 hsl 54 19 0 127 0 0 \$0-s-mod-56 \$0-r-mod-56 MOD 14
-7 0 14 -1 -262144 -1 0 1;
#X obj 300 388 hsl 54 19 0 127 0 0 \$0-s-mod-78 \$0-r-mod-78 MOD 14
-7 0 14 -1 -262144 -1 0 1;
#X obj 138 619 tgl 17 0 \$0-s-fast-34 \$0-r-fast-34 FAST -5 -7 0 12
-262144 -1 -1 0 1;
#X obj 228 619 tgl 17 0 \$0-s-fast-56 \$0-r-fast-56 FAST -5 -7 0 12
-262144 -1 -1 0 1;
#X obj 318 619 tgl 17 0 \$0-s-fast-78 \$0-r-fast-78 FAST -5 -7 0 12
-262144 -1 -1 0 1;
#X obj 100 440 cnv 3 3 200 empty empty empty 20 12 0 14 -1 -66577 0
;
#X obj 190 400 cnv 3 3 240 empty empty empty 20 12 0 14 -1 -66577 0
;
#X obj 370 400 cnv 3 3 240 empty empty empty 20 12 0 14 -1 -66577 0
;
#X obj 10 400 cnv 3 3 240 empty empty empty 20 12 0 14 -1 -66577 0
;
#X obj 87 436 cnv 3 29 3 empty empty empty 20 12 0 14 -1 -66577 0;
#X obj 177 396 cnv 3 29 3 empty empty empty 20 12 0 14 -1 -66577 0
;
#X obj 267 436 cnv 3 29 3 empty empty empty 20 12 0 14 -1 -66577 0
;
#X obj 10 396 cnv 3 16 3 empty empty empty 20 12 0 14 -1 -66577 0;
#X obj 357 396 cnv 3 16 3 empty empty empty 20 12 0 14 -1 -66577 0
;
#X obj 92 641 cnv 3 19 3 empty empty empty 20 12 0 14 -1 -66577 0;
#X obj 272 641 cnv 3 19 3 empty empty empty 20 12 0 14 -1 -66577 0
;
#X obj 182 641 cnv 3 19 3 empty empty empty 20 12 0 14 -1 -66577 0
;
#X obj 10 641 cnv 3 11 3 empty empty empty 20 12 0 14 -1 -66577 0;
#X obj 280 440 cnv 3 3 200 empty empty empty 20 12 0 14 -1 -66577 0
;
#X obj 362 641 cnv 3 11 3 empty empty empty 20 12 0 14 -1 -66577 0
;
#X obj 228 261 hsl 128 19 0 127 0 0 \$0-s-hold-5678 \$0-r-hold-5678
HOLD 45 -7 0 14 -1 -262144 -1 0 1;
#X obj 183 280 tgl 17 0 \$0-s-switch \$0-r-switch SWITCH -13 -7 0 12
-262144 -1 -1 0 1;
#X obj 153 235 tgl 17 0 \$0-s-total-fb \$0-r-total-fb TOTAL-FB -20
-7 0 12 -262144 -1 -1 0 1;
#X obj 223 234 tgl 17 0 \$0-s-vibrato \$0-r-vibrato VIBRATO -15 -7
0 12 -262144 -1 -1 0 1;
#X msg 398 768 8;
#X obj 398 789 until;
#X obj 398 810 i;
#X obj 428 810 + 1;
#X obj 398 852 t f f;
#X obj 398 925 list prepend;
#X obj 467 878 + 1;
#X obj 398 873 + 1;
#X obj 398 831 % 8;
#X obj 0 187 cnv 19 95 20 empty empty HYPER-LFO 5 11 0 14 -1 -262144
0;
#X obj 288 187 cnv 19 95 20 empty empty DISTORTION 10 11 0 14 -1 -262144
0;
#X obj 144 187 cnv 19 95 20 empty empty MOD-DELAY 12 11 0 14 -1 -262144
0;
#X obj 100 26 cnv 3 3 160 empty empty empty 20 12 0 14 -1 -66577 0
;
#X obj 280 26 cnv 3 3 160 empty empty empty 20 12 0 14 -1 -66577 0
;
#X obj 0 187 cnv 3 383 3 empty empty empty 20 12 0 14 -1 -66577 0;
#X obj 118 348 hradio 19 1 0 3 \$0-s-source-34 \$0-r-source-34 LFO-CV
4 -7 0 14 -262144 -1 -1 2;
#X obj 208 348 hradio 19 1 0 3 \$0-s-source-56 \$0-r-source-56 LFO-CV
4 -7 0 14 -262144 -1 -1 2;
#X obj 298 348 hradio 19 1 0 3 \$0-s-source-78 \$0-r-source-78 LFO-CV
4 -7 0 14 -262144 -1 -1 2;
#X obj 28 261 hsl 128 19 0 127 0 0 \$0-s-hold-1234 \$0-r-hold-1234
HOLD 45 -7 0 14 -1 -262144 -1 0 1;
#X obj 398 946 route 1 2 3 4 5 6 7 8;
#X msg 398 904 receive $\\\$0-tune-\\\$1;
#X obj 109 162 hradio 19 1 0 2 \$0-s-lfo-wav \$0-r-lfo-wav SQR 0 -8
0 14 -1 -262144 -1 1;
#X obj 109 125 hradio 19 1 0 2 \$0-s-del-mod \$0-r-del-mod SELF 0 -7
0 14 -1 -262144 -1 0;
#X obj 177 88 hsl 95 19 0 127 0 0 \$0-s-time-2 \$0-r-time-2 TIME-2
23 -7 0 14 -1 -262144 -1 0 1;
#X obj 112 88 hsl 54 19 0 127 0 0 \$0-s-mod-2 \$0-r-mod-2 MOD-2 6 -7
0 14 -1 -262144 -1 0 1;
#X obj 177 52 hsl 95 19 0 127 0 0 \$0-s-time-1 \$0-r-time-1 TIME-1
23 -8 0 14 -1 -262144 -1 0 1;
#X obj 112 52 hsl 54 19 0 127 0 0 \$0-s-mod-1 \$0-r-mod-1 MOD-1 6 -7
0 14 -1 -262144 -1 0 1;
#X obj 354 50 vsl 19 128 0 127 0 0 \$0-s-vol \$0-r-vol VOL -2 -9 0
14 -1 -262144 -1 0 1;
#X obj 324 50 vsl 19 128 0 127 0 0 \$0-s-dst-mix \$0-r-dst-mix MIX
-2 -9 0 14 -1 -262144 -1 0 1;
#X obj 294 50 vsl 19 128 0 127 0 0 \$0-s-drv \$0-r-drv DRV -2 -9 0
14 -1 -262144 -1 0 1;
#X obj 38 49 vsl 19 128 0 127 0 0 \$0-s-f-b \$0-r-f-b F-B -2 -9 0 14
-1 -262144 -1 0 1;
#X obj 8 49 vsl 19 128 0 127 0 0 \$0-s-f-a \$0-r-f-a F-A -2 -9 0 14
-1 -228856 -1 0 1;
#X obj 68 47 vradio 19 1 0 2 \$0-s-andor \$0-r-andor AND -2 -7 0 14
-1 -262144 -1 0;
#X obj 68 96 bng 19 50 10 0 empty \$0-r-led empty 17 7 0 10 -1 -4034
-1;
#X obj 310 228 cnv 5 15 15 empty empty ORGANISMIC 0 8 0 12 -256626
-1 0;
#X obj 312 245 cnv 5 15 15 empty empty SYNTHESIZER 0 3 0 10 -256626
-1 0;
#X obj 55 408 cnv 4 4 4 empty empty empty 20 12 0 14 -1 -66577 0;
#N canvas 966 711 763 300 gui.link 0;
#X obj 12 12 gui.link 1 \$0 fast-12;
#X obj 12 32 gui.link 2 \$0 fast-34;
#X obj 12 52 gui.link 3 \$0 fast-56;
#X obj 12 72 gui.link 4 \$0 fast-78;
#X obj 12 102 gui.link 5 \$0 tune-1;
#X obj 12 122 gui.link 6 \$0 tune-2;
#X obj 12 142 gui.link 7 \$0 tune-3;
#X obj 12 162 gui.link 8 \$0 tune-4;
#X obj 12 182 gui.link 9 \$0 tune-5;
#X obj 12 202 gui.link 10 \$0 tune-6;
#X obj 12 222 gui.link 11 \$0 tune-7;
#X obj 13 242 gui.link 12 \$0 tune-8;
#X obj 162 12 gui.link 13 \$0 sharp-12;
#X obj 162 72 gui.link 16 \$0 sharp-78;
#X obj 162 52 gui.link 15 \$0 sharp-56;
#X obj 162 32 gui.link 14 \$0 sharp-34;
#X obj 162 102 gui.link 17 \$0 mod-12;
#X obj 162 122 gui.link 18 \$0 mod-34;
#X obj 162 142 gui.link 19 \$0 mod-56;
#X obj 162 162 gui.link 20 \$0 mod-78;
#X obj 162 192 gui.link 21 \$0 source-12;
#X obj 162 212 gui.link 22 \$0 source-34;
#X obj 162 232 gui.link 23 \$0 source-56;
#X obj 162 252 gui.link 24 \$0 source-78;
#X obj 322 12 gui.link 25 \$0 pitch-1234;
#X obj 322 32 gui.link 26 \$0 pitch-5678;
#X obj 322 62 gui.link 27 \$0 hold-1234;
#X obj 322 82 gui.link 28 \$0 hold-5678;
#X obj 322 122 gui.link 29 \$0 switch;
#X obj 322 142 gui.link 30 \$0 total-fb;
#X obj 322 162 gui.link 31 \$0 vibrato;
#X obj 322 192 gui.link 32 \$0 f-a;
#X obj 322 212 gui.link 33 \$0 f-b;
#X obj 322 232 gui.link 34 \$0 andor;
#X obj 322 252 gui.link 35 \$0 link;
#X obj 482 12 gui.link 36 \$0 time-1;
#X obj 482 32 gui.link 37 \$0 time-2;
#X obj 482 72 gui.link 39 \$0 del-mix;
#X obj 482 52 gui.link 38 \$0 feedback;
#X obj 482 112 gui.link 40 \$0 mod-1;
#X obj 482 132 gui.link 41 \$0 mod-2;
#X obj 482 152 gui.link 42 \$0 del-mod;
#X obj 482 172 gui.link 43 \$0 lfo-wav;
#X obj 482 222 gui.link 45 \$0 dst-mix;
#X obj 482 242 gui.link 46 \$0 vol;
#X obj 482 202 gui.link 44 \$0 drv;
#X restore 18 765 pd gui.link;
#X obj 18 725 declare -path ./abs;
#N canvas 823 425 450 146 keyboard 0;
#X obj 14 41 s \$0-r-sensor-1;
#X obj 114 41 s \$0-r-sensor-2;
#X obj 214 41 s \$0-r-sensor-3;
#X obj 314 41 s \$0-r-sensor-4;
#X obj 14 81 s \$0-r-sensor-5;
#X obj 114 81 s \$0-r-sensor-6;
#X obj 214 81 s \$0-r-sensor-7;
#X obj 314 81 s \$0-r-sensor-8;
#X obj 14 20 key.tgl 49;
#X obj 114 20 key.tgl 50;
#X obj 214 20 key.tgl 51;
#X obj 314 20 key.tgl 52;
#X obj 14 60 key.tgl 53;
#X obj 114 60 key.tgl 54;
#X obj 214 60 key.tgl 55;
#X obj 314 60 key.tgl 56;
#X connect 8 0 0 0;
#X connect 9 0 1 0;
#X connect 10 0 2 0;
#X connect 11 0 3 0;
#X connect 12 0 4 0;
#X connect 13 0 5 0;
#X connect 14 0 6 0;
#X connect 15 0 7 0;
#X restore 18 745 pd keyboard;
#X obj 87 396 cnv 3 10 3 empty empty empty 20 12 0 14 -1 -66577 0;
#X obj 106 396 cnv 3 10 3 empty empty empty 20 12 0 14 -1 -66577 0
;
#X obj 86 356 cnv 3 11 3 empty empty empty 20 12 0 14 -1 -66577 0;
#X obj 106 356 cnv 3 11 3 empty empty empty 20 12 0 14 -1 -66577 0
;
#X obj 94 360 cnv 3 3 35 empty empty empty 20 12 0 14 -1 -66577 0;
#X obj 106 360 cnv 3 3 35 empty empty empty 20 12 0 14 -1 -66577 0
;
#X obj 267 396 cnv 3 10 3 empty empty empty 20 12 0 14 -1 -66577 0
;
#X obj 286 396 cnv 3 10 3 empty empty empty 20 12 0 14 -1 -66577 0
;
#X obj 266 356 cnv 3 11 3 empty empty empty 20 12 0 14 -1 -66577 0
;
#X obj 286 356 cnv 3 11 3 empty empty empty 20 12 0 14 -1 -66577 0
;
#X obj 274 360 cnv 3 3 35 empty empty empty 20 12 0 14 -1 -66577 0
;
#X obj 286 360 cnv 3 3 35 empty empty empty 20 12 0 14 -1 -66577 0
;
#X text 168 297 34 > 56;
#X text 168 307 78 > 12;
#X obj 68 146 tgl 19 0 \$0-s-link \$0-r-link LINK -4 -8 0 14 -1 -262144
-1 0 1;
#X obj 41 408 cnv 4 4 4 empty empty empty 20 12 0 14 -1 -66577 0;
#X obj 68 408 cnv 4 4 4 empty empty empty 20 12 0 14 -1 -66577 0;
#X obj 28 408 cnv 4 4 4 empty empty empty 20 12 0 14 -1 -66577 0;
#X obj 81 408 cnv 4 4 4 empty empty empty 20 12 0 14 -1 -66577 0;
#X obj 145 408 cnv 4 4 4 empty empty empty 20 12 0 14 -1 -66577 0;
#X obj 131 408 cnv 4 4 4 empty empty empty 20 12 0 14 -1 -66577 0;
#X obj 158 408 cnv 4 4 4 empty empty empty 20 12 0 14 -1 -66577 0;
#X obj 118 408 cnv 4 4 4 empty empty empty 20 12 0 14 -1 -66577 0;
#X obj 171 408 cnv 4 4 4 empty empty empty 20 12 0 14 -1 -66577 0;
#X obj 235 408 cnv 4 4 4 empty empty empty 20 12 0 14 -1 -66577 0;
#X obj 221 408 cnv 4 4 4 empty empty empty 20 12 0 14 -1 -66577 0;
#X obj 248 408 cnv 4 4 4 empty empty empty 20 12 0 14 -1 -66577 0;
#X obj 208 408 cnv 4 4 4 empty empty empty 20 12 0 14 -1 -66577 0;
#X obj 261 408 cnv 4 4 4 empty empty empty 20 12 0 14 -1 -66577 0;
#X obj 325 408 cnv 4 4 4 empty empty empty 20 12 0 14 -1 -66577 0;
#X obj 311 408 cnv 4 4 4 empty empty empty 20 12 0 14 -1 -66577 0;
#X obj 338 408 cnv 4 4 4 empty empty empty 20 12 0 14 -1 -66577 0;
#X obj 298 408 cnv 4 4 4 empty empty empty 20 12 0 14 -1 -66577 0;
#X obj 351 408 cnv 4 4 4 empty empty empty 20 12 0 14 -1 -66577 0;
#X obj 55 448 cnv 4 4 4 empty empty empty 20 12 0 14 -1 -66577 0;
#X obj 41 448 cnv 4 4 4 empty empty empty 20 12 0 14 -1 -66577 0;
#X obj 68 448 cnv 4 4 4 empty empty empty 20 12 0 14 -1 -66577 0;
#X obj 28 448 cnv 4 4 4 empty empty empty 20 12 0 14 -1 -66577 0;
#X obj 81 448 cnv 4 4 4 empty empty empty 20 12 0 14 -1 -66577 0;
#X obj 145 448 cnv 4 4 4 empty empty empty 20 12 0 14 -1 -66577 0;
#X obj 131 448 cnv 4 4 4 empty empty empty 20 12 0 14 -1 -66577 0;
#X obj 158 448 cnv 4 4 4 empty empty empty 20 12 0 14 -1 -66577 0;
#X obj 118 448 cnv 4 4 4 empty empty empty 20 12 0 14 -1 -66577 0;
#X obj 171 448 cnv 4 4 4 empty empty empty 20 12 0 14 -1 -66577 0;
#X obj 235 448 cnv 4 4 4 empty empty empty 20 12 0 14 -1 -66577 0;
#X obj 221 448 cnv 4 4 4 empty empty empty 20 12 0 14 -1 -66577 0;
#X obj 248 448 cnv 4 4 4 empty empty empty 20 12 0 14 -1 -66577 0;
#X obj 208 448 cnv 4 4 4 empty empty empty 20 12 0 14 -1 -66577 0;
#X obj 261 448 cnv 4 4 4 empty empty empty 20 12 0 14 -1 -66577 0;
#X obj 325 448 cnv 4 4 4 empty empty empty 20 12 0 14 -1 -66577 0;
#X obj 311 448 cnv 4 4 4 empty empty empty 20 12 0 14 -1 -66577 0;
#X obj 338 448 cnv 4 4 4 empty empty empty 20 12 0 14 -1 -66577 0;
#X obj 298 448 cnv 4 4 4 empty empty empty 20 12 0 14 -1 -66577 0;
#X obj 351 448 cnv 4 4 4 empty empty empty 20 12 0 14 -1 -66577 0;
#X obj 258 324 cnv 4 4 4 empty empty empty 20 12 0 14 -1 -66577 0;
#X obj 290 324 cnv 4 4 4 empty empty empty 20 12 0 14 -1 -66577 0;
#X obj 321 324 cnv 4 4 4 empty empty empty 20 12 0 14 -1 -66577 0;
#X obj 353 324 cnv 4 4 4 empty empty empty 20 12 0 14 -1 -66577 0;
#X obj 226 324 cnv 4 4 4 empty empty empty 20 12 0 14 -1 -66577 0;
#X obj 58 324 cnv 4 4 4 empty empty empty 20 12 0 14 -1 -66577 0;
#X obj 90 324 cnv 4 4 4 empty empty empty 20 12 0 14 -1 -66577 0;
#X obj 121 324 cnv 4 4 4 empty empty empty 20 12 0 14 -1 -66577 0;
#X obj 153 324 cnv 4 4 4 empty empty empty 20 12 0 14 -1 -66577 0;
#X obj 26 324 cnv 4 4 4 empty empty empty 20 12 0 14 -1 -66577 0;
#X obj 258 281 cnv 4 4 4 empty empty empty 20 12 0 14 -1 -66577 0;
#X obj 290 281 cnv 4 4 4 empty empty empty 20 12 0 14 -1 -66577 0;
#X obj 321 281 cnv 4 4 4 empty empty empty 20 12 0 14 -1 -66577 0;
#X obj 353 281 cnv 4 4 4 empty empty empty 20 12 0 14 -1 -66577 0;
#X obj 226 281 cnv 4 4 4 empty empty empty 20 12 0 14 -1 -66577 0;
#X obj 58 281 cnv 4 4 4 empty empty empty 20 12 0 14 -1 -66577 0;
#X obj 90 281 cnv 4 4 4 empty empty empty 20 12 0 14 -1 -66577 0;
#X obj 121 281 cnv 4 4 4 empty empty empty 20 12 0 14 -1 -66577 0;
#X obj 153 281 cnv 4 4 4 empty empty empty 20 12 0 14 -1 -66577 0;
#X obj 26 281 cnv 4 4 4 empty empty empty 20 12 0 14 -1 -66577 0;
#X obj 148 130 cnv 3 11 3 empty empty empty 20 12 0 14 -1 -66577 0
;
#X obj 156 134 cnv 3 3 35 empty empty empty 20 12 0 14 -1 -66577 0
;
#X obj 148 170 cnv 3 11 3 empty empty empty 20 12 0 14 -1 -66577 0
;
#X obj 177 162 hsl 95 19 0 127 0 0 \$0-s-del-mix \$0-r-del-mix MIX
35 -7 0 14 -1 -262144 -1 0 1;
#X obj 177 126 hsl 95 19 0 127 0 0 \$0-s-feedback \$0-r-feedback FEEDBACK
16 -7 0 14 -1 -262144 -1 0 1;
#X obj 18 811 text define -k \$0-tune;
#A set -16 93 \; -16 93 \; 7 109 \; 9 107 \; 20 116.54 \; 20 116.54
\; 33 126.24 \; 33 131.22 \;;
#X obj 18 841 loadbang;
#X obj 18 862 t b b;
#X obj 18 904 realtime;
#X obj 18 925 * 1000;
#X obj 18 946 i;
#X obj 18 967 s \$0-seed;
#X obj 63 883 del 200;
#X obj 394 526 lira.voice \$0 1 2;
#N canvas 916 300 523 729 master_output 0;
#X obj 389 101 r \$0-s-vol;
#X obj 389 244 / 127;
#X obj 389 307 line~;
#X obj 132 393 *~;
#X obj 132 464 *~ 0.9;
#X obj 132 485 dac~ 1 2;
#X obj 273 270 line~;
#X obj 12 218 inlet~;
#X obj 147 65 / 127;
#X obj 147 218 line~;
#X obj 147 12 r \$0-s-drv;
#X obj 147 86 pow 2;
#X obj 147 107 * 24;
#X obj 147 149 dbtorms;
#X obj 130 352 *~;
#X obj 273 207 r \$0-s-dst-mix;
#X obj 12 424 delwrite~ \$0-total-feedback 0;
#X obj 147 128 + 106;
#X obj 12 368 ma.tanh~;
#X obj 130 315 ma.tanh~;
#X obj 389 265 pow 2;
#X obj 273 228 / 127;
#X msg 273 249 \$1 20;
#X msg 147 170 \$1 20;
#X msg 389 286 \$1 20;
#X obj 79 281 *~;
#X obj 36 273 -~;
#X obj 79 239 hip~ 500;
#X obj 79 260 hip~ 500;
#X connect 0 0 1 0;
#X connect 1 0 20 0;
#X connect 2 0 3 1;
#X connect 3 0 4 0;
#X connect 4 0 5 0;
#X connect 4 0 5 1;
#X connect 6 0 14 1;
#X connect 7 0 18 0;
#X connect 7 0 26 0;
#X connect 7 0 27 0;
#X connect 8 0 11 0;
#X connect 9 0 25 1;
#X connect 10 0 8 0;
#X connect 11 0 12 0;
#X connect 12 0 17 0;
#X connect 13 0 23 0;
#X connect 14 0 16 0;
#X connect 14 0 18 0;
#X connect 15 0 21 0;
#X connect 17 0 13 0;
#X connect 18 0 16 0;
#X connect 18 0 3 0;
#X connect 19 0 14 0;
#X connect 20 0 24 0;
#X connect 21 0 22 0;
#X connect 22 0 6 0;
#X connect 23 0 9 0;
#X connect 24 0 2 0;
#X connect 25 0 19 0;
#X connect 26 0 14 0;
#X connect 27 0 28 0;
#X connect 28 0 25 0;
#X connect 28 0 26 1;
#X restore 394 686 pd master_output;
#X obj 424 578 lira.voice \$0 3 4;
#N canvas 1027 619 248 280 prm.hold 0;
#X obj 57 59 t f f;
#X obj 84 91 t f b;
#X obj 84 112 i;
#X obj 57 133 -;
#X obj 57 154 abs;
#X obj 12 33 t f f;
#X obj 12 154 / 127;
#X obj 12 196 pack f f;
#X obj 12 217 line~;
#X obj 12 238 outlet~;
#X obj 57 175 * 1;
#X obj 12 12 r \$0-s-hold-1234;
#X obj 12 175 pow 2;
#X connect 0 0 3 0;
#X connect 0 1 1 0;
#X connect 1 0 2 1;
#X connect 1 1 2 0;
#X connect 2 0 3 1;
#X connect 3 0 4 0;
#X connect 4 0 10 0;
#X connect 5 0 6 0;
#X connect 5 1 0 0;
#X connect 6 0 12 0;
#X connect 7 0 8 0;
#X connect 8 0 9 0;
#X connect 10 0 7 1;
#X connect 11 0 5 0;
#X connect 12 0 7 0;
#X restore 493 469 pd prm.hold;
#X obj 394 634 /~ 8;
#N canvas 1027 619 248 280 prm.hold 0;
#X obj 57 59 t f f;
#X obj 84 91 t f b;
#X obj 84 112 i;
#X obj 57 133 -;
#X obj 57 154 abs;
#X obj 12 33 t f f;
#X obj 12 154 / 127;
#X obj 12 196 pack f f;
#X obj 12 217 line~;
#X obj 12 238 outlet~;
#X obj 57 175 * 1;
#X obj 12 12 r \$0-s-hold-5678;
#X obj 12 175 pow 2;
#X connect 0 0 3 0;
#X connect 0 1 1 0;
#X connect 1 0 2 1;
#X connect 1 1 2 0;
#X connect 2 0 3 1;
#X connect 3 0 4 0;
#X connect 4 0 10 0;
#X connect 5 0 6 0;
#X connect 5 1 0 0;
#X connect 6 0 12 0;
#X connect 7 0 8 0;
#X connect 8 0 9 0;
#X connect 10 0 7 1;
#X connect 11 0 5 0;
#X connect 12 0 7 0;
#X restore 683 469 pd prm.hold;
#X obj 584 526 lira.voice \$0 5 6;
#X obj 614 578 lira.voice \$0 7 8;
#X obj 394 422 prm.source \$0 1 2 3 4 7 8;
#X obj 404 552 prm.source \$0 3 4 1 2 1 2;
#X obj 584 422 prm.source \$0 5 6 7 8 3 4;
#X obj 594 552 prm.source \$0 7 8 5 6 5 6;
#N canvas 789 216 438 510 hyper-lfo 0;
#X obj 12 159 phasor~;
#X obj 292 398 phasor~;
#X obj 197 319 *~;
#X obj 197 340 *~ 0.5;
#X obj 197 382 *~;
#X obj 212 361 r \$0-s-link;
#N canvas 654 271 320 351 triangle-lfo 0;
#X obj 12 185 *~;
#X obj 12 248 *~;
#X obj 27 206 r \$0-s-andor;
#X obj 27 227 == 0;
#X obj 179 253 *~;
#X obj 194 232 r \$0-s-andor;
#X obj 179 211 /~ 2;
#X obj 12 269 +~;
#X obj 12 310 delwrite~ \$0-tri-lfo 0;
#X obj 12 12 inlet~;
#X obj 33 38 loadbang;
#X msg 33 59 1;
#X obj 33 80 -~;
#X obj 12 101 min~;
#X obj 12 122 *~ 4;
#X obj 12 143 -~ 1;
#X obj 179 38 inlet~;
#X obj 200 64 loadbang;
#X msg 200 85 1;
#X obj 200 106 -~;
#X obj 179 127 min~;
#X obj 179 148 *~ 4;
#X obj 179 169 -~ 1;
#X connect 0 0 1 0;
#X connect 1 0 7 0;
#X connect 2 0 3 0;
#X connect 3 0 1 1;
#X connect 4 0 7 1;
#X connect 5 0 4 1;
#X connect 6 0 4 0;
#X connect 7 0 8 0;
#X connect 9 0 12 1;
#X connect 9 0 13 0;
#X connect 10 0 11 0;
#X connect 11 0 12 0;
#X connect 12 0 13 1;
#X connect 13 0 14 0;
#X connect 14 0 15 0;
#X connect 15 0 0 0;
#X connect 15 0 6 0;
#X connect 16 0 19 1;
#X connect 16 0 20 0;
#X connect 17 0 18 0;
#X connect 18 0 19 0;
#X connect 19 0 20 1;
#X connect 20 0 21 0;
#X connect 21 0 22 0;
#X connect 22 0 0 1;
#X restore 12 454 pd triangle-lfo;
#N canvas 111 22 303 346 square-lfo 0;
#X obj 179 53 -~ 0.5;
#X obj 179 74 *~ 1000;
#X obj 179 95 clip~ -1 1;
#X obj 12 111 *~;
#X obj 12 174 *~;
#X obj 27 132 r \$0-s-andor;
#X obj 27 153 == 0;
#X obj 179 179 *~;
#X obj 194 158 r \$0-s-andor;
#X obj 162 231 snapshot~;
#X obj 162 210 bang~;
#X obj 179 137 /~ 2;
#X obj 162 252 change;
#X obj 162 294 s \$0-r-led;
#X obj 12 195 +~;
#X obj 12 236 delwrite~ \$0-sqr-lfo 0;
#X obj 12 12 inlet~;
#X obj 179 32 inlet~;
#X obj 162 273 sel 1;
#X connect 0 0 1 0;
#X connect 1 0 2 0;
#X connect 2 0 3 1;
#X connect 2 0 11 0;
#X connect 3 0 4 0;
#X connect 4 0 14 0;
#X connect 5 0 6 0;
#X connect 6 0 4 1;
#X connect 7 0 14 1;
#X connect 8 0 7 1;
#X connect 9 0 12 0;
#X connect 10 0 9 0;
#X connect 11 0 7 0;
#X connect 12 0 18 0;
#X connect 14 0 9 0;
#X connect 14 0 15 0;
#X connect 16 0 3 0;
#X connect 16 0 11 0;
#X connect 17 0 0 0;
#X connect 18 0 13 0;
#X restore 72 414 pd square-lfo;
#X obj 72 185 -~ 0.5;
#X obj 72 206 *~ 1000;
#X obj 72 227 clip~ -1 1;
#X obj 12 12 r \$0-s-f-a;
#X obj 12 33 / 127;
#X obj 12 75 - 75;
#X obj 12 96 mtof;
#X msg 12 117 \$1 20;
#X obj 12 138 line~;
#X obj 12 54 * 135;
#X obj 292 198 / 127;
#X obj 292 240 - 75;
#X obj 292 261 mtof;
#X msg 292 282 \$1 20;
#X obj 292 303 line~;
#X obj 292 219 * 135;
#X obj 292 177 r \$0-s-f-b;
#X connect 0 0 6 0;
#X connect 0 0 8 0;
#X connect 1 0 6 1;
#X connect 1 0 7 1;
#X connect 2 0 3 0;
#X connect 3 0 4 0;
#X connect 4 0 1 0;
#X connect 5 0 4 1;
#X connect 8 0 9 0;
#X connect 9 0 10 0;
#X connect 10 0 2 0;
#X connect 10 0 7 0;
#X connect 11 0 12 0;
#X connect 12 0 17 0;
#X connect 13 0 14 0;
#X connect 14 0 15 0;
#X connect 15 0 16 0;
#X connect 16 0 0 0;
#X connect 17 0 13 0;
#X connect 18 0 23 0;
#X connect 19 0 20 0;
#X connect 20 0 21 0;
#X connect 21 0 22 0;
#X connect 22 0 1 0;
#X connect 22 0 2 1;
#X connect 23 0 19 0;
#X connect 24 0 18 0;
#X restore 394 401 pd hyper-lfo;
#X obj 443 448 prm.pitch \$0 1 2 3 4;
#X obj 624 445 prm.pitch \$0 5 6 7 8;
#N canvas 934 486 569 484 delay 0;
#X obj 12 266 inlet~;
#X obj 12 341 outlet~;
#X obj 32 297 delwrite~ \$0-mod-delay 8000;
#X obj 205 83 delread4~ \$0-mod-delay;
#X obj 205 12 prm.time \$0 1;
#X obj 345 83 delread4~ \$0-mod-delay;
#X obj 345 12 prm.time \$0 2;
#X obj 345 124 /~ 2;
#N canvas 1102 463 462 354 mod-source 0;
#X obj 43 50 r \$0-s-del-mod;
#X obj 43 71 == 0;
#X obj 28 134 *~;
#X obj 318 165 r \$0-s-del-mod;
#X obj 178 223 *~;
#X obj 28 29 delread~ \$0-mod-delay 0;
#X obj 178 29 delread~ \$0-tri-lfo;
#X obj 193 71 == 0;
#X obj 178 134 *~;
#X obj 193 50 r \$0-s-lfo-wav;
#X obj 318 134 *~;
#X obj 333 50 r \$0-s-lfo-wav;
#X obj 318 29 delread~ \$0-sqr-lfo;
#X obj 318 186 * 0.999;
#X obj 318 207 + 0.001;
#X obj 43 92 * 0.999;
#X obj 43 113 + 0.001;
#X obj 193 92 * 0.999;
#X obj 193 113 + 0.001;
#X obj 333 92 * 0.999;
#X obj 333 113 + 0.001;
#X obj 28 259 /~ 2;
#X obj 28 280 +~ 0.5;
#X obj 28 301 outlet~;
#X connect 0 0 1 0;
#X connect 1 0 15 0;
#X connect 2 0 21 0;
#X connect 3 0 13 0;
#X connect 4 0 21 0;
#X connect 5 0 2 0;
#X connect 6 0 8 0;
#X connect 7 0 17 0;
#X connect 8 0 4 0;
#X connect 9 0 7 0;
#X connect 10 0 4 0;
#X connect 11 0 19 0;
#X connect 12 0 10 0;
#X connect 13 0 14 0;
#X connect 14 0 4 1;
#X connect 15 0 16 0;
#X connect 16 0 2 1;
#X connect 17 0 18 0;
#X connect 18 0 8 1;
#X connect 19 0 20 0;
#X connect 20 0 10 1;
#X connect 21 0 22 0;
#X connect 22 0 23 0;
#X restore 441 43 pd mod-source;
#X obj 355 38 prm.mod \$0 2;
#X obj 215 38 prm.mod \$0 1;
#X obj 215 59 *~;
#X obj 355 59 *~;
#X obj 182 200 *~;
#X obj 345 295 *~;
#X obj 182 221 hip~ 100;
#X obj 182 242 lop~ 4000;
#X obj 182 137 / 127;
#X msg 182 158 \$1 20;
#X obj 182 179 line~;
#X obj 182 116 r \$0-s-feedback;
#X obj 360 232 / 127;
#X msg 360 253 \$1 20;
#X obj 360 274 line~;
#X obj 360 211 r \$0-s-del-mix;
#X obj 345 150 ma.tanh~;
#X connect 0 0 2 0;
#X connect 0 0 1 0;
#X connect 3 0 7 0;
#X connect 4 0 3 0;
#X connect 5 0 7 0;
#X connect 6 0 5 0;
#X connect 7 0 25 0;
#X connect 8 0 11 1;
#X connect 8 0 12 1;
#X connect 9 0 12 0;
#X connect 10 0 11 0;
#X connect 11 0 3 0;
#X connect 12 0 5 0;
#X connect 13 0 15 0;
#X connect 14 0 1 0;
#X connect 15 0 16 0;
#X connect 16 0 2 0;
#X connect 17 0 18 0;
#X connect 18 0 19 0;
#X connect 19 0 13 0;
#X connect 20 0 17 0;
#X connect 21 0 22 0;
#X connect 22 0 23 0;
#X connect 23 0 14 1;
#X connect 24 0 21 0;
#X connect 25 0 13 1;
#X connect 25 0 14 0;
#X restore 394 660 pd delay;
#X obj 128 967 print -n;
#X obj 128 925 loadbang;
#X msg 128 946 LIRA-8 by Mike Moreno Audio 2020;
#N canvas 864 243 835 593 labels 0;
#X obj 12 38 r \$0-s-source-12;
#X obj 12 248 s \$0-r-source-12;
#X obj 12 101 text get \$0-source-12-label;
#X obj 12 12 text define -k \$0-source-12-label;
#A set 1 34 20 \; 2 OFF 20 \; 2 LFO-CV 4 \;;
#X msg 12 227 label \$1;
#X obj 12 206 makefilename %s;
#X obj 12 164 route 1 2;
#X obj 37 185 symbol;
#X msg 12 143 \$1 \$2;
#X obj 12 122 t a a;
#X obj 80 159 s \$0-r-source-12;
#X msg 232 227 label \$1;
#X obj 232 206 makefilename %s;
#X obj 232 164 route 1 2;
#X obj 257 185 symbol;
#X msg 232 143 \$1 \$2;
#X obj 232 122 t a a;
#X msg 12 497 label \$1;
#X obj 12 476 makefilename %s;
#X obj 12 434 route 1 2;
#X obj 37 455 symbol;
#X msg 12 413 \$1 \$2;
#X obj 12 392 t a a;
#X msg 232 497 label \$1;
#X obj 232 476 makefilename %s;
#X obj 232 434 route 1 2;
#X obj 257 455 symbol;
#X msg 232 413 \$1 \$2;
#X obj 232 392 t a a;
#X obj 232 248 s \$0-r-source-34;
#X obj 232 38 r \$0-s-source-34;
#X obj 12 518 s \$0-r-source-56;
#X obj 232 518 s \$0-r-source-78;
#X obj 232 308 r \$0-s-source-78;
#X obj 12 371 text get \$0-source-56-label;
#X obj 232 371 text get \$0-source-78-label;
#X obj 232 282 text define -k \$0-source-78-label;
#A set 1 56 20 \; 2 OFF 20 \; 2 LFO-CV 4 \;;
#X obj 12 282 text define -k \$0-source-56-label;
#A set 1 78 20 \; 2 OFF 20 \; 2 LFO-CV 4 \;;
#X obj 12 308 r \$0-s-source-56;
#X obj 232 12 text define -k \$0-source-34-label;
#A set 1 12 20 \; 2 OFF 20 \; 2 LFO-CV 4 \;;
#X obj 232 101 text get \$0-source-34-label;
#X obj 300 159 s \$0-r-source-34;
#X obj 80 429 s \$0-r-source-56;
#X obj 300 429 s \$0-r-source-78;
#X obj 462 122 t a a;
#X obj 462 12 text define -k \$0-andor-label;
#A set AND -2 \; OR 2 \;;
#X obj 462 101 text get \$0-andor-label;
#X obj 462 38 r \$0-s-andor;
#X obj 462 164 symbol;
#X obj 462 206 s \$0-r-andor;
#X msg 462 185 label \$1;
#X obj 530 159 s \$0-r-andor;
#X msg 462 143 \$1;
#X obj 652 144 symbol;
#X msg 652 165 label \$1;
#X msg 652 123 \$1;
#X obj 652 38 r \$0-s-del-mod;
#X obj 652 102 text get \$0-del-mod;
#X obj 652 12 text define -k \$0-del-mod;
#A set SELF \; LFO \;;
#X obj 652 186 s \$0-r-del-mod;
#X obj 652 363 symbol;
#X msg 652 384 label \$1;
#X msg 652 342 \$1;
#X obj 652 321 text get \$0-lfo-wav;
#X obj 652 258 r \$0-s-lfo-wav;
#X obj 652 232 text define -k \$0-lfo-wav;
#A set TRI \; SQR \;;
#X obj 652 405 s \$0-r-lfo-wav;
#X msg 530 138 label_pos \$2 -7;
#X msg 80 408 label_pos \$3 -7;
#X msg 300 408 label_pos \$3 -7;
#X msg 300 138 label_pos \$3 -7;
#X msg 80 138 label_pos \$3 -7;
#X obj 462 59 t b f;
#X obj 462 80 s \$0-redraw;
#X obj 652 59 t b f;
#X obj 652 80 s \$0-redraw;
#X obj 12 59 t b f;
#X obj 12 80 s \$0-redraw;
#X obj 232 59 t b f;
#X obj 232 80 s \$0-redraw;
#X obj 12 329 t b f;
#X obj 12 350 s \$0-redraw;
#X obj 232 329 t b f;
#X obj 232 350 s \$0-redraw;
#X obj 652 279 t b f;
#X obj 652 300 s \$0-redraw;
#X connect 0 0 76 0;
#X connect 2 0 9 0;
#X connect 4 0 1 0;
#X connect 5 0 4 0;
#X connect 6 0 5 0;
#X connect 6 1 7 0;
#X connect 7 0 4 0;
#X connect 8 0 6 0;
#X connect 9 0 8 0;
#X connect 9 1 71 0;
#X connect 11 0 29 0;
#X connect 12 0 11 0;
#X connect 13 0 12 0;
#X connect 13 1 14 0;
#X connect 14 0 11 0;
#X connect 15 0 13 0;
#X connect 16 0 15 0;
#X connect 16 1 70 0;
#X connect 17 0 31 0;
#X connect 18 0 17 0;
#X connect 19 0 18 0;
#X connect 19 1 20 0;
#X connect 20 0 17 0;
#X connect 21 0 19 0;
#X connect 22 0 21 0;
#X connect 22 1 68 0;
#X connect 23 0 32 0;
#X connect 24 0 23 0;
#X connect 25 0 24 0;
#X connect 25 1 26 0;
#X connect 26 0 23 0;
#X connect 27 0 25 0;
#X connect 28 0 27 0;
#X connect 28 1 69 0;
#X connect 30 0 78 0;
#X connect 33 0 82 0;
#X connect 34 0 22 0;
#X connect 35 0 28 0;
#X connect 38 0 80 0;
#X connect 40 0 16 0;
#X connect 44 0 52 0;
#X connect 44 1 67 0;
#X connect 46 0 44 0;
#X connect 47 0 72 0;
#X connect 48 0 50 0;
#X connect 50 0 49 0;
#X connect 52 0 48 0;
#X connect 53 0 54 0;
#X connect 54 0 59 0;
#X connect 55 0 53 0;
#X connect 56 0 74 0;
#X connect 57 0 55 0;
#X connect 60 0 61 0;
#X connect 61 0 66 0;
#X connect 62 0 60 0;
#X connect 63 0 62 0;
#X connect 64 0 84 0;
#X connect 67 0 51 0;
#X connect 68 0 42 0;
#X connect 69 0 43 0;
#X connect 70 0 41 0;
#X connect 71 0 10 0;
#X connect 72 0 73 0;
#X connect 72 1 46 0;
#X connect 74 0 75 0;
#X connect 74 1 57 0;
#X connect 76 0 77 0;
#X connect 76 1 2 0;
#X connect 78 0 79 0;
#X connect 78 1 40 0;
#X connect 80 0 81 0;
#X connect 80 1 34 0;
#X connect 82 0 83 0;
#X connect 82 1 35 0;
#X connect 84 0 85 0;
#X connect 84 1 63 0;
#X restore 18 785 pd labels;
#X obj 436 231 tgl 15 0 empty empty empty 17 7 0 10 -262144 -1 -1 1
1;
#X obj 436 272 s \$0-metro;
#X obj 436 189 loadbang;
#X msg 436 210 1;
#X obj 436 251 metro 100;
#X obj 590 698 notein;
#X obj 590 719 pack f f;
#X obj 590 783 clone -s 1 note 8 \$0;
#X obj 590 740 list prepend all;
#X obj 590 761 list trim;
#X msg 611 863 gui redraw;
#X obj 611 884 s camomile;
#X obj 610 843 r \$0-redraw;
#X obj 25 1 cnv 24 358 24 empty empty LIRA•8 120 13 0 24 -1 -262144
0;
#X obj 0 1 bng 24 250 50 0 empty empty empty 17 7 0 10 -262144 -1 -1
;
#X connect 59 0 60 0;
#X connect 60 0 61 0;
#X connect 61 0 67 0;
#X connect 62 0 61 1;
#X connect 63 0 66 0;
#X connect 63 1 65 0;
#X connect 64 0 78 0;
#X connect 65 0 64 1;
#X connect 66 0 79 0;
#X connect 67 0 62 0;
#X connect 67 0 63 0;
#X connect 79 0 64 0;
#X connect 179 0 180 0;
#X connect 180 0 181 0;
#X connect 180 1 185 0;
#X connect 181 0 182 0;
#X connect 182 0 183 0;
#X connect 183 0 184 0;
#X connect 185 0 181 1;
#X connect 186 0 190 0;
#X connect 188 0 190 0;
#X connect 189 0 186 2;
#X connect 189 0 188 2;
#X connect 190 0 201 0;
#X connect 191 0 192 2;
#X connect 191 0 193 2;
#X connect 192 0 190 0;
#X connect 193 0 190 0;
#X connect 194 0 186 0;
#X connect 195 0 188 0;
#X connect 196 0 192 0;
#X connect 197 0 193 0;
#X connect 199 0 186 1;
#X connect 199 0 188 1;
#X connect 200 0 192 1;
#X connect 200 0 193 1;
#X connect 201 0 187 0;
#X connect 203 0 204 0;
#X connect 204 0 202 0;
#X connect 206 0 210 0;
#X connect 208 0 209 0;
#X connect 209 0 206 0;
#X connect 210 0 207 0;
#X connect 211 0 212 0;
#X connect 211 1 212 1;
#X connect 212 0 214 0;
#X connect 214 0 215 0;
#X connect 215 0 213 0;
#X connect 216 0 217 0;
#X connect 218 0 216 0;
#X coords 0 -1 1 1 385 702 2 -1 0;
