#N canvas 931 280 835 716 10;
#X obj 16 343 os.triangle~;
#N canvas 1027 619 224 280 prm.sharp 0;
#X obj 57 59 t f f;
#X obj 84 91 t f b;
#X obj 84 112 i;
#X obj 57 133 -;
#X obj 57 154 abs;
#X obj 12 33 t f f;
#X obj 12 154 / 127;
#X obj 12 175 pow 2;
#X obj 12 196 pack f f;
#X obj 12 217 line~;
#X obj 12 12 r \$1-s-sharp-\$2\$3;
#X obj 12 238 outlet~;
#X obj 57 175 * 1;
#X connect 0 0 3 0;
#X connect 0 1 1 0;
#X connect 1 0 2 1;
#X connect 1 1 2 0;
#X connect 2 0 3 1;
#X connect 3 0 4 0;
#X connect 4 0 12 0;
#X connect 5 0 6 0;
#X connect 5 1 0 0;
#X connect 6 0 7 0;
#X connect 7 0 8 0;
#X connect 8 0 9 0;
#X connect 9 0 11 0;
#X connect 10 0 5 0;
#X connect 12 0 8 1;
#X restore 425 397 pd prm.sharp;
#X obj 16 413 *~;
#X obj 85 476 *~;
#X obj 16 570 *~;
#X obj 16 662 outlet~;
#X obj 16 610 +~;
#X obj 266 343 os.triangle~;
#X obj 266 433 *~;
#X obj 335 486 *~;
#X obj 251 594 *~;
#X obj 36 317 *~;
#N canvas 1027 619 248 280 prm.mod 0;
#X obj 57 59 t f f;
#X obj 84 91 t f b;
#X obj 84 112 i;
#X obj 57 133 -;
#X obj 57 154 abs;
#X obj 12 33 t f f;
#X obj 12 124 / 127;
#X obj 12 196 pack f f;
#X obj 12 217 line~;
#X obj 12 238 outlet~;
#X obj 57 175 * 1;
#X obj 12 12 r \$1-s-mod-\$2\$3;
#X obj 12 145 pow 4;
#X obj 12 166 * 2;
#X connect 0 0 3 0;
#X connect 0 1 1 0;
#X connect 1 0 2 1;
#X connect 1 1 2 0;
#X connect 2 0 3 1;
#X connect 3 0 4 0;
#X connect 4 0 10 0;
#X connect 5 0 6 0;
#X connect 5 1 0 0;
#X connect 6 0 12 0;
#X connect 7 0 8 0;
#X connect 8 0 9 0;
#X connect 10 0 7 1;
#X connect 11 0 5 0;
#X connect 12 0 13 0;
#X connect 13 0 7 0;
#X restore 139 280 pd prm.mod;
#X obj 231 317 *~;
#X obj 124 301 *~;
#X obj 124 259 inlet~;
#N canvas 897 638 270 272 prm.sensor 0;
#X obj 12 201 outlet~;
#X obj 12 12 r \$1-s-sensor-\$2;
#X obj 12 75 sel 1 0;
#X obj 12 96 v \$0-attack;
#X obj 92 96 v \$0-release;
#X msg 12 117 1 \$1;
#X msg 92 117 0 \$1;
#X obj 12 138 line~;
#X obj 12 159 *~;
#X obj 82 159 -~ 0.25;
#X obj 82 180 cos~;
#X obj 12 54 i;
#X obj 22 33 r \$0-trigger;
#X obj 82 201 /~ 2;
#X obj 82 222 outlet~;
#X connect 1 0 11 0;
#X connect 2 0 3 0;
#X connect 2 1 4 0;
#X connect 3 0 5 0;
#X connect 4 0 6 0;
#X connect 5 0 7 0;
#X connect 6 0 7 0;
#X connect 7 0 8 0;
#X connect 7 0 8 1;
#X connect 7 0 9 0;
#X connect 8 0 0 0;
#X connect 9 0 10 0;
#X connect 10 0 13 0;
#X connect 11 0 2 0;
#X connect 12 0 11 0;
#X connect 13 0 14 0;
#X restore 58 533 pd prm.sensor;
#X obj 26 636 delwrite~ \$1-del-\$2\$3 0;
#X obj 410 418 loadbang;
#X msg 410 439 1;
#X obj 410 460 -~;
#X obj 377 538 inlet~;
#X obj 58 554 min~ 1;
#X obj 178 554 min~ 1;
#X obj 16 211 prm.tune \$1 \$2;
#X obj 266 211 prm.tune \$1 \$3;
#X obj 364 216 inlet~;
#X text 124 239 (I1) Mod Source;
#X text 377 518 (I3) Hold;
#X text 364 196 (I2) Pitch;
#X obj 16 232 *~;
#X obj 266 232 *~;
#X msg 520 184 \$1 1;
#X obj 520 205 line~;
#X obj 470 200 osc~ 3;
#X obj 384 327 sig~ 0.53125;
#X obj 470 221 *~;
#X obj 520 163 r \$1-s-vibrato;
#X obj 16 283 +~;
#X obj 266 283 +~;
#X obj 36 253 *~;
#X obj 296 253 *~;
#X obj 496 53 r \$1-seed;
#X obj 496 74 +;
#X obj 470 3 loadbang;
#X obj 564 58 f \$2;
#X obj 470 24 t b b;
#X msg 496 95 seed \$1;
#X obj 470 327 *~ 0.025;
#X obj 470 137 / 1000;
#X obj 470 116 random 1001;
#X obj 470 179 + 0.5;
#X obj 470 158 * 3;
#X obj 540 417 r \$1-s-fast-\$2\$3;
#X obj 567 459 sel 1 0;
#X obj 567 501 unpack f f;
#X obj 567 522 v \$0-attack;
#X obj 647 522 v \$0-release;
#X msg 637 480 1000 8000;
#X obj 540 438 t b f;
#X obj 540 543 s \$0-trigger;
#N canvas 897 638 270 272 prm.sensor 0;
#X obj 12 201 outlet~;
#X obj 12 75 sel 1 0;
#X obj 12 96 v \$0-attack;
#X obj 92 96 v \$0-release;
#X msg 12 117 1 \$1;
#X msg 92 117 0 \$1;
#X obj 12 138 line~;
#X obj 12 159 *~;
#X obj 82 159 -~ 0.25;
#X obj 82 180 cos~;
#X obj 12 54 i;
#X obj 22 33 r \$0-trigger;
#X obj 12 12 r \$1-s-sensor-\$3;
#X obj 82 201 /~ 2;
#X obj 82 222 outlet~;
#X connect 1 0 2 0;
#X connect 1 1 3 0;
#X connect 2 0 4 0;
#X connect 3 0 5 0;
#X connect 4 0 6 0;
#X connect 5 0 6 0;
#X connect 6 0 7 0;
#X connect 6 0 7 1;
#X connect 6 0 8 0;
#X connect 7 0 0 0;
#X connect 8 0 9 0;
#X connect 9 0 13 0;
#X connect 10 0 1 0;
#X connect 11 0 10 0;
#X connect 12 0 10 0;
#X connect 13 0 14 0;
#X restore 178 533 pd prm.sensor;
#X obj 104 56 random 100;
#X obj 104 77 / 100;
#X obj 104 98 * 2;
#X obj 104 119 - 1;
#X obj 104 182 line~;
#X obj 104 35 r \$1-metro;
#X obj 104 140 * 0.001;
#X msg 104 161 \$1 100;
#X obj 400 237 *~ 0.005;
#X obj 298 626 r \$1-s-sensor-\$3;
#X obj 288 605 r \$1-s-sensor-\$2;
#X obj 288 647 sel 1;
#X msg 288 668 1;
#X obj 178 626 env~ 2048;
#X obj 178 647 sel 0;
#X msg 178 668 0;
#X msg 567 480 100 100;
#X obj 294 56 random 100;
#X obj 294 77 / 100;
#X obj 294 98 * 2;
#X obj 294 119 - 1;
#X obj 294 182 line~;
#X obj 294 35 r \$1-metro;
#X obj 294 140 * 0.001;
#X msg 294 161 \$1 100;
#X obj 401 652 loadbang;
#X connect 0 0 2 0;
#X connect 0 1 3 0;
#X connect 1 0 2 1;
#X connect 1 0 20 1;
#X connect 1 0 8 1;
#X connect 2 0 4 0;
#X connect 3 0 4 0;
#X connect 4 0 6 0;
#X connect 6 0 5 0;
#X connect 6 0 17 0;
#X connect 6 0 75 0;
#X connect 7 0 8 0;
#X connect 7 1 9 0;
#X connect 8 0 10 1;
#X connect 9 0 10 1;
#X connect 10 0 6 1;
#X connect 11 0 0 0;
#X connect 12 0 14 1;
#X connect 13 0 7 0;
#X connect 14 0 11 1;
#X connect 14 0 13 0;
#X connect 15 0 14 0;
#X connect 16 0 22 0;
#X connect 16 1 4 0;
#X connect 18 0 19 0;
#X connect 19 0 20 0;
#X connect 20 0 3 1;
#X connect 20 0 9 1;
#X connect 21 0 23 0;
#X connect 21 0 22 0;
#X connect 22 0 4 1;
#X connect 23 0 10 0;
#X connect 24 0 30 0;
#X connect 25 0 31 0;
#X connect 26 0 31 1;
#X connect 26 0 30 1;
#X connect 30 0 38 0;
#X connect 30 0 40 0;
#X connect 31 0 39 0;
#X connect 31 0 41 0;
#X connect 32 0 33 0;
#X connect 33 0 36 1;
#X connect 34 0 36 0;
#X connect 35 0 0 1;
#X connect 35 0 7 1;
#X connect 36 0 48 0;
#X connect 36 0 70 0;
#X connect 37 0 32 0;
#X connect 38 0 11 0;
#X connect 38 0 0 0;
#X connect 39 0 13 1;
#X connect 39 0 7 0;
#X connect 40 0 38 1;
#X connect 41 0 39 1;
#X connect 42 0 43 0;
#X connect 43 0 47 0;
#X connect 44 0 46 0;
#X connect 45 0 43 1;
#X connect 46 0 50 0;
#X connect 46 1 45 0;
#X connect 47 0 50 0;
#X connect 48 0 0 1;
#X connect 48 0 7 1;
#X connect 49 0 52 0;
#X connect 50 0 49 0;
#X connect 51 0 34 0;
#X connect 52 0 51 0;
#X connect 53 0 59 0;
#X connect 54 0 78 0;
#X connect 54 1 58 0;
#X connect 55 0 56 0;
#X connect 55 1 57 0;
#X connect 58 0 55 0;
#X connect 59 0 60 0;
#X connect 59 1 54 0;
#X connect 61 0 23 0;
#X connect 61 1 10 1;
#X connect 62 0 63 0;
#X connect 63 0 64 0;
#X connect 64 0 65 0;
#X connect 65 0 68 0;
#X connect 66 0 30 1;
#X connect 67 0 62 0;
#X connect 68 0 69 0;
#X connect 69 0 66 0;
#X connect 70 0 41 1;
#X connect 70 0 40 1;
#X connect 71 0 73 0;
#X connect 72 0 73 0;
#X connect 73 0 74 0;
#X connect 75 0 76 0;
#X connect 76 0 77 0;
#X connect 78 0 55 0;
#X connect 79 0 80 0;
#X connect 80 0 81 0;
#X connect 81 0 82 0;
#X connect 82 0 85 0;
#X connect 83 0 31 1;
#X connect 84 0 79 0;
#X connect 85 0 86 0;
#X connect 86 0 83 0;
#X connect 87 0 74 0;
