#N canvas 216 616 221 333 10;
#X obj 12 33 / 127;
#X obj 12 238 outlet~;
#X msg 12 196 \$1 20;
#X obj 12 217 line~;
#X obj 12 12 r \$1-s-mod-\$2;
#X obj 12 54 pow 2;
#X msg 12 96 2 \$1;
#X obj 12 117 pow;
#X obj 12 138 - 1;
#X obj 12 159 * 10;
#X obj 12 75 * 2;
#X connect 0 0 5 0;
#X connect 2 0 3 0;
#X connect 3 0 1 0;
#X connect 4 0 0 0;
#X connect 5 0 10 0;
#X connect 6 0 7 0;
#X connect 7 0 8 0;
#X connect 8 0 9 0;
#X connect 9 0 2 0;
#X connect 10 0 6 0;
